<?xml version="1.0" encoding="utf-8"?>
<!-- Generator: Adobe Illustrator 19.2.0, SVG Export Plug-In . SVG Version: 6.00 Build 0)  -->
<svg version="1.1" id="Layer_1" xmlns="http://www.w3.org/2000/svg" xmlns:xlink="http://www.w3.org/1999/xlink" x="0px" y="0px"
	 viewBox="0 0 2481 2073" style="enable-background:new 0 0 2481 2073;" xml:space="preserve">
<style type="text/css">
	.st0{fill:none;stroke:#2C3E50;stroke-width:31;stroke-miterlimit:10;}
</style>
<title>google-pin</title>
<title>Layer 1</title>
<path class="st0" d="M1306,333.6l-105.8,183.3c-3.3,5.7-1.3,13.1,4.4,16.4l0,0c5.7,3.3,13.1,1.3,16.4-4.4l105.8-183.3
	c3.3-5.7,1.3-13.1-4.4-16.4l0,0C1316.7,325.9,1309.3,327.9,1306,333.6z"/>
<path class="st0" d="M587.8,1165.9l-166,131.4c-5.2,4.1-6.1,11.7-2,16.9l0,0c4.1,5.2,11.7,6.1,16.9,2l166-131.4
	c5.2-4.1,6.1-11.7,2-16.9l0,0C600.5,1162.7,592.9,1161.8,587.8,1165.9z"/>
<path class="st0" d="M513.5,955L302,946.4c-6.6-0.3-12.2,4.9-12.5,11.5l0,0c-0.3,6.6,4.9,12.2,11.5,12.5l211.5,8.6
	c6.6,0.3,12.2-4.9,12.5-11.5l0,0C525.2,960.9,520.1,955.3,513.5,955z"/>
<path class="st0" d="M725.9,535.8L608.1,360c-3.7-5.5-11.2-7-16.6-3.3l0,0c-5.5,3.7-7,11.2-3.3,16.6L706,549.2
	c3.7,5.5,11.2,7,16.6,3.3l0,0C728.1,548.8,729.5,541.3,725.9,535.8z"/>
<path class="st0" d="M965.3,250.4l-8.6,211.5c-0.3,6.6,4.9,12.2,11.5,12.5l0,0c6.6,0.3,12.2-4.9,12.5-11.5l8.6-211.5
	c0.3-6.6-4.9-12.2-11.5-12.5l0,0C971.2,238.6,965.6,243.8,965.3,250.4z"/>
<path class="st0" d="M369.8,619.8l197.4,76.3c6.2,2.4,13.1-0.7,15.5-6.9l0,0c2.4-6.2-0.7-13.1-6.9-15.5l-197.4-76.3
	c-6.2-2.4-13.1,0.7-15.5,6.9l0,0C360.5,610.4,363.6,617.4,369.8,619.8z"/>
<circle class="st0" cx="989.3" cy="920.9" r="386"/>
<path class="st0" d="M1698.8,984.7L1698.8,984.7c0.2-6.6-5-12.2-11.6-12.4l-211.5-7.4c-6.6-0.2-12.2,5-12.4,11.6l0,0
	c-0.2,6.6,5,12.2,11.6,12.4l211.5,7.4C1692.9,996.5,1698.6,991.3,1698.8,984.7z"/>
<path class="st0" d="M734.9,1322.7L734.9,1322.7c-5.8-3.2-13.1-1.2-16.4,4.5l-104.8,183.9c-3.2,5.8-1.2,13.1,4.5,16.4l0,0
	c5.8,3.2,13.1,1.2,16.4-4.5l104.8-183.9C742.7,1333.3,740.6,1326,734.9,1322.7z"/>
<path class="st0" d="M1191.6,1375L1191.6,1375c-6,2.6-8.7,9.8-6,15.8l86.7,193.1c2.6,6,9.8,8.7,15.8,6l0,0c6-2.6,8.7-9.8,6-15.8
	l-86.7-193.1C1204.7,1375.1,1197.6,1372.3,1191.6,1375z"/>
<path class="st0" d="M1602.2,602.1L1602.2,602.1c-3.6-5.6-11-7.2-16.6-3.6l-178.1,114.4c-5.6,3.6-7.2,11-3.6,16.6l0,0
	c3.6,5.6,11,7.2,16.6,3.6l178.1-114.4C1604.2,615.1,1605.8,607.6,1602.2,602.1z"/>
<path class="st0" d="M1592.7,1324.8L1592.7,1324.8c3.2-5.8,1.2-13.1-4.5-16.4l-183.9-104.8c-5.8-3.2-13.1-1.2-16.4,4.5l0,0
	c-3.2,5.8-1.2,13.1,4.5,16.4l183.9,104.8C1582.1,1332.6,1589.5,1330.6,1592.7,1324.8z"/>
<path class="st0" d="M957,1652.6L957,1652.6c6.5,1.3,12.8-3,14.1-9.5l39.9-207.8c1.3-6.5-3-12.8-9.5-14.1l0,0
	c-6.5-1.3-12.8,3-14.1,9.5l-39.9,207.8C946.3,1645.1,950.6,1651.4,957,1652.6z"/>
</svg>
