<?xml version="1.0" encoding="utf-8"?>
<!-- Generator: Adobe Illustrator 19.2.0, SVG Export Plug-In . SVG Version: 6.00 Build 0)  -->
<svg version="1.1" id="Layer_1" xmlns="http://www.w3.org/2000/svg" xmlns:xlink="http://www.w3.org/1999/xlink" x="0px" y="0px"
	 viewBox="0 0 2481 2073" style="enable-background:new 0 0 2481 2073;" xml:space="preserve">
<style type="text/css">
	.st0{fill:none;stroke:#2C3E50;stroke-width:50;stroke-miterlimit:10;}
	.st1{fill:none;stroke:#2C3E50;stroke-width:31;stroke-miterlimit:10;}
</style>
<title>google-pin</title>
<title>Layer 1</title>
<path class="st0" d="M1477.4,855.8c-136.3,0-256.9,52.3-330.1,132.4c-179.1,25.6-312.6,125.2-312.6,244.1
	c0,138.4,180.7,250.5,403.5,250.5c44,0,86.3-4.4,126-12.5c35.9,8.1,73.9,12.5,113.2,12.5c223.3,0,404.4-140.4,404.4-313.5
	S1700.7,855.8,1477.4,855.8z"/>
<path class="st1" d="M1090.9,926.1c52.9-57.9,130.6-101.3,221.1-120.9c-36.9-150.2-172.5-261.6-334-261.6c-190,0-344,154-344,344
	c0,115.5,57,217.8,144.3,280.2C780.1,1050,913,951.5,1090.9,926.1z"/>
<path class="st1" d="M1306,333.6l-105.8,183.3c-3.3,5.7-1.3,13.1,4.4,16.4l0,0c5.7,3.3,13.1,1.3,16.4-4.4l105.8-183.3
	c3.3-5.7,1.3-13.1-4.4-16.4h0C1316.7,325.9,1309.3,327.9,1306,333.6z"/>
<path class="st1" d="M587.8,1165.9l-166,131.4c-5.2,4.1-6.1,11.7-2,16.9l0,0c4.1,5.2,11.7,6.1,16.9,2l166-131.4
	c5.2-4.1,6.1-11.7,2-16.9v0C600.5,1162.7,592.9,1161.8,587.8,1165.9z"/>
<path class="st1" d="M513.5,955L302,946.4c-6.6-0.3-12.2,4.9-12.5,11.5v0c-0.3,6.6,4.9,12.2,11.5,12.5l211.5,8.6
	c6.6,0.3,12.2-4.9,12.5-11.5l0,0C525.2,960.9,520.1,955.3,513.5,955z"/>
<path class="st1" d="M725.9,535.8L608.1,360c-3.7-5.5-11.2-7-16.6-3.3v0c-5.5,3.7-7,11.2-3.3,16.6l117.8,175.9
	c3.7,5.5,11.2,7,16.6,3.3l0,0C728.1,548.8,729.5,541.3,725.9,535.8z"/>
<path class="st1" d="M1579.7,608.1l-191.4,90.4c-6,2.8-8.5,10-5.7,16v0c2.8,6,10,8.5,16,5.7l191.4-90.4c6-2.8,8.5-10,5.7-16v0
	C1592.9,607.9,1585.7,605.3,1579.7,608.1z"/>
<path class="st1" d="M965.3,250.4l-8.6,211.5c-0.3,6.6,4.9,12.2,11.5,12.5l0,0c6.6,0.3,12.2-4.9,12.5-11.5l8.6-211.5
	c0.3-6.6-4.9-12.2-11.5-12.5h0C971.2,238.6,965.6,243.8,965.3,250.4z"/>
<path class="st1" d="M369.8,619.8l197.4,76.3c6.2,2.4,13.1-0.7,15.5-6.9l0,0c2.4-6.2-0.7-13.1-6.9-15.5l-197.4-76.3
	c-6.2-2.4-13.1,0.7-15.5,6.9h0C360.5,610.4,363.6,617.4,369.8,619.8z"/>
</svg>
