<?xml version="1.0" encoding="utf-8"?>
<!-- Generator: Adobe Illustrator 19.2.1, SVG Export Plug-In . SVG Version: 6.00 Build 0)  -->
<svg version="1.1" id="Layer_1" xmlns="http://www.w3.org/2000/svg" xmlns:xlink="http://www.w3.org/1999/xlink" x="0px" y="0px"
	 viewBox="0 0 80 80" style="enable-background:new 0 0 80 80;" xml:space="preserve">
<style type="text/css">
	.st0{fill:#FBF2B5;}
	.st1{fill:#FBFD52;}
	.st2{fill:#FCF732;}
	.st3{fill:#FDBC01;}
	.st4{fill:#FCFB79;}
	.st5{fill:#FDFDFC;}
</style>
<g>
	<g>
		<path class="st0" d="M0.9,41.8c1.1-0.4,2.2-0.8,3.3-1.2c1.4-0.5,2.8-1.1,4.2-1.6c1.2-0.4,2.4-0.8,3.6-1.4c0.6-0.3,1.2-0.5,1.9-0.6
			c0.6-0.1,0.6-0.4,0.1-0.8c-1.5-1.2-2.9-2.5-4.4-3.6c-1.1-0.8-2.1-1.7-3.2-2.5c-0.9-0.7-1.9-1.5-2.8-2.3c-0.2-0.2-0.5-0.4-0.4-0.7
			c0.1-0.2,0.4-0.3,0.7-0.3c0.8,0,1.6,0,2.4,0c0.2,0,0.4,0,0.4,0.3c-0.3,0-0.6,0-0.9,0.1c-0.3,0-0.6,0-0.9,0
			c-0.4-0.2-0.8-0.1-1.2-0.1c-0.2,0-0.3,0.2-0.1,0.3c0.6,0.5,1.1,1.1,1.8,1.5c0,0,0.1,0,0.1,0.1c0.7,0.8,1.5,1.4,2.4,1.9
			c0,0,0.1,0,0.1,0.1c0,0.3,0.3,0.4,0.4,0.5c1.1,0.8,2.1,1.7,3.2,2.5c0,0,0.1,0.1,0.1,0.1c0.1,0.1,0.2,0.1,0.2,0.2
			c0,0.2,0.1,0.3,0.3,0.4c0.7,0.5,1.4,1.1,2.1,1.6c0.5,0.4,0.5,0.7-0.1,0.9c-0.7,0.3-1.4,0.5-2.1,0.8c-0.5,0.2-1.2,0.2-1.6,0.7
			c-0.2,0-0.3,0.1-0.5,0.1c-0.8,0.2-1.5,0.7-2.3,0.8c-2.3,0.7-4.6,1.6-6.8,2.6C3.2,43,5,43.5,6.9,44c0.3,0.2,0.7,0.3,1.1,0.3l0,0
			c0,0.1,0,0.1,0,0.2c-0.6-0.1-1.3-0.2-1.9-0.3c-1.7-0.5-3.4-1-5.1-1.5C0.9,42.3,0.9,42.1,0.9,41.8z"/>
		<path class="st0" d="M39.1,1.7c0,0.7,0.4,1.3,0.6,1.8c0.6,1.5,1.1,3.1,1.7,4.6c0.6,1.4,0.9,3,1.6,4.4c0.4,0.8,0.4,1.6,0.8,2.3
			c0.2,0.4,0.4,0.5,0.7,0.1c0.9-1,1.8-2,2.6-3.1c1.2-1.6,2.5-3.1,3.7-4.7c0.2-0.2,0.3-0.3,0.6-0.3c0,0.2-0.1,0.3-0.2,0.4
			c-0.4,0.6-1,1.1-1.3,1.7c0,0,0,0,0,0c-0.2,0.1-0.3,0.2-0.3,0.5l0,0c-0.1,0-0.1,0.1-0.1,0.2c0,0-0.1,0-0.1,0.1
			C49.1,9.7,49,9.8,49,10c-0.2,0.2-0.3,0.4-0.5,0.7c-0.2,0-0.2,0.1-0.2,0.2c-0.1,0.1-0.1,0.2-0.2,0.3c-0.2,0-0.2,0.2-0.2,0.3
			c0,0.1-0.1,0.1-0.1,0.2c-0.9,0.8-1.5,1.8-2.2,2.7c-0.4,0.2-0.6,0.6-0.8,0.9c-0.5,0.5-0.7,0.5-1-0.2c-0.2-0.6-0.3-1.2-0.7-1.7
			c-0.1-0.3-0.1-0.5-0.2-0.8c-1.2-3.2-2.3-6.4-3.5-9.6c-0.1-0.4-0.2-0.8-0.6-1c-0.7,1.9-1.2,3.8-1.7,5.8c-0.3,1.1-0.5,2.2-1,3.2
			c-0.3-0.6,0-1.1,0.2-1.6c0.4-1,0.4-2.1,0.8-3c0.5-1.2,0.8-2.4,1-3.6c0.1-0.4,0.5-0.6,0.5-1.1C38.6,1.7,38.9,1.7,39.1,1.7z"/>
		<path class="st0" d="M42.6,76.5c0,1.2-0.6,2.3-0.8,3.5c-0.3,0-0.6,0-0.9,0c-0.6-1.7-1.1-3.4-1.9-5c-0.3-0.6-0.4-1.2-0.6-1.8
			c-0.5-1.5-1.1-2.9-1.6-4.4c-0.2-0.7-0.5-1.3-0.7-2c-0.1-0.3-0.3-0.4-0.6-0.1c-0.8,0.9-1.5,1.7-2.2,2.7c-0.1,0.2-0.3,0.3-0.5,0.2
			c0-0.4,0.4-0.5,0.4-0.8c0,0,0.1-0.1,0.1-0.1c0,0,0-0.1,0.1-0.1c0.2,0,0.3-0.1,0.3-0.3c0,0,0-0.1,0-0.1c0.2,0,0.2-0.1,0.3-0.3
			c0.4-0.5,0.7-1,1.1-1.4c0.7-0.8,0.8-0.8,1.1,0.2c0.1,0.4,0.1,0.8,0.5,1l0,0c0,0.5,0.1,0.9,0.5,1.2c0.1,0.2,0.1,0.3,0.2,0.5
			c0,0,0,0.1,0.1,0.1c0,0.1,0,0.2,0.1,0.3c0,0,0,0.1,0,0.1c0.1,0.2,0.2,0.4,0.2,0.6c0,0.1,0,0.3,0.1,0.4c0.1,0.3,0.1,0.6,0.4,0.7
			l0,0c0.1,1,0.6,2,1,2.9c0.3,0.7,0.4,1.5,0.9,2.1c0,0,0,0.1,0,0.1c0.1,0.7,0.4,1.3,0.7,2c0.1,0.2,0.2,0.7,0.4,0.6
			c0.3,0,0.3-0.4,0.4-0.7C42.1,78.1,42.2,77.2,42.6,76.5C42.6,76.5,42.6,76.5,42.6,76.5z"/>
		<path class="st0" d="M79.2,39.8c-0.5,0-0.8,0.4-1.3,0.4c-0.1,0-0.2,0.1-0.3,0c0.2-0.2,0.5-0.3,0.8-0.4c0.2-0.1,0.5-0.1,0.4-0.4
			c0-0.2-0.3-0.3-0.5-0.3c-0.3-0.1-0.7-0.1-1-0.4c0.7-0.1,1.3,0.3,1.9,0.5C79.2,39.4,79.2,39.6,79.2,39.8z"/>
		<path class="st1" d="M77.3,38.7c0.3,0.3,0.6,0.3,1,0.4c0.2,0.1,0.5,0.1,0.5,0.3c0,0.3-0.3,0.3-0.4,0.4c-0.3,0.1-0.6,0.2-0.8,0.4
			c-0.1,0-0.2,0-0.2,0c-1,0.2-1.9,0.7-2.8,1c-0.3,0.1-0.7,0.1-0.9,0.4c-0.2,0.1-0.5,0.1-0.7,0.2c-0.2,0-0.3,0-0.3,0.2
			c-0.1,0-0.2,0-0.3,0.1c-0.7,0.1-1.4,0.4-2,0.7c-0.3,0.1-0.8,0.1-1,0.5c-0.1,0-0.2,0-0.3,0.1c-1.3,0.3-2.5,0.8-3.7,1.3
			c-0.4,0.2-0.2,0.4,0,0.6c0.7,0.5,1.3,1,2,1.6c0.6,0.5,1.3,0.8,1.7,1.4c-0.1,0-0.2,0-0.3,0l0,0c0,0-0.1-0.1-0.1-0.1
			c-0.7-0.5-1.5-0.9-2.2-1.5c-0.7-0.6-1.3-0.5-1.6,0.3c-0.2,0.5-0.2,1-0.4,1.4c-0.4,1-0.7,2-1.2,3c-0.3,0.5-0.4,0.9-1.1,0.7
			c-0.1,0-0.3,0-0.3,0.1c0,0.1,0,0.3,0.1,0.3c0.8,0.1,1.3,0.9,2.1,0.9c0.2,0,0.5,0.1,0.6,0.3c0,0,0,0.1,0,0.1c-0.8,0-1.5,0-2.3,0
			c-0.3,0-0.6-0.1-0.7,0.2c-0.2,0.3,0.1,0.5,0.2,0.8c0.6,1.1,1.5,2,1.8,3.3c-0.1,0-0.2,0-0.3,0c-0.4-0.9-1.1-1.6-1.5-2.4
			c-0.2-0.3-0.4-0.4-0.6,0c-0.1,0.2-0.3,0.3-0.5,0.3c-0.3,0.1-0.5,0.1-0.7,0.3c-0.6,0.7-1.2,1.4-1.9,2c-0.6,0.5-1,1.3-1.8,1.4
			c-0.3,0-0.7,0.2-0.1,0.6c0.1,0,0.2,0.1,0.1,0.2c-0.6,0.8,0.2,0.6,0.5,0.9c0.3,0.2,0.8,0.2,0.9,0.7c-0.1,0-0.2,0-0.4,0l0,0
			c0-0.3-0.3-0.2-0.5-0.2l0,0c0-0.2-0.1-0.3-0.3-0.2c-0.1,0-0.2,0-0.4,0c-0.1-0.1-0.1-0.1-0.2-0.1l0,0c-0.1-0.5-0.6-0.5-0.9-0.5
			c-0.4,0-0.5,0.4-0.5,0.7c0,0.2,0,0.5,0,0.7c-0.4-0.2-0.4-0.6-0.3-1c0.1-0.2,0-0.3-0.2-0.4c-0.2,0-0.2,0.1-0.3,0.3
			c0,0.3-0.1,0.7-0.1,1c0,0.1,0,0.3-0.2,0.3c-0.2,0-0.2-0.2-0.2-0.2c-0.1-0.2-0.3-0.1-0.5,0c-0.7,0.4-1.3,1.1-2.2,0.8
			c-0.2,0-0.4,0.1-0.5,0.3c-0.1,0.2-0.4,0.3-0.6,0.4c-0.5,0.1-1.1,0.3-1.6,0.4c-0.7,0.1-1.2,0.8-1.1,1.4c-0.1,0-0.2,0-0.2-0.1
			c-0.6-0.5-0.8-0.4-1,0.4c-0.1,0.5-0.3,1.1-0.5,1.6c-0.3,0-0.1,0.4-0.4,0.4c-0.2-0.4-0.1-0.7,0.1-1.1c0.1-0.3,0.4-0.6,0.4-0.9
			c-0.1-0.6,0.4-0.9,0.8-1.1c0.2-0.1,0.5,0,0.4-0.3c-0.1-0.3-0.3-0.1-0.5,0c-0.9,0.3-1.8,0.3-2.6,0.7c-0.2,0.1-0.5,0-0.7,0
			c-1.1-0.2-2.1-0.2-3.2,0c-0.3,0-0.7,0.1-0.9-0.1c-0.5-0.5-1,0-1.5-0.1c-0.1,0-0.2,0.2-0.1,0.3c0.3,0.5,0.3,1.2,0.6,1.8
			c0.1,0.2,0.1,0.3-0.1,0.4c-0.1,0-0.2,0-0.2,0c0,0,0,0,0,0c0-0.5-0.2-1-0.3-1.5c-0.2-0.8-0.7-0.9-1.3-0.4c-0.3,0.3-0.4,0.8-0.9,0.9
			c0.1-0.9,0.7-1.6,1.5-2c-0.3-0.2-0.5,0-0.7,0.1c-0.3,0.1-0.5,0.3-0.8,0.1c-1-0.7-2.2-0.7-3.4-0.9c-0.7-0.2-1.2-0.5-1.8-0.9
			c-0.4-0.3-0.7-1-1.5-0.6c-0.4,0.2-0.4,0.3-0.5,0.6c0,0.4,0.1,0.8-0.1,1.3C27,64,27.2,63.5,27,63c-0.1-0.8-0.3-0.9-1-0.5
			c-0.4,0.2-0.7,0.4-1.1,0.6c-0.1,0-0.3,0-0.3,0.1l0,0c-0.4-0.1-0.7,0.4-1.1,0.2c0.4-0.3,0.9-0.6,1.3-0.7c0.5-0.2,0.9-0.5,1.2-0.9
			c0.2-0.2,0.3-0.6,0.2-0.9c-0.2-0.3-0.4-0.2-0.7-0.1c-0.2,0.1-0.4,0-0.6-0.2c-0.5-0.6-1-1.1-1.6-1.6c-0.9-0.6-1.6-1.4-2.3-2.2
			c-0.4-0.5-1.2-0.4-1.5,0.2c-0.1,0.2-0.1,0.7-0.6,0.6c0.1-0.5,0.4-1,0.6-1.5c0.2-0.5,0-0.7-0.5-0.7c-0.4,0-0.8,0-1.2,0
			c-0.3,0-0.6,0-0.9,0c0.4-0.4,0.9-0.2,1.3-0.3c0.2,0,0.5,0,0.6-0.3c0.1-0.3-0.2-0.4-0.4-0.5c-0.4-0.2-0.7-0.4,0.1-0.6
			c-0.3-0.2-0.5-0.4-0.6-0.6c-0.7-1.5-1.3-3-2-4.5c-0.1-0.3-0.2-0.6-0.2-1c0-0.1,0.2-0.3,0-0.4c-0.2-0.1-0.2,0.2-0.3,0.2
			c-0.5,0.3-0.7,1-1.5,0.7c0.3-0.5,0.9-0.8,1.3-1.2c0.3-0.3,0.3-0.6-0.1-0.7c-0.9-0.2-1.7-0.5-2.6-0.6c-0.2,0-0.4-0.1-0.6-0.1
			c-0.2-0.3-0.7-0.1-0.9-0.4c0-0.1,0-0.1,0-0.2c0.8,0.4,1.8,0.1,2.6,0.6c0.2,0.1,0.4,0.2,0.6,0c0.1-0.3-0.2-0.4-0.3-0.5
			c-0.9-0.8-1.8-1.6-2.2-2.8c-0.3-0.9,0.2-2.3,0.9-2.9c0.5-0.5,1.3-0.5,1.7-1.1c0.1-0.1,0.3-0.2,0.2-0.4c-0.1-0.2-0.3-0.1-0.4,0
			c-1,0.7-2.2,0.5-3.2,1.1c0-0.1,0-0.1,0-0.2c0.4-0.5,1.1-0.5,1.6-0.7c0.7-0.3,1.4-0.5,2.1-0.8c0.6-0.2,0.6-0.6,0.1-0.9
			c-0.7-0.5-1.4-1.1-2.1-1.6c-0.1-0.1-0.2-0.2-0.3-0.4c0.1,0,0.3,0,0.4,0c0.3,0.3,0.7,0.3,1,0.7c0.2,0.2,0.5,0.3,0.7,0
			c0.2-0.3,0-0.5-0.3-0.6c-0.1,0-0.2-0.1-0.3-0.2c-0.6-0.9-0.8-2-0.5-3.1c0.1-0.3,0.1-0.6,0.4-0.8c0.8-0.8,1.7-1.5,2.9-1.5
			c0.1,0,0.3,0,0.3-0.1c0.1-0.1,0.4-0.1,0.4-0.3c0-0.3-0.3-0.2-0.5-0.2c-0.4-0.1-0.8,0.1-1.2-0.2c0.8-0.2,1.6,0.1,2.3-0.1
			c0.7-0.1,0.8-0.3,0.4-1c-0.2-0.4-0.4-0.7-0.6-1.1c0,0-0.1-0.1-0.1-0.1c0,0,0-0.1,0-0.1c0.2-0.2,0.3-0.1,0.4,0.1
			c0.2,0.4,0.5,0.8,0.7,1.2c0.1,0.2,0.2,0.4,0.4,0.3c0.2-0.1,0.1-0.4,0.1-0.5c0-0.1-0.1-0.2-0.1-0.3c-0.6-0.9-0.7-1.9-0.7-2.9
			c0-1.2,1.2-2.8,2.3-2.8c1.1-0.1,2.2-0.1,3.1,0.6c0.2,0.1,0.4,0.2,0.6,0c0.2-0.2,0-0.4-0.2-0.5c-0.1-0.1-0.3-0.1-0.3-0.3
			c0.3,0,0.5,0.1,0.8,0.2c0.5,0.2,0.8,0,0.9-0.6c0-0.5-0.1-0.9-0.1-1.4c0.1,0,0.1,0,0.2,0.1c0.1,0.2,0.2,0.4,0.4,0.4
			c0.3-0.1,0.1-0.4,0.1-0.6c0-0.6,0.3-1.2,0.4-1.8c0.1-0.7,0.7-1.1,1.3-1.6c0.9-0.8,2.3-0.6,3.1-0.2c0.2,0.1,0.4,0.4,0.6,0.2
			c0.3-0.3,0-0.5-0.2-0.7c-0.3-0.2-0.1-0.4,0.1-0.5c0.1,0,0.2,0,0.3,0l0,0c0.6,0.9,1.3,1.7,2.1,2.4c0.4,0.3,0.6,0,0.7-0.3
			c0.3-1,0.5-2,0.7-3c0-0.2,0.1-0.4,0.1-0.6c0.2-0.2,0.3-0.5,0.2-0.8c0-0.2,0.1-0.3,0.1-0.5c0.5-1,0.7-2.2,1-3.2
			c0.6-1.9,1.1-3.8,1.7-5.8c0.4,0.3,0.5,0.7,0.6,1c1.2,3.2,2.4,6.4,3.5,9.6c0.1,0.3,0.1,0.5,0.2,0.8c-0.1,0.3,0,0.5,0.1,0.7
			c0.1,0.2,0.3,0.4,0.1,0.7c-0.3-0.1-0.3-0.4-0.4-0.6c-0.3-1-0.5-2-0.9-3c-0.1-0.4-0.2-0.9-0.4-1.3c-0.8-2.2-1.6-4.4-2.4-6.6
			C39,3.1,39,2.8,38.7,2.8c-0.3,0-0.3,0.3-0.4,0.5c-0.8,2.6-1.6,5.3-2.2,8c-0.1,0.8-0.5,1.5-0.6,2.3c0,0.4,0,0.8-0.3,1.1
			c-0.1,0.1-0.1,0.4,0.1,0.4c0.3,0.1,0.4-0.1,0.4-0.3c0.1-0.5,0.4-0.9,0.7-1.2c1.3-1.9,4.3-2,5.6,0.6c0.2,0.4,0.5,0.8,1,0.8
			c0.4,0.1,0.3,0.4,0.4,0.7c0.3,0.5,0.7,0.6,1,0.1c0.3-0.4,0.7-0.7,0.9-1.2c0.4,0.4,0.8,0.3,1.2,0c1-0.7,2-1,3.3-0.7
			c0.9,0.3,2.2,1.8,2.2,2.7c0,0.3-0.1,0.8,0.3,0.8c0.3,0,0.2-0.5,0.2-0.8c0-0.1,0-0.3,0.2-0.3c0.2,0,0.1,0.2,0.2,0.3
			c0.1,0.3-0.2,0.7,0.2,0.9c0,0.4,0,0.7,0,1.1c0,0.6,0.1,0.7,0.7,0.4c0.7-0.3,1.3-0.8,2-1c0.2,0.1,0.6,0.2,0,0.4
			c-0.1,0-0.3,0.1-0.3,0.3c0,0.2,0.2,0.2,0.4,0.1c0.6-0.2,1.1,0.2,1.7,0.1c0.8,0,1.3,0.4,1.8,0.9c1,1.1,1,2.4,0.7,3.8
			c-0.1,0.2-0.1,0.5-0.2,0.7c0,0.1,0,0.3,0.2,0.3c0.2,0,0.2-0.1,0.3-0.2c0.1-0.2,0.1-0.4,0.2-0.6c0.1-0.1,0.1-0.3,0.3-0.3
			c0.2,0,0.1,0.3,0.2,0.4l0,0c0,0.1-0.1,0.1-0.1,0.2c-0.1,0.3-0.3,0.7-0.4,1c-0.2,0.5-0.1,0.6,0.4,0.6c1.2,0,2.3-0.2,3.4-0.3
			c1.1-0.1,2.2-0.4,3.3-0.3c-0.1,0.2-0.4,0.1-0.5,0.1c-0.3,0.1-0.6,0-0.8,0.4c-0.2,0-0.4,0-0.6,0c-0.1-0.1-0.1-0.1-0.2,0
			c-1,0.1-2,0.3-3,0.3c-0.4,0-0.7,0.1-1,0.4c-0.1,0.1-0.3,0.2-0.3,0.4c0.1,0.2,0.3,0.1,0.5,0.1c1.1,0,2.2,0,3.2,0.8
			c0.6,0.5,1.1,1.5,1,2.3c-0.1,0.5-0.3,1-0.3,1.5c0,0.5,0,0.8-0.5,0.8c-0.2,0-0.3,0.2-0.2,0.3c0.1,0.2,0.2,0.3,0.4,0.2
			c0.1,0,0.2-0.2,0.4-0.1c0,0.3-0.4,0.4-0.3,0.6c-0.3,0.3-0.6,0.5-0.8,0.8c-0.2,0.2-0.3,0.4,0.1,0.6c0.8,0.3,1.7,0.6,2.5,0.7
			c0.2,0.1,0.5,0.1,0.7,0.2c0.2,0.2,0.5,0.3,0.8,0.2c0.2,0,0.4,0.1,0.6,0.1c0,0.1,0,0.1,0,0.2c-0.1,0.1-0.1,0.1-0.2,0.2
			c-0.1,0-0.1,0-0.2,0c0,0-0.1-0.1-0.1-0.1c-0.5-0.3-1.1-0.1-1.7-0.2c-0.3-0.1-0.5,0.5-0.9,0.6c-0.1,0,0,0.3,0.1,0.3
			c0.6,0,0.5,0.4,0.4,0.8c0,0.2,0,0.4,0.1,0.5c0.1,0.5,0.1,1.1,0.1,1.6c0,0.8-0.3,1.6,0,2.5c0.1,0.3,0.2,0.4,0.5,0.4
			c0.5,0.1,1-0.3,1.5-0.3c0.6-0.1,1.1-0.4,1.7-0.6c2.3-0.8,4.6-1.7,6.8-2.5c0.2-0.1,0.5,0,0.5-0.4c0-0.3-0.3-0.3-0.5-0.4
			c-2.3-0.6-4.5-1.2-6.7-2C70.4,37,70,37,69.7,36.7c0.1,0,0.2-0.1,0.4-0.1c0.1,0,0.1,0,0.2,0c0.3,0.3,0.7,0.4,1.1,0.4
			c0.1,0,0.1,0,0.2,0c0.1,0.1,0.2,0.1,0.3,0.1c0.1,0,0.1,0,0.2,0c0.1,0.1,0.2,0.1,0.3,0.1c0.2,0,0.4,0.1,0.6,0.1
			c0.5,0.3,1.1,0.5,1.6,0.5c0.2,0,0.3,0,0.5,0.1c0.2,0.3,0.5,0.3,0.8,0.3c0.1,0,0.2,0,0.2,0c0.3,0.2,0.6,0.4,1,0.3
			C77.1,38.7,77.2,38.7,77.3,38.7z M52.5,55.6c0.7-0.3,1.1-0.9,1.6-1.4c0.3-0.3,0.7-0.5,0.8-1c0-0.1,0-0.2,0.1-0.3
			c0.2,0,0.3-0.1,0.4-0.2c0.5-0.8,1-1.5,1.5-2.3c0.2-0.3,0.4-0.5,0.4-0.8c0,0,0-0.1,0-0.1c0.5-0.4,0.6-1,0.7-1.6c0,0,0-0.1,0-0.1
			c0.1,0,0.2-0.1,0.2-0.2c1.1-3.2,1.5-6.4,0.9-9.8c-0.1-0.8-0.2-1.6-0.6-2.3c-0.1-0.3-0.2-0.5-0.3-0.8c0-0.2,0-0.3-0.2-0.4
			c0-0.1,0-0.2,0-0.3c0-0.8-0.4-1.4-0.9-2c-0.5-0.7-0.9-1.5-1.4-2.2c-2-3.1-4.8-5.2-8.2-6.7c-2.7-1.2-5.6-1.7-8.7-1.4
			c-1.9,0.2-3.6,0.5-5.4,1.1c-2.1,0.7-4,1.9-5.7,3.3c-1.7,1.3-2.9,3-4.1,4.7c-0.1,0.1-0.2,0.2-0.2,0.3c0,0,0,0.1,0,0.1
			c-0.1,0-0.2,0.1-0.2,0.2c0,0.1,0,0.2,0,0.3C23,31.8,23,31.9,23,32c-0.1,0.3-0.2,0.5-0.3,0.7c-0.2,0.5-0.6,1-0.6,1.7
			c-0.3,0.1-0.3,0.3-0.3,0.5c-0.1,0.3-0.1,0.7-0.2,1c-0.1,0-0.2,0.1-0.2,0.2c0,0.3,0,0.6-0.1,0.9c-0.1,0-0.3,0.1-0.1,0.2
			c0,0.1,0,0.2,0,0.3c-0.3,0.1-0.2,0.3-0.2,0.5c0,0.2,0,0.4,0,0.6c-0.3,0.3-0.4,0.8-0.1,1c0,0.3,0,0.5,0,0.8
			c-0.3,0.1-0.2,0.3-0.2,0.6c-0.1,1.1,0.2,2.2,0.3,3.3c0.1,0.9,0.3,1.7,0.8,2.4c0,0.1,0,0.2,0,0.3c0,0.3,0,0.6,0.4,0.7
			c0,0.1,0,0.2,0,0.3c0,0.3,0,0.5,0.3,0.6c0,0.1,0,0.2,0,0.3c0,0.3,0,0.5,0.4,0.5c0,0.1,0,0.2,0,0.4c0.2,0.5,0.4,1,0.8,1.3
			c0,0,0,0.1,0,0.1c0,0.1,0.1,0.2,0.2,0.2c0,0,0,0.1,0,0.1c0,0.1,0,0.3,0.1,0.4c1,1.5,2.2,2.7,3.5,3.9c0.2,0.2,0.4,0.5,0.8,0.5
			c0,0,0.1,0,0.1,0c0.2,0.4,0.5,0.7,1,0.7l0,0c1.1,1,2.4,1.6,3.9,2c0.1,0,0.2,0,0.3,0c0,0.3,0.2,0.3,0.4,0.4c0.7,0.2,1.3,0.3,2,0.5
			c1,0.2,2.1,0.4,3.1,0.4c1.2,0,2.4,0.1,3.5-0.1c0.4-0.1,0.9,0.1,1.2-0.3c0.1,0,0.3,0,0.4,0c0.4,0,0.9,0.1,1.2-0.4
			c0.1,0,0.2,0,0.3,0c0.5,0,0.9-0.2,1.3-0.4c0.7-0.3,1.6-0.5,2.2-1.2c0.1,0,0.2,0,0.3,0c0.5,0.1,0.6-0.4,0.9-0.5
			C51.2,56.8,52,56.3,52.5,55.6L52.5,55.6z M26.7,18.3c0,0.4,0,0.7,0,1.1c0,0.4-0.1,0.7-0.1,1c-0.1,1-0.6,1.4-1.6,1.2
			c-1-0.2-1.8-0.7-2.8-0.8c-0.6-0.1-1.2-0.2-1.9,0.3c-0.5,0.4-0.7,0.8-1,1.3c-0.4,0.6-0.4,1.2-0.3,1.9c0.1,0.6,0.5,1.1,0.5,1.8
			c0,0.2,0.1,0.3,0.2,0.5c0.4,0.5,0.5,1.1,0.3,1.6c-0.3,0.8-0.7,1.1-1.7,1.1c-1.6,0-1.9,0.9-1.7,2.2c0.1,0.6,0.2,1.1,0.2,1.7
			c-0.1,0.9,0.4,1.7,0.2,2.6c0,0.1,0.1,0.3,0.1,0.4c0.2,0.6,0.4,1.1,0.6,1.7c0.2,0.8,0.3,1.7,0.8,2.5c0.2,0.3,0.3,0.6,0.4,1
			c0.1,0.5,0.6,0.6,1,0.8c0.1,0.1,0.2-0.1,0.2-0.2c-0.1-0.7,0.2-1.4,0.2-2.2c0.1-1.9,0.4-3.6,1.1-5.4c0.7-1.5,1.3-3,2.3-4.4
			c1.3-1.9,2.9-3.6,4.8-5c1-0.7,2.1-1.3,3.2-1.9c0.7-0.3,1.4-0.7,2.1-0.9c1.2-0.3,2.4-0.6,3.6-0.8c1.8-0.3,3.7-0.3,5.5,0
			c0.7,0.1,1.4,0.4,2.1,0.4c0.8,0,1.6,0.3,2.3,0.6c1.5,0.6,2.9,1.4,4.2,2.3c1.4,1.1,2.8,2.2,3.9,3.7c1.1,1.4,2,2.8,2.7,4.4
			c0.7,1.5,1.1,3.1,1.5,4.7c0.1,0.3,0.2,0.5,0.5,0.3c0.8-0.7,1.9-1.1,2.4-2.1c0.3-0.5,0.5-1.1,0.9-1.6c0.2-0.2,0.6-0.5,0.6-0.9
			c0.1-0.4,0.4-0.8,0.8-1c0.9-0.6,0.8-1.7,0.7-2.4c-0.3-1.5-1.3-2.4-3-2.4c-0.7,0-1.3,0-2,0c-0.6,0-1.6-0.7-1.5-1.1
			c0.2-0.5,0.1-1,0.3-1.5c0.4-0.8,0.8-1.7,0.7-2.6c0-0.6-0.7-2-1.3-2.2c-0.2-0.1-0.5,0-0.7-0.1c-0.7-0.5-1.4-0.4-2,0
			c-0.8,0.4-1.6,0.6-2.4,0.9c-1.1,0.4-1.9-0.5-2-1.4c0-0.7-0.2-1.4-0.1-2.1c0.1-1.4-1.1-2.4-2.1-2.8c-1-0.3-2.3,0.2-3.1,1.3
			c-0.3,0.4-0.7,0.8-1.1,1.2c-1,0.8-1.9,0.7-2.6-0.4c-0.3-0.4-0.5-0.9-0.7-1.4c-0.4-0.9-0.8-1.8-1.9-2.2c-1-0.3-2.8,0.1-3.3,1
			c-0.4,0.8-0.8,1.6-1,2.5c-0.4,1.4-1.2,1.6-2.5,1.1c-0.8-0.3-1.3-0.9-1.8-1.6c-0.8-1.2-2.8-1.4-3.8-0.4
			C26.9,16.2,26.5,17.1,26.7,18.3z M26.2,20c0-0.1-0.1-0.3-0.2-0.3c-0.1,0-0.2,0.1-0.2,0.2c0,0.1,0,0.3,0.1,0.3
			C26.1,20.3,26.2,20.1,26.2,20z"/>
		<path class="st2" d="M19,57.6c0.5,0.1,0.5-0.4,0.6-0.6c0.3-0.6,1.1-0.7,1.5-0.2c0.7,0.8,1.4,1.6,2.3,2.2c0.6,0.4,1.1,1,1.6,1.6
			c0.2,0.2,0.3,0.3,0.6,0.2c0.3-0.1,0.5-0.2,0.7,0.1c0.2,0.3,0,0.7-0.2,0.9c-0.4,0.4-0.7,0.7-1.2,0.9c-0.5,0.1-0.9,0.4-1.3,0.7
			c0.4,0.1,0.7-0.3,1.1-0.2c-0.1,0.1-0.2,0.3-0.4,0.3c-1.1,0.5-2.1,1.1-3.2,1.7c-0.5,0.3-1,0.4-1.4,0.9c0,0-0.1,0-0.1,0
			c-0.2,0-0.4,0.1-0.6,0.1c0-0.3,0.2-0.4,0.4-0.5c0.3-0.2,0.6-0.3,0.8-0.6c-0.1-0.1-0.2-0.1-0.3,0c-1.2,0.7-2.6,1.1-3.8,1.8
			c-0.1,0.1-0.3,0.1-0.4,0.1c-0.1,0-0.1-0.2-0.1-0.3c0.2-0.8,0.5-1.6,0.8-2.4c0.2-0.5,0.5-1.1,0.5-1.7c-0.2,0.2-0.3,0.5-0.4,0.7
			c-0.4,0.9-0.9,1.8-1.3,2.7c-0.3,0.7-0.6,1.3-0.9,2c-0.1,0.1-0.1,0.3,0,0.4c0.1,0.1,0.2,0,0.3,0c1.2-0.7,2.4-1.3,3.6-2
			c0.2-0.1,0.5-0.3,0.8-0.2c-0.1,0.1-0.1,0.2-0.2,0.3c0,0-0.1,0-0.1,0c-1,0.3-1.8,0.9-2.6,1.4c-0.5,0.3-1.1,0.4-1.4,0.9
			c0,0-0.1,0-0.1,0c-0.1,0-0.2,0-0.3,0.1c-0.2,0-0.4,0.2-0.6,0.1c-0.2-0.2,0-0.4,0.1-0.6c1.1-2.4,2.2-4.8,3.3-7.2
			c0.4-0.9,0.9-1.8,1.2-2.8c0,0,0-0.1,0-0.1c0.3,0,0.2-0.5,0.5-0.5c0,0.1,0,0.2,0.1,0.3c0,0,0.1,0,0.1-0.1C19.1,58,19,58,18.8,58
			C18.8,57.8,18.8,57.7,19,57.6z"/>
		<path class="st2" d="M27,63c0.2,0.5,0,1,0.2,1.7c0.2-0.5,0.1-0.9,0.1-1.3c0-0.3,0.1-0.4,0.5-0.6c0.8-0.4,1.1,0.3,1.5,0.6
			c0.6,0.4,1.1,0.7,1.8,0.9c1.1,0.3,2.4,0.3,3.4,0.9c0.3,0.2,0.5,0,0.8-0.1c0.2-0.1,0.4-0.4,0.7-0.1c-0.8,0.5-1.3,1.1-1.5,2
			c-0.2,0.4-0.7,0.7-0.6,1.3c0,0,0,0.1,0,0.1c-0.2,0-0.4,0-0.3,0.3c0,0,0,0.1-0.1,0.1c0,0-0.1,0.1-0.1,0.1c-0.1,0.3-0.5,0.5-0.4,0.8
			c-0.1,0.1-0.1,0.1-0.2,0.2c0,0-0.1,0-0.1,0c0,0-0.1,0.1-0.1,0.1c-0.6,0.6-0.9,1.3-1.5,1.9c0-0.2,0-0.3,0-0.5c0,0,0,0,0.1-0.1
			c0,0,0,0-0.1,0.1c-0.3,0-0.4,0.2-0.6,0.4c-0.8,0.9-1.6,1.7-2.4,2.6c-0.1,0.1-0.2,0.3-0.5,0.2c-0.2-0.1-0.1-0.3-0.1-0.4
			c-0.2-1.3-0.1-2.7-0.1-4c0-0.2,0.1-0.4-0.2-0.6c-0.1,2-0.3,3.9-0.3,5.8c0,0.4-0.2,1,0.1,1.1c0.3,0.1,0.6-0.5,0.9-0.8
			c0.9-1.2,1.8-2.3,2.7-3.5c0.1-0.2,0.3-0.2,0.5-0.2c0,0.2-0.2,0.3-0.3,0.5c-0.2,0.4-0.6,0.6-0.7,1l0,0c-0.6,0.6-1.2,1.2-1.5,2l0,0
			c-0.3,0.1-0.4,0.2-0.5,0.5l0,0c-0.3,0.2-0.5,0.4-0.5,0.7c0,0,0,0,0,0c-0.5,0.1-0.5,0.7-1.1,0.7c0-0.5,0-1,0-1.5
			c0.3-0.7,0.1-1.4,0.1-2.1c0-0.3,0-0.7,0-1c0,0,0.1-0.1,0.1-0.1c0-1.6,0.3-3.2,0.1-4.8c0-0.7,0-1.3,0-2c0.3-0.3,0.1-0.7,0.1-1
			c0-0.2,0-0.5,0-0.7C27.1,63.7,26.9,63.3,27,63z M27,68.8c0.1-0.2,0.1-0.4,0-0.6C27,68.4,26.9,68.6,27,68.8z"/>
		<path class="st3" d="M17.1,55.5c0.3,0,0.6,0,0.9,0c-0.8,0.1-1.5,0.3-2.3,0.4c-0.8,0-1.5,0.1-2.3,0.4c-0.1,0-0.2,0-0.4,0
			c-0.2,0-0.5,0-0.7,0c-1.8,0.2-3.7,0.5-5.5,0.7c-0.6,0.1-1.3,0.1-1.9,0c0.2-0.4,0.6-0.6,0.7-0.9c0,0,0.1-0.1,0.1-0.1
			c0.4-0.1,0.6-0.4,0.8-0.7l0,0c0.5-0.2,0.8-0.7,1.2-1c1.1-1,2.3-1.9,3.3-3.1l0,0c0.3,0,0.4-0.2,0.5-0.3c0.6-0.6,1.2-1.1,1.8-1.5
			c0,0,0,0.1,0,0.1c-1.9,2-3.8,4.1-5.7,6.1c-0.1,0.1-0.4,0.2-0.2,0.4c0.1,0.2,0.3,0.1,0.5,0.1c2.6,0.1,5.2-0.2,7.8-0.2
			c0.1,0,0.3-0.1,0.4-0.1c0.3,0,0.5,0,0.8,0C16.9,55.5,17,55.5,17.1,55.5z"/>
		<path class="st0" d="M18.3,58.6c-0.3,1-0.8,1.9-1.2,2.8c-1.1,2.4-2.2,4.8-3.3,7.2c-0.1,0.2-0.3,0.4-0.1,0.6
			c0.2,0.1,0.4-0.1,0.6-0.1c0.1,0,0.2,0,0.3-0.1c-0.1,0.5-0.6,0.5-1,0.6c-0.3,0-0.5-0.3-0.3-0.7c0.6-1.1,1-2.2,1.5-3.3
			c0.5-1,1-2.1,1.4-3.1c0.4-0.9,0.8-1.8,1.3-2.7c0.1-0.3,0.3-0.6,0.4-0.9C18,58.6,18.1,58.6,18.3,58.6z"/>
		<path class="st0" d="M27,63c-0.1,0.3,0.1,0.7-0.2,1c-0.2-0.3-0.2-0.6-0.2-0.9c-0.1-0.3-0.4-0.4-0.5-0.2c-0.3,0.5-0.8,0.5-1.1,0.7
			c-1.6,0.8-3.2,1.8-4.9,2.6c-0.2,0.1-0.3,0.1-0.5,0.1c0.3-0.5,0.9-0.6,1.4-0.9c1-0.6,2.1-1.3,3.2-1.7c0.1-0.1,0.2-0.2,0.4-0.3l0,0
			c0.1,0,0.3,0,0.3-0.1c0.4-0.2,0.7-0.4,1.1-0.6C26.7,62.1,26.9,62.2,27,63z"/>
		<path class="st0" d="M5.6,56c-0.1,0.4-0.5,0.5-0.7,0.9c0.7,0.1,1.3,0.1,1.9,0c1.8-0.2,3.7-0.5,5.5-0.7c0.2,0,0.5,0,0.7,0
			c0,0.2-0.2,0.2-0.4,0.2c-1.1,0.2-2.2,0.2-3.2,0.4c-1.4,0.3-2.7,0.1-4.1,0.4c-0.3,0.1-0.6,0-0.8-0.3c-0.1-0.2,0.2-0.4,0.3-0.6
			C5,56.2,5.2,55.9,5.6,56z"/>
		<path class="st0" d="M13.3,56.2c0.7-0.2,1.5-0.3,2.3-0.4c0.8,0,1.5-0.2,2.3-0.4c0.4,0,0.8,0,1.2,0c0.5,0,0.7,0.2,0.5,0.7
			c-0.2,0.5-0.6,0.9-0.6,1.5c-0.1,0.1-0.1,0.2-0.1,0.3l0,0c-0.3,0-0.2,0.5-0.5,0.5c0-0.8,0.6-1.3,0.8-2c0.2-0.5,0-0.7-0.5-0.6
			c-1.4,0.1-2.9,0.3-4.3,0.4C14,56.3,13.7,56.5,13.3,56.2z"/>
		<path class="st0" d="M11,51c-0.9,1.2-2.2,2.1-3.3,3.1c-0.4,0.4-0.7,0.8-1.2,1c0.1-0.4,0.4-0.7,0.6-0.9c1.1-1,2.2-2,3.3-3
			C10.6,51,10.7,50.9,11,51z"/>
		<path class="st0" d="M31,71.7c0.6-0.5,1-1.3,1.5-1.9c0,0,0.1-0.1,0.1-0.1c0,0,0.1,0,0.1,0c0.2,0.3,0.1,0.4-0.1,0.7
			c-0.4,0.4-0.8,0.9-1.1,1.5c-0.4,0.6-0.9,1-1.5,1.4c0.1-0.4,0.5-0.7,0.7-1C30.8,72.1,31,72,31,71.7L31,71.7z"/>
		<path class="st0" d="M12.7,45.7c0.9,0.1,1.7,0.4,2.6,0.6c0.4,0.1,0.4,0.4,0.1,0.7c-0.4,0.4-0.9,0.7-1.3,1.2c-0.1,0-0.2,0-0.2,0
			c0,0,0,0,0-0.1c0.2-0.4,0.6-0.7,0.9-1c0.4-0.5,0.3-0.6-0.2-0.9C13.9,46.2,13.2,46.2,12.7,45.7z"/>
		<path class="st0" d="M14.7,69c0.3-0.5,0.9-0.6,1.4-0.9c0.9-0.5,1.7-1.1,2.6-1.4c-0.1,0.4-0.5,0.5-0.8,0.6c-0.8,0.5-1.6,1-2.5,1.4
			C15.2,68.9,15,69,14.7,69z"/>
		<path class="st0" d="M26.7,67.7c0.1,1.6-0.1,3.2-0.1,4.8c0,0-0.1,0.1-0.1,0.1c-0.3-0.7-0.1-1.5-0.1-2.2c0.1-0.7,0.1-1.4,0.1-2.2
			C26.5,68,26.4,67.8,26.7,67.7z"/>
		<path class="st0" d="M13.3,49.1c-0.7,0.5-1.3,0.9-1.8,1.5C11.4,50.8,11.2,51,11,51c0.4-0.7,1-1.2,1.6-1.7c0.4-0.3,0.6-0.9,1.2-0.9
			c0,0,0,0,0,0.1c0,0.1-0.1,0.2-0.1,0.3c0,0,0,0.1-0.1,0.1c-0.2,0-0.2,0.1-0.2,0.2l0,0C13.4,49,13.4,49.1,13.3,49.1L13.3,49.1z"/>
		<path class="st0" d="M11.2,45.2c0.2,0.3,0.7,0.1,0.9,0.4c-0.1,0.2-0.3,0.1-0.5,0c-1-0.3-2.1-0.6-3.1-0.9c-0.2,0-0.3-0.1-0.4-0.3
			c0.1,0,0.1-0.1,0.2-0.1c0.2,0,0.3,0.1,0.5,0.1c0.1,0.1,0.2,0.1,0.3,0.1c0.2,0.2,0.5,0.2,0.8,0.3c0,0.1,0,0.1,0.1,0.1
			c0.1,0,0.2,0,0.3,0l0,0l0.1,0C10.7,45.1,10.9,45.2,11.2,45.2z"/>
		<path class="st0" d="M28.5,75.2c0.4-0.8,0.9-1.4,1.5-2C29.7,74.1,29.2,74.7,28.5,75.2z"/>
		<path class="st0" d="M26.4,73.6c0,0.7,0.2,1.4-0.1,2.1C26.2,75,26,74.3,26.4,73.6z"/>
		<path class="st0" d="M26.4,77.2c0.5,0,0.6-0.7,1.1-0.7c-0.1,0.5-0.5,0.8-0.9,1C26.3,77.6,26.3,77.4,26.4,77.2z"/>
		<path class="st0" d="M6.5,55.1c-0.1,0.4-0.4,0.6-0.8,0.7C5.8,55.4,6,55.1,6.5,55.1z"/>
		<path class="st0" d="M26.8,64.7c0,0.3,0.2,0.7-0.1,1C26.6,65.4,26.4,65,26.8,64.7z"/>
		<path class="st0" d="M19,66.4c0.2,0,0.4-0.1,0.6-0.1c-0.1,0.5-0.5,0.4-0.8,0.5C18.9,66.6,18.9,66.5,19,66.4L19,66.4z"/>
		<path class="st0" d="M27.4,76.5c0-0.4,0.2-0.6,0.5-0.7C28,76.1,27.8,76.3,27.4,76.5z"/>
		<path class="st0" d="M28,75.7c0-0.3,0.2-0.5,0.5-0.5C28.5,75.6,28.3,75.7,28,75.7z"/>
		<path class="st1" d="M8.3,44.4c-0.1,0-0.1,0.1-0.2,0.1c-0.1,0-0.2,0-0.2,0c0-0.1,0-0.1,0-0.2C8.1,44.2,8.3,44.2,8.3,44.4z"/>
		<path class="st2" d="M24,20.3c0.1,0.1,0.2,0.2,0.3,0.3c0.2,0.1,0.4,0.3,0.2,0.5c-0.1,0.2-0.4,0.2-0.6,0c-1-0.7-2.1-0.7-3.1-0.6
			c-1.2,0.1-2.3,1.7-2.3,2.8c0,1,0.1,2,0.7,2.9c0.1,0.1,0.1,0.2,0.1,0.3c0.1,0.2,0.2,0.4-0.1,0.5c-0.2,0.1-0.3-0.1-0.4-0.3
			c-0.2-0.4-0.5-0.8-0.7-1.2c-0.1-0.2-0.2-0.3-0.4-0.1c-0.1-0.1-0.2-0.2-0.3-0.3c-1.6-2.8-3.1-5.6-4.7-8.4c-0.1-0.2-0.1-0.5-0.4-0.5
			c0,0,0-0.1,0-0.1c0-0.2-0.1-0.3-0.2-0.4c0-0.1-0.1-0.2-0.1-0.2c0-0.1-0.1-0.3-0.1-0.4c0-0.2-0.2-0.3-0.1-0.5c0.2-0.2,0.3,0,0.5,0
			c0.4,0.1,0.7,0.5,1.1,0.4c0.1,0.1,0.3,0.1,0.4,0.2c0.3,0.4,0.7,0.5,1.2,0.6c0.1,0,0.1,0,0.2,0c0.3,0.4,0.7,0.5,1.2,0.6
			c0,0,0.1,0,0.1,0c0.1,0.2,0.2,0.2,0.4,0.2l0,0c1,0.7,2.2,1.2,3.4,1.6c0.1,0,0.1,0,0.2,0.1c0.1,0.2,0.2,0.2,0.4,0.2
			c0.1,0,0.2,0.1,0.2,0.1c0.4,0.3,0.8,0.5,1.2,0.7c0,0,0.1,0.1,0.1,0.1c0.1,0,0.2,0.1,0.3,0.1C23,20,23.7,19.9,24,20.3z M19.2,18
			c-0.1-0.1-0.2-0.2-0.3-0.2c-2.1-1-4.2-1.9-6.4-2.9c-0.1,0-0.2-0.1-0.3,0c-0.1,0.1,0,0.2,0.1,0.3c0.4,0.7,0.7,1.4,1.1,2.1
			c0.7,1.1,1.2,2.3,2,3.5c0-0.5-0.2-0.8-0.3-1.1c-0.5-1-0.9-2.1-1.4-3.1c-0.1-0.1-0.1-0.3,0-0.4c0.1-0.2,0.3,0,0.4,0.1
			c1,0.4,2,0.8,3.1,1.1C17.9,17.7,18.4,18.1,19.2,18z"/>
		<path class="st2" d="M18,27.7c-0.7,0.2-1.4,0-2.3,0.1c0.4,0.3,0.8,0.1,1.2,0.2c0.2,0,0.5-0.1,0.5,0.2c0,0.2-0.3,0.2-0.4,0.3
			c-0.1,0.1-0.2,0.1-0.3,0.1c-1.2,0-2.1,0.7-2.9,1.5c-0.2,0.2-0.3,0.6-0.4,0.8c-0.3,1.1-0.1,2.1,0.5,3.1c0.1,0.1,0.2,0.1,0.3,0.2
			c0.3,0.1,0.4,0.3,0.3,0.6c-0.2,0.3-0.5,0.2-0.7,0c-0.3-0.3-0.7-0.4-1-0.7c-0.1-0.1-0.2,0-0.4,0c-0.1-0.1-0.2-0.1-0.2-0.2
			C12,34,12,34,12,34c-1.1-0.7-2.1-1.7-3.2-2.5c-0.2-0.1-0.4-0.3-0.4-0.5c0.7,0,0.9,0.8,1.6,0.9c0-0.3-0.2-0.4-0.4-0.5
			c-0.9-0.9-2-1.7-2.8-2.6c-0.1-0.1-0.4-0.3-0.3-0.5C6.5,28,6.8,28.1,7,28.1c1.6,0.1,3.1-0.2,4.7-0.1c0.1,0,0.3,0.1,0.3-0.3
			c-0.8,0-1.5,0-2.3,0c-0.2,0-0.5,0.1-0.5-0.3c0.3,0,0.5-0.1,0.8-0.1c0.3,0,0.7,0,1,0c0.5,0.2,0.9,0.1,1.4,0.1c0.7,0,1.4,0,2.1,0.1
			c0.3,0.1,0.6,0.4,0.9,0.1c0.4,0.2,0.9,0.2,1.3,0.1C17.1,27.8,17.5,27.6,18,27.7z"/>
		<path class="st2" d="M31.5,13.7c-0.2,0.2-0.4,0.3-0.1,0.5c0.2,0.2,0.5,0.4,0.2,0.7c-0.3,0.3-0.4-0.1-0.6-0.2
			c-0.8-0.4-2.2-0.6-3.1,0.2c-0.5,0.5-1.1,0.9-1.3,1.6c-0.1,0.6-0.4,1.1-0.4,1.8c0,0.2,0.1,0.5-0.1,0.6c-0.2,0.1-0.3-0.2-0.4-0.4
			c0,0-0.1,0-0.2-0.1c0.1-0.5-0.1-1-0.3-1.4c0-0.1-0.1-0.2-0.1-0.3c0-0.1,0-0.1,0-0.2c0.1-0.2,0.1-0.4-0.1-0.5c0-0.1,0-0.3,0.1-0.4
			c0.4,0,0.3-0.4,0.3-0.6c-0.1-2.2-0.1-4.3-0.2-6.5c0-0.2,0-0.4,0.2-0.5c0.2-0.1,0.3,0.1,0.5,0.2c0.7,0.7,1.4,1.3,2.1,2
			c0.4,0.4,0.9,0.8,1.4,1.2c0-0.2,0-0.3-0.1-0.4c-0.9-1-1.8-2-2.7-3c-0.6-0.6-1-1.2-1.6-1.7c-0.1-0.1-0.3-0.3-0.5-0.2
			c-0.2,0.1-0.1,0.4-0.1,0.6c0.1,0.6,0.2,1.1,0,1.7C23.8,7.6,24,6.6,24,5.7c0,0,0.1,0,0.1,0c0.2,0,0.4,0.2,0.5,0.4
			c1.5,1.7,3.1,3.3,4.6,5c0.6,0.7,1.2,1.4,1.8,2c0,0,0.1,0.1,0.1,0.1c0.1,0,0.2,0.1,0.3,0.3c0,0,0.1,0.1,0.1,0.1
			C31.5,13.6,31.5,13.6,31.5,13.7z"/>
		<path class="st3" d="M24.2,8.5c0.1-0.6,0.1-1.1,0-1.7c0-0.2-0.2-0.4,0.1-0.6c0.2-0.1,0.3,0.1,0.5,0.2c0.6,0.5,1,1.2,1.6,1.7
			c1,1,1.8,2,2.7,3c0.1,0.1,0.1,0.1,0.1,0.4c-0.5-0.4-1-0.8-1.4-1.2c-0.7-0.6-1.4-1.3-2.1-2c-0.1-0.1-0.3-0.3-0.5-0.2
			C25,8.3,25,8.5,25,8.7c0.1,2.2,0.1,4.3,0.2,6.5c0,0.2,0.2,0.5-0.3,0.6c0-0.1-0.1-0.2-0.1-0.2c0-0.1,0-0.3,0.1-0.4
			c0.2-0.3,0.1-1.4-0.2-1.7c0-0.2,0-0.3-0.1-0.5c0.1-0.2,0-0.2-0.1-0.3c0-0.3,0-0.5,0-0.8c0.1-0.5,0.1-1,0-1.5
			c-0.1-0.3,0.2-0.8-0.2-1C24.2,9.1,24.1,8.8,24.2,8.5z"/>
		<path class="st0" d="M24.7,12.9c0,0.2,0,0.3,0.1,0.5c0,0.3,0,0.7-0.1,1c-0.5-0.3-0.4-0.8-0.4-1.2c-0.2-1.9-0.4-3.8-0.6-5.7
			c-0.1-0.6,0.1-1.3-0.2-1.9c-0.1-0.2,0.1-0.4,0.3-0.4c0.3-0.1,0.6-0.1,0.8,0.1c2.3,2.6,4.7,5.2,7.1,7.7c0.2,0.2,0.3,0.4,0.2,0.7
			c-0.1,0-0.2,0-0.3,0c0,0,0-0.1,0-0.1c0,0-0.1-0.1-0.1-0.1c0-0.2-0.1-0.2-0.3-0.3c0,0-0.1-0.1-0.1-0.1c-0.6-0.7-1.2-1.4-1.8-2
			c-1.5-1.7-3.1-3.3-4.6-5c-0.2-0.2-0.3-0.4-0.5-0.4c0-0.1,0-0.2-0.2-0.1c-0.1,0,0,0.1,0,0.2c0,1-0.2,1.9,0.2,2.9
			c-0.1,0.3,0,0.5,0.1,0.8c0,0.6,0.1,1.3,0.1,1.9c0,0.2,0,0.5,0.2,0.6c0,0.3,0,0.5,0,0.8C24.5,12.8,24.5,12.9,24.7,12.9z"/>
		<path class="st0" d="M18,27.7c-0.4-0.1-0.9,0.1-1.3-0.1c0.2-0.3,0.6-0.2,0.9-0.2c0.8,0,0.8-0.1,0.5-0.8c-0.6-1.2-1.4-2.2-2-3.4
			c-1-1.9-2-3.7-3.1-5.5c-0.3-0.5-0.6-0.9-0.6-1.5c0.3,0.1,0.3,0.3,0.4,0.5c1.6,2.8,3.1,5.6,4.7,8.4c0.1,0.1,0.1,0.3,0.3,0.3
			c0,0,0,0.1,0,0.1c0,0,0.1,0.1,0.1,0.1c0.2,0.4,0.4,0.7,0.6,1.1C18.8,27.5,18.7,27.6,18,27.7z"/>
		<path class="st0" d="M35.3,12.8c-0.2,1-0.4,2-0.7,3c-0.1,0.3-0.3,0.7-0.7,0.3c-0.8-0.7-1.5-1.5-2.1-2.4c0.8,0.3,1.2,1,1.8,1.6
			c0.1,0.1,0.2,0.3,0.4,0.3c0.2,0,0.2-0.3,0.3-0.4C34.7,14.3,34.7,13.4,35.3,12.8z"/>
		<path class="st4" d="M25.1,17.2c0.2,0.4,0.4,0.9,0.3,1.4c0,0.5,0.2,0.9,0.1,1.4c0,0.6-0.3,0.8-0.9,0.6c-0.3-0.1-0.5-0.2-0.8-0.2
			c-0.3-0.4-1-0.3-1.1-0.9c0.4,0,0.7,0.3,1.1,0.3c0,0,0.1,0,0.1,0c0,0.2,0.1,0.2,0.3,0.2c0.1,0,0.2,0,0.2,0c0.1,0.3,0.4,0.3,0.6,0.2
			c0.2-0.1,0.2-0.3,0-0.5c0-0.4,0-0.7,0-1.1c0-0.2,0.1-0.5-0.1-0.7c0-0.2,0-0.3,0-0.5C25.1,17.4,25.1,17.3,25.1,17.2z"/>
		<path class="st0" d="M13.5,14.9c-0.5,0.1-0.8-0.3-1.1-0.4c-0.2,0-0.4-0.2-0.5,0c-0.2,0.2,0,0.3,0.1,0.5c0,0.1,0.1,0.3,0.1,0.4
			c-0.4-0.1-0.6-0.5-0.6-0.9c-0.1-0.3,0.2-0.5,0.4-0.5C12.4,14.3,13.1,14.3,13.5,14.9z"/>
		<path class="st0" d="M24,19.7c-0.4,0.1-0.7-0.3-1.1-0.3c-0.1,0-0.2-0.1-0.3-0.1c0,0-0.1-0.1-0.1-0.1c-0.4-0.2-0.9-0.3-1.2-0.7
			c0.4-0.3,0.7,0.2,1,0.3C22.8,18.9,23.6,19,24,19.7z"/>
		<path class="st0" d="M20.4,18.2c-1.2-0.5-2.3-0.9-3.4-1.6c0.9,0.1,1.7,0.6,2.5,1C19.8,17.7,20.3,17.7,20.4,18.2z"/>
		<path class="st2" d="M6.1,27.3c0.3,0,0.6,0,0.9-0.1c0.3,0,0.6,0,1,0c0.3,0.2,0.7,0,1,0.2C8,27.8,7.1,27.4,6.1,27.3z"/>
		<path class="st0" d="M9,27.4c-0.3-0.2-0.7,0-1-0.2c0.7-0.2,1.4-0.3,2,0.1c-0.3,0-0.5,0.1-0.8,0.1C9.1,27.4,9,27.4,9,27.4z"/>
		<path class="st2" d="M24.7,14.4c0-0.3,0-0.7,0.1-1c0.3,0.3,0.4,1.4,0.2,1.7c-0.1-0.1-0.1-0.2-0.2-0.3
			C24.7,14.8,24.7,14.6,24.7,14.4z"/>
		<path class="st0" d="M12.4,27.4c-0.5,0-0.9,0.1-1.4-0.1C11.4,27.2,11.9,27,12.4,27.4z"/>
		<path class="st0" d="M15.1,15.7c-0.5-0.1-0.9-0.2-1.2-0.6C14.3,15.2,14.9,15.1,15.1,15.7z"/>
		<path class="st0" d="M15.3,27.5c-0.3,0.3-0.6,0.1-0.9-0.1C14.8,27.3,15.1,27.2,15.3,27.5z"/>
		<path class="st0" d="M16.5,16.3c-0.4-0.1-0.9-0.2-1.2-0.6C15.7,15.8,16.2,15.9,16.5,16.3z"/>
		<path class="st0" d="M25.2,19.7c0.2,0.2,0.2,0.4,0,0.5c-0.2,0.1-0.5,0.2-0.6-0.2C24.8,19.9,25.1,19.9,25.2,19.7z"/>
		<path class="st0" d="M35.7,11.4c0,0.3,0,0.6-0.2,0.8C35.4,11.9,35.4,11.6,35.7,11.4z"/>
		<path class="st0" d="M24.9,16.2c0.2,0.1,0.3,0.3,0.1,0.5C24.7,16.6,24.6,16.4,24.9,16.2z"/>
		<path class="st0" d="M25.1,17.9c0.2,0.2,0.1,0.4,0.1,0.7C24.9,18.4,24.9,18.2,25.1,17.9z"/>
		<path class="st0" d="M24.7,14.9c0.1,0.1,0.1,0.2,0.2,0.3c0,0.1,0,0.3-0.1,0.4C24.5,15.4,24.6,15.2,24.7,14.9z"/>
		<path class="st0" d="M25.1,17.2c0,0.1,0,0.2-0.1,0.3c-0.3-0.2-0.3-0.4,0-0.6C25.1,17,25.1,17.1,25.1,17.2z"/>
		<path class="st0" d="M17,16.5c-0.2,0-0.3,0-0.4-0.2C16.7,16.3,16.9,16.2,17,16.5z"/>
		<path class="st0" d="M12.1,15.7c0.2,0.1,0.3,0.2,0.2,0.4C12.1,16,12.1,15.8,12.1,15.7z"/>
		<path class="st0" d="M21,18.4c-0.2,0-0.3,0-0.4-0.2C20.8,18.1,20.9,18.2,21,18.4z"/>
		<path class="st0" d="M24.4,19.9c-0.2,0-0.2-0.1-0.3-0.2C24.3,19.7,24.3,19.8,24.4,19.9z"/>
		<path class="st2" d="M61.1,24.2c0-0.1,0.1-0.4-0.2-0.4c-0.2,0-0.2,0.2-0.3,0.3c-0.1,0.2-0.1,0.4-0.2,0.6c0,0.1-0.1,0.3-0.3,0.2
			c-0.2,0-0.2-0.2-0.2-0.3c0-0.2,0.1-0.5,0.2-0.7c0.4-1.4,0.3-2.7-0.7-3.8c-0.5-0.5-1-1-1.8-0.9c-0.6,0-1.1-0.3-1.7-0.1
			c-0.1,0-0.3,0-0.4-0.1c0-0.2,0.1-0.3,0.3-0.3c0.6-0.2,0.2-0.3,0-0.4c1.5-0.9,3.1-1.7,4.6-2.6c0.5-0.3,1.1-0.5,1.5-0.9l0,0
			c0.1,0,0.2,0,0.4,0l0,0c-0.7,0.7-1.6,1-2.4,1.5c-0.7,0.4-1.4,0.7-2.1,1.1c0,0,0,0.1,0.1,0.1c0.8-0.3,1.6-0.7,2.3-1
			c1.2-0.6,2.4-1.1,3.6-1.7c0.3-0.1,0.6-0.1,0.4,0.4c-0.1,0.3-0.1,0.5-0.2,0.8c-0.5,1.2-0.9,2.4-1.4,3.6c0,0.1-0.1,0.2,0.1,0.3
			c0.1,0,0.2-0.1,0.2-0.2c0-0.4,0.4-0.7,0.5-1.1c0.2-0.6,0.5-1.2,0.8-1.8c0.6-1,1-2.2,1.5-3.2c0.1-0.1,0.2-0.3,0-0.4
			c-0.2-0.1-0.3,0-0.5,0c-0.3,0.2-0.5,0.4-0.8,0.3c0.1-0.3,0.4-0.3,0.6-0.4c0.4-0.3,0.9-0.3,1.1-0.7c0.1,0,0.3,0,0.3,0.2
			c-0.3,0.7-0.8,1.4-0.9,2.2c0,0,0,0,0,0c-0.1,0-0.2,0.1-0.2,0.2c-0.8,1.8-1.6,3.5-2.4,5.2C62.5,21.4,61.9,22.9,61.1,24.2z"/>
		<path class="st2" d="M53.2,17.7c-0.4-0.2-0.1-0.6-0.2-0.9c0-0.1,0-0.3-0.2-0.3c-0.2,0-0.2,0.2-0.2,0.3c0,0.3,0.1,0.8-0.2,0.8
			c-0.4,0-0.3-0.5-0.3-0.8c0-0.9-1.3-2.5-2.2-2.7c-1.3-0.4-2.3-0.1-3.3,0.7c-0.4,0.3-0.8,0.4-1.2,0c0,0,0-0.1,0-0.1
			c1.1-0.4,1.4-1.6,2.1-2.4c0.6-0.4,0.9-0.9,1.4-1.4c1.1-1.2,2.2-2.3,3.2-3.5c0.1-0.1,0.2-0.2,0.4-0.1c0.2,0.1,0.1,0.2,0.1,0.4
			c0.2,1.2,0.1,2.3,0.1,3.5c0,0.6,0.2,1.2,0.2,1.8c0.1-0.6,0-1.2,0.1-1.7c0.2-1.8,0.2-3.7,0.2-5.5c0-0.1,0-0.3-0.1-0.3
			c-0.2-0.1-0.2,0.1-0.3,0.2c-0.5,0.6-0.9,1.2-1.5,1.8c-0.5,0.6-0.8,1.3-1.6,1.6c0.3-0.7,0.9-1.1,1.3-1.7C51.3,7,51.4,7,51.4,6.8
			c0.1-0.1,0.2-0.2,0.2-0.3c0.2,0,0.3-0.2,0.3-0.4c0,0,0.1-0.1,0.1-0.1c0.5-0.3,0.8-1,1.3-1.4c0.1-0.1,0.2-0.3,0.4-0.2
			c0.2,0.1,0.1,0.2,0.1,0.4c0,0.8-0.1,1.5-0.1,2.3c-0.1,2.4-0.1,4.7-0.3,7.1C53.3,15.4,53.3,16.5,53.2,17.7z"/>
		<path class="st3" d="M66.5,25.9c0.1-0.4,0.5-0.3,0.8-0.4c0.2-0.1,0.4,0,0.5-0.1c0.2,0,0.4-0.1,0.6-0.1c0.2,0.1,0.4,0.2,0.6,0
			c0.2,0,0.4,0,0.6-0.1c0.2,0.1,0.5,0.2,0.7-0.1c0.1,0,0.2,0,0.3,0c0.1,0.1,0.2,0.1,0.4,0c0.3,0,0.5-0.1,0.8-0.1
			c0.2,0.2,0.3,0,0.5,0c0.2,0,0.5,0.1,0.6-0.2c0.1,0,0.2,0,0.4,0c0.1,0.3,0.3,0.2,0.4,0c0.2,0,0.4,0,0.6,0c0.2,0.2,0.6,0,0.7,0.4
			c0,0,0,0.1-0.1,0.1c-0.1,0-0.2,0.1-0.2,0.2c-0.1,0.1-0.1,0.1-0.2,0.2c-0.2,0-0.4,0-0.3,0.3c-0.1,0.1-0.1,0.2-0.2,0.3
			c0,0-0.1,0.1-0.1,0.1c0,0.1-0.1,0.2-0.1,0.3c-0.3,0.3-0.6,0.4-0.8,0.8c-0.1,0-0.2,0-0.3,0.1c-0.1,0-0.2,0-0.1,0.1
			c0,0.1,0,0.1-0.1,0.2c0,0-0.1,0.1-0.1,0.1c-0.1,0-0.1,0-0.2,0C72,27.7,72,27.8,72,27.9c-0.8,0.7-1.5,1.4-2.3,2
			c-0.1,0-0.2,0.1-0.2,0.2c-0.3,0.3-0.6,0.6-0.9,0.8c-0.5-0.1-0.2-0.3-0.1-0.4c0.4-0.6,1-1.1,1.5-1.6c0.9-0.8,1.6-1.7,2.4-2.6
			c0.1-0.1,0.3-0.2,0.3-0.4c-0.1-0.2-0.3-0.1-0.5-0.1C70.3,25.8,68.4,25.8,66.5,25.9z"/>
		<path class="st0" d="M53.2,17.7c0.1-1.1,0.1-2.3,0.1-3.4c0.2-2.4,0.2-4.7,0.3-7.1c0-0.8,0.1-1.5,0.1-2.3c0-0.1,0-0.3-0.1-0.4
			c-0.2-0.1-0.2,0.1-0.4,0.2c-0.5,0.4-0.7,1-1.3,1.4c0.1-0.8,0.5-1.3,1.1-1.7c0.2-0.2,0.4-0.3,0.7-0.2c0.2,0.2,0.4,0.4,0.4,0.7
			c-0.2,2.3-0.2,4.7-0.3,7c-0.1,1.7-0.2,3.5-0.2,5.2c0,0.4-0.1,0.7-0.1,1.1c0,0.5,0.2,0.7,0.6,0.4c0.7-0.3,1.4-0.6,2-1
			c0.6-0.4,1.3-0.6,2-1c1.1-0.7,2.2-1.2,3.3-1.9c0.2-0.1,0.4-0.2,0.7-0.1c-0.4,0.5-1,0.7-1.5,0.9c-1.5,0.9-3.1,1.7-4.6,2.6
			c-0.7,0.3-1.3,0.7-2,1c-0.6,0.3-0.7,0.2-0.7-0.4C53.2,18.4,53.2,18,53.2,17.7z"/>
		<path class="st0" d="M71.8,24.9c-0.3,0-0.5,0.1-0.8,0.1c-0.1,0-0.2,0-0.4,0c-0.1,0-0.2,0-0.3,0c-0.2,0-0.5-0.2-0.7,0.1
			c-0.2,0-0.4,0-0.6,0.1c-0.2-0.1-0.4-0.2-0.6,0c-0.2,0-0.4,0.1-0.6,0.1c-1.1-0.1-2.2,0.2-3.3,0.3c-1.1,0.1-2.3,0.4-3.4,0.3
			c-0.5,0-0.6-0.2-0.4-0.6c0.1-0.3,0.3-0.7,0.4-1c0.1,0,0.1-0.1,0.1-0.2l0,0c0.8-1.3,1.3-2.7,2-4.1c0.8-1.7,1.6-3.5,2.4-5.2
			c0-0.1,0.1-0.2,0.2-0.2c0.1,0.7-0.2,1.2-0.5,1.7c-0.4,0.7-0.8,1.5-1.1,2.2c-0.6,1.6-1.4,3.1-2.1,4.6c-0.3,0.7-0.6,1.4-0.9,2.1
			c-0.2,0.4,0,0.6,0.4,0.5c2.4-0.3,4.7-0.6,7.1-0.9c0.9-0.1,1.7-0.2,2.6-0.2c0.2,0,0.4-0.1,0.6,0.1C71.8,24.8,71.8,24.9,71.8,24.9z"
			/>
		<path class="st0" d="M68.6,30.9c0.4-0.2,0.6-0.5,0.9-0.8c0.1,0,0.1,0,0.2,0c0,0,0,0,0.1,0.1c-0.6,1-1.6,1.5-2.3,2.3
			c-0.7,0.7-1.5,1.4-2.2,2.1c-0.3,0.3-0.1,0.4,0.1,0.5c0.4,0.1,0.8,0.2,1.1,0.3c0.3,0.1,0.6,0.1,0.8,0.5c-0.9-0.1-1.7-0.4-2.5-0.7
			c-0.4-0.1-0.3-0.4-0.1-0.6c0.3-0.3,0.6-0.5,0.8-0.8c0.9-0.6,1.6-1.3,2.3-2.1c0.1,0,0.2-0.1,0.2-0.2C68.3,31.4,68.5,31.2,68.6,30.9
			z"/>
		<path class="st0" d="M66.3,12.2c-0.3,0.4-0.8,0.4-1.1,0.7c-0.2,0.1-0.5,0.1-0.6,0.4c-0.1,0-0.2,0.1-0.3,0.1
			c-0.6,0.1-1,0.7-1.6,0.7c0-0.3,0.2-0.4,0.5-0.5c0.9-0.4,1.7-0.9,2.6-1.3C66,12.2,66.1,12.1,66.3,12.2z"/>
		<path class="st0" d="M72.2,27.8c0.1,0,0.1,0,0.2,0c0.1,0.2,0,0.4-0.2,0.5c-0.8,0.7-1.6,1.3-2.4,2c0,0,0,0-0.1-0.1
			c0-0.1,0-0.1,0-0.2c0.8-0.7,1.5-1.4,2.3-2C72.1,27.9,72.1,27.8,72.2,27.8z"/>
		<path class="st0" d="M65.8,14.6c0.1-0.8,0.6-1.5,0.9-2.2c0,0,0.1,0.1,0.1,0.1C66.6,13.3,66.3,14,65.8,14.6z"/>
		<path class="st2" d="M62.8,14.2c0.6,0,1-0.7,1.6-0.7c-0.5,0.6-1.2,0.9-2,1.1l0,0c0-0.1,0.1-0.2,0.1-0.2
			C62.6,14.3,62.7,14.2,62.8,14.2z"/>
		<path class="st0" d="M74,26.1c0.1-0.1,0.1-0.2,0.2-0.3c0.2,0,0.3-0.1,0.3-0.3c0.1-0.1,0.1-0.1,0.2-0.2c0.1,0,0.1,0,0.2,0
			c0,0,0,0,0,0.1c-0.3,0.4-0.5,0.9-1.2,1C73.8,26.3,73.9,26.2,74,26.1C74,26.2,74,26.1,74,26.1z"/>
		<path class="st0" d="M74.5,37.9c-0.6,0-1.1-0.2-1.6-0.5C73.5,37.4,74.1,37.6,74.5,37.9z"/>
		<path class="st1" d="M75,25.1c-0.1-0.4-0.5-0.2-0.7-0.4c0.1,0,0.2,0,0.2-0.2c0.3,0,0.6,0,0.9,0C75.3,24.8,75.2,25,75,25.1z"/>
		<path class="st0" d="M75,25.1c0.3-0.1,0.4-0.2,0.4-0.5c0.2,0.5,0.2,0.7-0.5,0.9c0,0,0,0,0-0.1c0-0.1,0-0.1,0-0.2
			C74.9,25.1,74.9,25.1,75,25.1z"/>
		<path class="st0" d="M74.5,24.5c0,0.1-0.2,0.1-0.2,0.2c-0.2,0-0.4,0-0.6,0c-0.1,0-0.2-0.1-0.3-0.1C73.7,24.3,74.1,24.4,74.5,24.5z
			"/>
		<path class="st0" d="M71.3,37c-0.4,0-0.8-0.1-1.1-0.4C70.6,36.7,71.1,36.6,71.3,37z"/>
		<path class="st0" d="M72.9,24.7c-0.1,0.3-0.4,0.1-0.6,0.2c0-0.1,0-0.1,0-0.2C72.5,24.4,72.7,24.5,72.9,24.7z"/>
		<path class="st0" d="M77.1,38.7c-0.4,0-0.7-0.1-1-0.3C76.4,38.2,76.8,38.4,77.1,38.7z"/>
		<path class="st0" d="M75.8,38.3c-0.3,0-0.6,0-0.8-0.3C75.3,37.9,75.6,38,75.8,38.3z"/>
		<path class="st0" d="M70,36.6c-0.1,0-0.2,0.1-0.4,0.1c-0.1,0-0.2,0-0.3-0.1c0-0.1,0-0.1,0-0.2C69.7,36.3,69.9,36.4,70,36.6z"/>
		<path class="st0" d="M68.8,36.3c-0.3,0-0.5,0-0.8-0.2C68.4,35.8,68.6,36.1,68.8,36.3z"/>
		<path class="st0" d="M72.5,27.6c0-0.1,0-0.1,0.1-0.2c0,0,0.1-0.1,0.1-0.1c0.1-0.1,0.2-0.1,0.3-0.1C72.9,27.5,72.8,27.7,72.5,27.6z
			"/>
		<path class="st0" d="M62.5,14.3c0,0.1-0.1,0.2-0.1,0.2c-0.1,0-0.2,0-0.4,0C62.1,14.2,62.3,14.3,62.5,14.3z"/>
		<path class="st4" d="M72.3,24.8c0,0.1,0,0.1,0,0.2c-0.2,0-0.3,0.2-0.5,0c0-0.1,0-0.1,0-0.2C72,24.8,72.1,24.8,72.3,24.8z"/>
		<path class="st1" d="M73.4,24.7c0.1,0,0.2,0.1,0.3,0.1c-0.1,0.2-0.3,0.3-0.4,0C73.3,24.7,73.4,24.7,73.4,24.7z"/>
		<path class="st0" d="M51.9,6.2c0,0.2-0.1,0.3-0.3,0.4C51.6,6.3,51.6,6.2,51.9,6.2z"/>
		<path class="st0" d="M72.3,37.3c-0.1,0-0.2,0-0.3-0.1C72.2,37,72.3,37.1,72.3,37.3z"/>
		<path class="st0" d="M71.8,37.2c-0.1,0-0.2,0-0.3-0.1C71.7,36.9,71.8,37,71.8,37.2z"/>
		<path class="st0" d="M45,67.7c0.2-0.5,0.3-1.1,0.5-1.6c0.2-0.8,0.4-0.8,1-0.4c0.1,0,0.2,0.1,0.2,0.1c0,0.2,0.1,0.3,0.3,0.4
			c0.2,0.5,0.7,0.8,1,1.2c0.5,0.5,0.9,1.1,1.5,1.5c0.5,0.7,1.1,1.2,1.6,1.8c0.1,0.3,0.3,0.5,0.6,0.6c0.2,0.2,0.4,0.5,0.5,0.7
			c1.2,1.3,2.4,2.6,3.7,3.9c0,0.1,0.1,0.2,0.2,0.2c0.1,0,0.1-0.1,0.1-0.2c-0.3-3.3-0.8-6.6-1-9.9c0.1-0.1,0.1-0.2-0.1-0.3
			c0-0.4-0.1-0.8-0.1-1.2c-0.1-0.6-0.1-1.3-0.2-1.9c-0.2-1.2,0-1.4,1.1-1c0,0,0,0,0,0c0.1,0.1,0.1,0.1,0.2,0.1c0.1,0,0.2,0,0.4,0
			c0,0.1,0.1,0.2,0.3,0.2l0,0c0.1,0.2,0.3,0.2,0.5,0.2l0,0c0.1,0.1,0.2,0.1,0.4,0.1c0.5,0.1,0.9,0.3,1.2,0.5
			c0.1,0.1,0.3,0.2,0.4,0.3c2.8,1.3,5.6,2.6,8.4,3.9c0.2,0.2,0.4,0.3,0.6,0.2c0.1-0.1,0.1-0.2,0.1-0.3c-0.3-0.5-0.4-1.1-0.9-1.5
			c0,0,0-0.1-0.1-0.1c-0.1-0.5-0.3-0.9-0.7-1.2c0,0,0-0.1-0.1-0.1c0-0.3-0.1-0.5-0.3-0.6l0,0c0-0.2,0-0.3-0.2-0.3
			c-0.1-0.1-0.1-0.2-0.2-0.3c-0.1-0.3-0.2-0.6-0.5-0.8c0,0,0-0.1-0.1-0.1c0-0.2,0-0.3-0.2-0.3c-0.1-0.1-0.1-0.2-0.2-0.3
			c0,0-0.1-0.1-0.1-0.1c-0.1-0.7-0.7-1.2-0.9-1.9c0,0,0-0.1-0.1-0.1c-0.1-0.1-0.1-0.2-0.2-0.3c0-0.2,0.1-0.3-0.2-0.4l0,0
			c-0.4-1.2-1.2-2.2-1.8-3.3c-0.1-0.2-0.4-0.5-0.2-0.8c0.2-0.3,0.5-0.2,0.7-0.2c0.8,0,1.5,0,2.3,0c0.5,0,1.1,0,1.6,0.1
			c0.3,0.3,0.6,0.2,0.9,0.1c1.5,0.1,3,0.1,4.5,0.2c0.2,0,0.3,0,0.5,0c1.2,0,2.3,0,3.5,0.1c0.1,0.2,0.2,0.2,0.4,0c0.1,0,0.2,0,0.2,0
			c0.1,0,0.2,0.1,0.2-0.1c0-0.1-0.1-0.1-0.2-0.1c-0.1-0.1-0.1-0.1-0.2-0.2c0-0.1,0-0.2-0.1-0.2c0,0-0.1,0-0.1-0.1
			c-0.2-0.6-0.8-0.7-1.1-1.1c-0.7-0.7-1.6-1.1-2.2-1.8c0.4,0,0.8,0.2,1,0.4c0.8,0.8,1.8,1.4,2.7,2.1c0.2,0.2,0.4,0.4,0.6,0.7
			c0.2,0.3,0.1,0.5-0.3,0.6c-0.6,0.2-1.2,0.2-1.8,0.2c-0.9-0.1-1.8-0.1-2.7-0.1c-1.6-0.1-3.1-0.1-4.7-0.2c-1.4-0.1-2.9,0-4.4-0.2
			c-0.3,0-0.6-0.1-0.8,0.3c-0.1,0.3,0.1,0.5,0.2,0.7c0.8,1.5,1.6,2.9,2.5,4.4c0.6,1.1,1.2,2.2,1.8,3.2c0.8,1.3,1.5,2.7,2.2,4
			c0.2,0.3,0,0.5-0.3,0.6c-0.2,0.1-0.4,0-0.6-0.1c-0.8-0.4-1.7-0.7-2.5-1.1c-1.2-0.6-2.4-1.1-3.5-1.7c-1.7-0.8-3.4-1.6-5.1-2.4
			c-0.4-0.2-0.8-0.2-1.1-0.5c-0.2-0.2-0.5-0.1-0.5,0.3c0,0.7,0.1,1.5,0.2,2.2c0.3,2,0.4,4.1,0.7,6.2c0.3,1.7,0.3,3.5,0.6,5.2
			c0,0.3-0.1,0.5-0.3,0.7c-0.2,0.2-0.4,0-0.6-0.2c-0.9-1-1.9-1.9-2.7-2.9c-0.7-0.8-1.5-1.6-2.2-2.4c-1.4-1.5-2.7-3-4.1-4.5
			c-0.3-0.4-0.8-0.3-0.9,0.2c-0.7,2.1-1.2,4.3-1.9,6.4c-0.3,1-0.6,2.1-0.9,3.1c0,0.2-0.2,0.3-0.3,0.3c0,0,0,0-0.1,0
			c0.2-1,0.5-2,0.8-2.9C43.9,71.6,44.4,69.7,45,67.7z"/>
		<path class="st0" d="M68.9,48.3c-0.4-0.7-1.1-1-1.7-1.4c-0.6-0.5-1.3-1-2-1.6c-0.2-0.2-0.4-0.4,0-0.6c1.2-0.5,2.4-1,3.7-1.3
			c-0.5,0.5-1.1,0.9-1.9,1c-0.5,0-0.7,0.4-1.2,0.5c-0.2,0-0.1,0.4,0.1,0.6c0.6,0.6,1.2,1.2,1.9,1.6c0.8,0.6,1.5,1.3,2.3,1.9
			c0.7,0.5,1.3,0.9,1.9,1.5c0.1,0.1,0.3,0.3,0.3,0.5c-0.1,0-0.2,0-0.2,0l0,0c0-0.1-0.1-0.1-0.2-0.1c0,0-0.1-0.1-0.1-0.1
			c0-0.2-0.1-0.3-0.3-0.2c-0.1-0.1-0.2-0.1-0.3-0.2c-0.3-0.5-0.7-0.8-1.2-1l0,0c0-0.2-0.1-0.3-0.4-0.3c-0.1-0.1-0.2-0.1-0.3-0.2
			c0-0.2-0.1-0.3-0.4-0.3C69,48.3,68.9,48.3,68.9,48.3z"/>
		<path class="st1" d="M72.2,50.9c0.1,0,0.2,0,0.2,0c0,0,0.1,0,0.1,0c0.6,0.8,1.5,1.2,2.2,1.8c0.4,0.4,0.9,0.5,1.1,1.1
			c-0.3,0-0.4-0.2-0.6-0.3c-0.8-0.7-1.6-1.3-2.4-1.9C72.5,51.4,72.2,51.3,72.2,50.9z"/>
		<path class="st0" d="M73.6,41.7c0.2-0.3,0.6-0.3,0.9-0.4c1-0.3,1.8-0.8,2.8-1c-0.2,0.4-0.6,0.4-0.9,0.5
			C75.5,41.2,74.6,41.5,73.6,41.7z"/>
		<path class="st0" d="M69.2,43.3c0.2-0.4,0.7-0.3,1-0.5c0.7-0.3,1.3-0.6,2-0.7c0,0.2-0.2,0.3-0.4,0.4C71,42.7,70.2,43.2,69.2,43.3z
			"/>
		<path class="st0" d="M72.6,42c0-0.2,0.1-0.2,0.3-0.2C72.9,42,72.8,42.1,72.6,42z"/>
		<path class="st3" d="M8.3,44.4c-0.1-0.2-0.2-0.2-0.4-0.2l0,0C7.7,44,7.4,44,7.1,43.9c0-0.2-0.1-0.3-0.3-0.3
			c-1.2-0.1-2.3-0.6-3.4-0.9c-0.4-0.1-1.1-0.1-1.1-0.5c0-0.4,0.6-0.5,1-0.6c1.4-0.5,2.8-1,4.2-1.5c0.3-0.1,0.6-0.1,0.7-0.5
			c0.8-0.1,1.5-0.7,2.3-0.8c0.2,0,0.3-0.1,0.5-0.1c0,0.1,0,0.1,0,0.2c-0.1,0.1-0.2,0.2-0.4,0.2c-1.9,0.8-3.7,1.6-5.6,2.5
			c-0.3,0.2-0.8,0.2-1,0.7c1,0.4,2,0.7,3,1.1c1.4,0.6,2.9,0.9,4.2,1.6c0,0.1,0,0.1,0,0.2c-0.3,0-0.5-0.1-0.8-0.2
			c0-0.1-0.1-0.1-0.1,0c-0.1,0-0.2,0-0.3,0c0,0-0.1,0-0.1-0.1c-0.3,0-0.6-0.1-0.8-0.3c-0.1-0.1-0.2-0.1-0.3-0.1
			C8.7,44.5,8.5,44.4,8.3,44.4z"/>
		<path class="st3" d="M9,27.4c0.1,0,0.2,0,0.2,0c0,0.4,0.3,0.3,0.5,0.3c0.8,0,1.5,0,2.3,0c0,0.3-0.2,0.3-0.3,0.3
			c-1.6,0-3.1,0.2-4.7,0.1c-0.2,0-0.5-0.1-0.6,0.2c-0.1,0.2,0.2,0.3,0.3,0.5c0.9,0.9,1.9,1.7,2.8,2.6c0.1,0.1,0.3,0.2,0.4,0.5
			C9.3,31.8,9,31,8.3,31c0,0-0.1,0-0.1-0.1c-0.1-0.5-0.6-0.7-0.9-1c-0.5-0.3-0.8-0.9-1.4-1c0,0-0.1,0-0.1-0.1c0-0.3-0.3-0.5-0.5-0.6
			c-0.7-0.5-0.7-0.7,0-1c0.3,0,0.6,0,0.9,0C7.1,27.4,8,27.8,9,27.4z"/>
		<path class="st2" d="M8.2,39.6c-0.1,0.4-0.4,0.4-0.7,0.5c-1.4,0.5-2.8,1-4.2,1.5c-0.4,0.1-1,0.2-1,0.6c0,0.4,0.7,0.4,1.1,0.5
			c1.1,0.3,2.2,0.8,3.4,0.9c0.2,0,0.3,0.2,0.3,0.3c-0.1,0-0.1,0-0.2,0c-1.8-0.5-3.7-1-5.5-1.8C3.6,41.2,5.9,40.3,8.2,39.6z"/>
		<path class="st2" d="M5.2,27.3c-0.7,0.3-0.8,0.5,0,1c0.2,0.2,0.5,0.3,0.5,0.6c-0.7-0.3-1.2-1-1.8-1.5c-0.2-0.1-0.1-0.3,0.1-0.3
			C4.4,27.2,4.8,27.1,5.2,27.3z"/>
		<path class="st2" d="M5.8,29c0.6,0.1,1,0.6,1.4,1c0.4,0.3,0.9,0.4,0.9,1C7.3,30.4,6.5,29.8,5.8,29z"/>
		<path class="st1" d="M6.9,44c0.1,0,0.1,0,0.2,0c0.3,0,0.6,0,0.9,0.3C7.5,44.2,7.2,44.1,6.9,44z"/>
		<path class="st1" d="M12,34c0,0,0.1,0.1,0.1,0.1C12,34,12,34,12,34z"/>
		<path class="st3" d="M49.9,8.9c0.7-0.3,1.1-1.1,1.6-1.6c0.5-0.6,1-1.2,1.5-1.8c0.1-0.1,0.2-0.3,0.3-0.2c0.1,0.1,0.1,0.2,0.1,0.3
			c0,1.9,0,3.7-0.2,5.5c-0.1,0.6,0,1.1-0.1,1.7c-0.1-0.6-0.2-1.2-0.2-1.8c0-1.2,0-2.3-0.1-3.5c0-0.1,0-0.3-0.1-0.4
			c-0.2-0.1-0.3,0-0.4,0.1c-1.1,1.2-2.2,2.3-3.2,3.5c-0.4,0.5-0.8,1-1.4,1.4c0.1-0.2,0.2-0.3,0.1-0.5c0-0.1,0.1-0.1,0.1-0.2
			c0.2,0,0.3-0.2,0.2-0.3c0.1-0.1,0.1-0.2,0.2-0.3c0.1,0,0.2-0.1,0.2-0.2c0.2-0.2,0.3-0.4,0.5-0.7c0.2,0,0.2-0.2,0.2-0.3
			c0,0,0.1,0,0.1-0.1c0.1,0,0.1-0.1,0.1-0.2l0,0C49.8,9.4,49.9,9.2,49.9,8.9C49.9,8.9,49.9,8.9,49.9,8.9z"/>
		<path class="st4" d="M45.5,14.5c0,0,0,0.1,0,0.1c-0.2,0.5-0.6,0.8-0.9,1.2c-0.4,0.5-0.7,0.4-1-0.1c-0.1-0.2-0.1-0.6-0.4-0.7
			c0-0.1,0-0.2,0-0.2c0.2-0.3,0-0.5-0.1-0.7c-0.1-0.2-0.2-0.5-0.1-0.7c0.4,0.5,0.5,1.1,0.8,1.7c0.3,0.7,0.5,0.7,1,0.2
			c0.3-0.3,0.5-0.7,0.8-0.9C45.5,14.5,45.5,14.5,45.5,14.5z"/>
		<path class="st1" d="M45.5,14.5c0,0,0-0.1,0-0.1c0.7-0.9,1.3-2,2.2-2.7c0.1,0.2,0,0.4-0.1,0.5C46.9,12.9,46.6,14.1,45.5,14.5z"/>
		<path class="st2" d="M49.9,9c0,0.2-0.1,0.4-0.3,0.5C49.5,9.2,49.7,9,49.9,9z"/>
		<path class="st1" d="M48.1,11.2c0,0.2-0.1,0.3-0.2,0.3C47.9,11.3,47.9,11.2,48.1,11.2z"/>
		<path class="st1" d="M49.3,9.7c0,0.2,0,0.3-0.2,0.3C49,9.8,49.1,9.7,49.3,9.7z"/>
		<path class="st1" d="M48.5,10.7c0,0.1-0.1,0.2-0.2,0.2C48.3,10.8,48.3,10.7,48.5,10.7z"/>
		<path class="st2" d="M49.5,9.4c0,0.1,0,0.2-0.1,0.2C49.4,9.5,49.4,9.5,49.5,9.4z"/>
		<path class="st2" d="M45,67.7c-0.5,1.9-1.1,3.9-1.6,5.8c-0.3,1-0.6,1.9-0.8,2.9c-0.3,0.8-0.5,1.6-0.7,2.4
			c-0.1,0.3-0.1,0.7-0.4,0.7c-0.2,0-0.3-0.4-0.4-0.6c-0.2-0.7-0.6-1.3-0.7-2c0.4,0.4,0.4,1,0.7,1.5c0.1,0.2,0.1,0.5,0.4,0.4
			c0.3,0,0.2-0.3,0.2-0.5c0.4-1.4,0.7-2.8,1.2-4.2c0.4-1.1,0.7-2.2,0.9-3.4c-0.1,0.1-0.2,0.2-0.2,0.2c-0.7,1.9-1.3,3.7-2,5.6
			c-0.1,0.1-0.1,0.3-0.2,0.3c-0.2,0-0.2-0.1-0.3-0.3c-0.4-0.7-0.7-1.4-1.1-2.2c-0.6-1.3-1.1-2.6-1.6-3.9c-0.2,0.4,0.2,0.8,0.1,1.2
			c-0.3-0.2-0.3-0.5-0.4-0.7c0-0.1,0-0.3-0.1-0.4c-0.1-0.2-0.2-0.4-0.2-0.6c0,0,0,0,0,0c0,0,0,0,0-0.1c0-0.1,0-0.2-0.1-0.3
			c0,0,0-0.1-0.1-0.1c-0.1-0.2-0.1-0.3-0.2-0.5c0.2-0.5-0.1-0.8-0.2-1.3c0.2-0.1,0.1-0.3,0.1-0.4c-0.3-0.5-0.3-1.2-0.6-1.8
			c-0.1-0.1,0-0.3,0.1-0.3c0.5,0.1,1-0.4,1.5,0.1c0.2,0.2,0.6,0.2,0.9,0.1c1.1-0.2,2.1-0.2,3.2,0c0.2,0,0.5,0.1,0.7,0
			c0.8-0.4,1.8-0.4,2.6-0.7c0.2-0.1,0.4-0.3,0.5,0c0.1,0.3-0.2,0.2-0.4,0.3c-0.4,0.2-0.9,0.5-0.8,1.1c0,0.3-0.2,0.6-0.4,0.9
			c-0.2,0.3-0.3,0.7-0.1,1.1C44.8,68.1,44.7,67.7,45,67.7z M37.8,65.8c0,0,0.1,0,0.1,0c0,0,0-0.1,0-0.1
			C37.9,65.7,37.9,65.7,37.8,65.8C37.8,65.7,37.8,65.7,37.8,65.8z"/>
		<path class="st3" d="M38.5,71.7c0.1-0.4-0.3-0.8-0.1-1.2c0.5,1.3,1.1,2.6,1.6,3.9c0.3,0.7,0.7,1.4,1.1,2.2
			c0.1,0.1,0.1,0.3,0.3,0.3c0.2,0,0.2-0.2,0.2-0.3c0.8-1.8,1.3-3.7,2-5.6c0,0,0.1-0.1,0.2-0.2c-0.1,1.3-0.5,2.4-0.9,3.4
			c-0.5,1.4-0.9,2.8-1.2,4.2c0,0.2,0.1,0.5-0.2,0.5c-0.3,0-0.3-0.3-0.4-0.4c-0.3-0.5-0.3-1.1-0.7-1.5c0,0,0-0.1,0-0.1
			c-0.1-0.7-0.3-1.3-0.6-1.9C39.3,73.8,39.1,72.7,38.5,71.7L38.5,71.7z"/>
		<path class="st4" d="M33.9,68.1c-0.1-0.6,0.4-0.8,0.6-1.3c0.5-0.1,0.5-0.7,0.9-0.9c0.6-0.5,1.1-0.4,1.3,0.4
			c0.1,0.5,0.3,0.9,0.3,1.5c-0.4-0.2-0.4-0.7-0.5-1c-0.4-1-0.4-1-1.1-0.2c-0.4,0.4-0.7,0.9-1.1,1.4C34.1,68,34.1,68.1,33.9,68.1z"/>
		<path class="st2" d="M38.5,71.8c0.6,1,0.8,2.1,1.2,3.1c0.2,0.6,0.5,1.2,0.6,1.9c-0.5-0.6-0.6-1.4-0.9-2.1
			C39.1,73.7,38.6,72.8,38.5,71.8z"/>
		<path class="st4" d="M37.2,67.7c0.1,0.4,0.4,0.8,0.2,1.3c-0.4-0.3-0.4-0.8-0.5-1.2C37.1,67.7,37.1,67.7,37.2,67.7z"/>
		<path class="st4" d="M33.5,68.5c-0.1-0.3,0.1-0.3,0.3-0.3C33.9,68.5,33.7,68.5,33.5,68.5z"/>
		<path class="st4" d="M38,70.6c0.1,0.1,0.1,0.2,0.1,0.4C38,70.9,38,70.8,38,70.6z"/>
		<path class="st4" d="M33.4,68.7C33.4,68.7,33.5,68.7,33.4,68.7C33.5,68.7,33.4,68.7,33.4,68.7z"/>
		<path class="st4" d="M37.7,69.9C37.8,69.9,37.8,69.9,37.7,69.9c0,0.1,0,0.1,0,0.1C37.7,70,37.7,69.9,37.7,69.9z"/>
		<path class="st4" d="M37.6,69.5C37.6,69.5,37.7,69.6,37.6,69.5C37.7,69.6,37.6,69.5,37.6,69.5z"/>
		<path class="st3" d="M21.3,37.1c0-0.3,0-0.6,0.1-0.9c0.2,0,0.2-0.1,0.2-0.2c0.1-0.3,0.1-0.7,0.2-1c0.3,0,0.3-0.2,0.3-0.5
			c0-0.6,0.4-1.1,0.6-1.7c0.1-0.2,0.2-0.5,0.3-0.7c0.2,0,0.2-0.1,0.2-0.2c0-0.1,0-0.2,0-0.3c0.2,0,0.2-0.1,0.2-0.2c0,0,0-0.1,0-0.1
			c0.3,0,0.2-0.2,0.2-0.3c1.2-1.8,2.4-3.4,4.1-4.7c1.7-1.3,3.6-2.5,5.7-3.3c1.8-0.6,3.5-0.9,5.4-1.1c3-0.3,5.9,0.3,8.7,1.4
			c3.3,1.4,6.1,3.6,8.2,6.7c0.5,0.7,0.9,1.5,1.4,2.2c0.2,0.7,0.4,1.4,0.9,2c0,0.1,0,0.2,0,0.3c0,0.2,0,0.4,0.2,0.4
			c0.1,0.3,0.2,0.5,0.3,0.8c-0.2,0.1-0.1,0.3,0,0.4c0.2,1,0.6,2.1,0.6,3.1c0.1,2.2,0.1,4.5-0.5,6.6c-0.2,0.7-0.6,1.3-0.5,2
			c0,0,0,0.1,0,0.1c-0.5,0.4-0.6,1-0.7,1.6c0,0,0,0.1,0,0.1c-0.2,0-0.3,0.1-0.4,0.3c-0.2,0.4-0.5,0.7-0.7,1.1c-0.3,0.7-1,1.2-1.2,2
			c-0.1,0-0.1,0.1-0.1,0.3c-0.8,0.3-1.2,1.1-1.8,1.6c-0.2,0.2-0.6,0.4-0.6,0.8l0,0c-0.1,0-0.3,0-0.4,0.1c-0.6,0.6-1.3,1-2.1,1.5
			c-0.2,0.1-0.5,0.2-0.5,0.6c-0.1,0-0.2,0-0.3,0c0,0-0.1,0-0.1,0c-1.1,0.4-2.1,1-3.2,1.3c-0.1,0-0.2,0.2-0.2,0.3c-0.1,0-0.2,0-0.3,0
			c-0.5-0.1-0.9-0.1-1.2,0.4c-0.1,0-0.3,0-0.4,0c-0.4,0-0.8,0-1.2,0c-2.3,0.4-4.6,0.2-6.8-0.2c-0.8-0.1-1.5-0.5-2.3-0.6
			c-0.1,0-0.2,0-0.3,0c0-0.1,0-0.2-0.2-0.2c-1.2-0.5-2.3-1-3.4-1.7c-0.1-0.1-0.2,0-0.3,0l0,0c-0.2-0.4-0.6-0.6-1-0.7
			c0,0-0.1,0-0.1,0c0-0.3-0.2-0.4-0.4-0.6c-0.9-0.8-1.7-1.6-2.5-2.5c-0.5-0.5-0.8-1.2-1.4-1.7c0,0,0-0.1,0-0.1
			c0-0.2-0.1-0.2-0.2-0.2c0,0,0-0.1,0-0.1c-0.2-0.5-0.3-1-0.8-1.3c0-0.1,0-0.2,0-0.4c0-0.3,0-0.5-0.4-0.5c0-0.1,0-0.2,0-0.3
			c0-0.3,0.1-0.6-0.3-0.6c0-0.1,0-0.2,0-0.3c0-0.3,0-0.6-0.4-0.7c0-0.1,0-0.2,0-0.3c0.2-0.1,0.1-0.3,0-0.4c-0.5-1.8-0.9-3.6-0.8-5.5
			c0-0.1,0-0.2-0.1-0.3c0-0.3,0-0.5,0-0.8c0.2-0.3,0.2-0.6,0.1-1c0-0.2,0-0.4,0-0.6c0.3-0.1,0.2-0.3,0.2-0.5c0-0.1,0-0.2,0-0.3
			C21.3,37.3,21.3,37.2,21.3,37.1z M27.7,28.6c-0.3,0.3-0.5,0.6-0.8,0.9c-0.6,0.4-0.8,1.2-1.2,1.8c-0.7,1-1.2,2.1-1.4,3.3
			c-0.5,1.1-0.5,2.3-0.2,3.5c0,0.2,0.1,0.2,0.2,0.2c0,0.2,0.1,0.4,0.2,0.5c0.1,0.3,0.1,0.6,0.4,0.9c0,0.3,0.2,0.5,0.5,0.5
			c0,0.1,0,0.2,0.2,0.3c0.6,1,1.6,1.4,2.7,1.7c0.9,0.3,1.8,0.2,2.7,0.3c2.5,0.4,5,0.3,7.4-0.2c1.4-0.3,2.8-0.7,4.3-1
			c1.2-0.3,2.3-0.8,3.5-0.9c1.4-0.1,2.4-1.1,3.6-1.7c1.7-0.9,2.3-2.6,2.7-4.3c0-0.1,0-0.2-0.1-0.3c0-0.1,0-0.3,0-0.4
			c0.2-0.2,0.2-0.5,0-0.7c0-0.1,0-0.2,0-0.3c0-0.1,0-0.2-0.1-0.2c0-0.1,0-0.3-0.1-0.4c0-0.5-0.1-1-0.6-1.2c-0.5-0.7-0.9-1.5-1.5-2
			c0-0.1-0.1-0.2-0.2-0.3c-0.2-0.4-0.4-0.7-0.9-0.9c-0.2-0.3-0.4-0.6-0.8-0.7c-0.1-0.4-0.4-0.5-0.7-0.6c-0.3-0.2-0.6-0.5-0.9-0.6
			c-2.3-1.4-4.7-2.1-7.3-2.2c-3-0.1-5.7,0.6-8.2,2.3c-0.8,0.5-1.6,0.9-2.1,1.7c0,0-0.1,0.1-0.1,0.1C28.2,27.8,27.8,28.1,27.7,28.6z"
			/>
		<path class="st4" d="M26.7,18.3c-0.2-1.2,0.2-2.1,1-2.8c1.1-1,3-0.7,3.8,0.4c0.5,0.6,1.1,1.3,1.8,1.6c1.2,0.6,2.1,0.3,2.5-1.1
			c0.3-0.9,0.7-1.7,1-2.5c0.4-0.9,2.3-1.4,3.3-1c1.1,0.4,1.4,1.3,1.9,2.2c0.2,0.5,0.5,1,0.7,1.4c0.7,1.1,1.6,1.2,2.6,0.4
			c0.4-0.3,0.8-0.7,1.1-1.2c0.8-1.1,2.1-1.7,3.1-1.3c1,0.3,2.1,1.4,2.1,2.8c0,0.7,0.1,1.4,0.1,2.1c0.1,0.9,0.9,1.8,2,1.4
			c0.8-0.3,1.7-0.5,2.4-0.9c0.6-0.3,1.3-0.5,2,0c0.2,0.1,0.4,0.1,0.7,0.1c0.6,0.2,1.3,1.6,1.3,2.2c0.1,1-0.4,1.8-0.7,2.6
			c-0.2,0.5-0.1,1-0.3,1.5c-0.2,0.4,0.8,1.1,1.5,1.1c0.7,0,1.3,0,2,0c1.7,0,2.8,0.9,3,2.4c0.1,0.7,0.2,1.8-0.7,2.4
			c-0.4,0.3-0.7,0.6-0.8,1c-0.1,0.4-0.4,0.7-0.6,0.9c-0.4,0.5-0.6,1.1-0.9,1.6c-0.6,0.9-1.6,1.4-2.4,2.1c-0.3,0.2-0.4,0-0.5-0.3
			c-0.4-1.6-0.8-3.2-1.5-4.7c-0.7-1.6-1.7-3-2.7-4.4c-1.1-1.4-2.4-2.6-3.9-3.7c-1.3-1-2.7-1.7-4.2-2.3c-0.7-0.3-1.4-0.6-2.3-0.6
			c-0.7,0-1.4-0.3-2.1-0.4c-1.8-0.3-3.6-0.3-5.5,0c-1.2,0.2-2.4,0.5-3.6,0.8c-0.7,0.2-1.4,0.5-2.1,0.9c-1.1,0.6-2.2,1.2-3.2,1.9
			c-1.9,1.4-3.5,3.1-4.8,5c-0.9,1.4-1.6,2.9-2.3,4.4c-0.8,1.7-1.1,3.5-1.1,5.4c0,0.7-0.3,1.4-0.2,2.2c0,0.1-0.1,0.3-0.2,0.2
			c-0.4-0.2-0.9-0.3-1-0.8c-0.1-0.4-0.2-0.7-0.4-1c-0.5-0.8-0.6-1.6-0.8-2.5c-0.1-0.6-0.4-1.1-0.6-1.7c0-0.1-0.2-0.3-0.1-0.4
			c0.2-0.9-0.2-1.7-0.2-2.6c0-0.6-0.1-1.1-0.2-1.7c-0.2-1.3,0.1-2.3,1.7-2.2c1,0,1.5-0.3,1.7-1.1c0.2-0.6,0.1-1.1-0.3-1.6
			c-0.1-0.2-0.3-0.3-0.2-0.5c0-0.7-0.3-1.2-0.5-1.8c-0.2-0.7-0.1-1.2,0.3-1.9c0.3-0.5,0.5-0.9,1-1.3c0.6-0.5,1.2-0.4,1.9-0.3
			c1,0.2,1.8,0.7,2.8,0.8c1,0.2,1.6-0.2,1.6-1.2c0-0.4,0.1-0.7,0.1-1C26.7,19,26.7,18.6,26.7,18.3z"/>
		<path class="st2" d="M47,66.2c-0.2-0.1-0.2-0.2-0.3-0.4c-0.1-0.6,0.5-1.3,1.1-1.4c0.6-0.1,1.1-0.3,1.6-0.4
			c0.3-0.1,0.5-0.1,0.6-0.4c0.1-0.2,0.3-0.3,0.5-0.3c0.9,0.2,1.5-0.5,2.2-0.8c0.2-0.1,0.3-0.2,0.5,0c0.1,0.1,0,0.3,0.2,0.2
			c0.2,0,0.2-0.2,0.2-0.3c0-0.3,0.1-0.7,0.1-1c0-0.2,0.1-0.3,0.3-0.3c0.2,0,0.3,0.2,0.2,0.4c-0.1,0.4-0.2,0.8,0.3,1
			c0,0.4,0.1,0.8,0.1,1.1c-0.2,0.2-0.3,0.4,0.1,0.5c0,0.1,0.1,0.2,0.1,0.3c0,1.2-0.1,2.4,0,3.6c0.1,1.7,0.1,3.4,0.2,5.2
			c0,0.1,0.1,0.3-0.1,0.4c-0.1,0-0.2-0.1-0.3-0.2c-1.3-1.1-2.5-2.3-3.8-3.5c-0.5-0.4-0.8-1-1.5-1.2c-0.6-0.7-1.2-1.4-1.7-2
			C47.6,66.5,47.4,66.2,47,66.2z"/>
		<path class="st2" d="M13.8,48.6c0-0.1,0.1-0.2,0.1-0.3c0.1,0,0.2,0,0.2,0c0.8,0.3,1-0.5,1.5-0.7c0.1-0.1,0.1-0.3,0.3-0.2
			c0.2,0.1,0,0.3,0,0.4c0,0.3,0.1,0.7,0.2,1c0.7,1.5,1.3,3,2,4.5c0.1,0.3,0.3,0.4,0.6,0.6c-0.8,0.2-0.5,0.4-0.1,0.6
			c0.2,0.1,0.5,0.2,0.4,0.5c-0.1,0.3-0.3,0.3-0.6,0.3c-0.4,0-0.9-0.1-1.3,0.3c-0.1,0-0.1,0-0.2,0c-0.3-0.2-0.5-0.2-0.8,0
			c-0.1,0-0.3,0.1-0.4,0.1c-2.6,0.1-5.2,0.3-7.8,0.2c-0.2,0-0.4,0.1-0.5-0.1c-0.1-0.2,0.1-0.3,0.2-0.4c1.9-2,3.8-4.1,5.7-6.1
			c0.1,0,0.3,0,0.1-0.2c0,0,0,0,0-0.1l0,0c0.1,0,0.1-0.1,0.2-0.1C13.7,48.8,13.8,48.7,13.8,48.6C13.8,48.7,13.8,48.6,13.8,48.6z"/>
		<path class="st2" d="M58.9,62.9c-0.4-0.2-0.8-0.4-1.2-0.5c0,0,0-0.1,0-0.1c-0.1-0.5-0.6-0.5-0.9-0.7c-0.3-0.2-1.1-0.1-0.5-0.9
			c0.1-0.1,0-0.1-0.1-0.2c-0.6-0.3-0.1-0.5,0.1-0.6c0.9-0.1,1.3-0.9,1.8-1.4c0.7-0.6,1.3-1.4,1.9-2c0.2-0.2,0.5-0.3,0.7-0.3
			c0.2-0.1,0.4-0.1,0.5-0.3c0.2-0.4,0.4-0.4,0.6,0c0.4,0.9,1.1,1.6,1.5,2.4c0.8,1.7,1.6,3.4,2.4,5.2c0.3,0.6,0.6,1.3,0.7,2
			c-0.2,0.1-0.3-0.1-0.5-0.2c-1.7-0.4-3.3-1.2-4.9-1.8C60.3,63.2,59.7,62.8,58.9,62.9z"/>
		<path class="st2" d="M64.5,53.9c-0.2-0.2-0.4-0.2-0.6-0.3c-0.8-0.1-1.3-0.8-2.1-0.9c-0.1,0-0.1-0.2-0.1-0.3c0-0.2,0.2-0.2,0.3-0.1
			c0.7,0.2,0.8-0.2,1.1-0.7c0.5-1,0.8-2,1.2-3c0.2-0.5,0.2-1,0.4-1.4c0.3-0.9,0.9-1,1.6-0.3c0.7,0.6,1.4,1,2.2,1.5
			c0,0,0.1,0.1,0.1,0.1l0,0c0.6,0.9,1.4,1.6,2.2,2.3c0.8,0.8,1.7,1.5,2.5,2.2c0.1,0.1,0.4,0.3,0.3,0.5c-0.1,0.2-0.4,0.3-0.6,0.2
			C70.2,53.5,67.4,53.9,64.5,53.9z"/>
		<path class="st2" d="M69,36.8c0.1,0,0.1,0,0.2,0c0.4,0.4,0.9,0.4,1.3,0.6c1.6,0.6,3.3,1.2,4.9,1.8c0.2,0.1,0.3,0.1,0.4,0.3
			c0,0.2-0.2,0.2-0.3,0.3c-1.8,0.9-3.6,1.8-5.5,2.4c-0.4,0.1-0.9,0.2-1.1,0.7c-0.5,0-1,0.3-1.5,0.3c-0.3,0-0.4-0.1-0.5-0.4
			c-0.3-0.8,0-1.7,0-2.5c0-0.5-0.1-1.1-0.1-1.6c0-0.2-0.1-0.4-0.1-0.5c0.1-0.4,0.3-0.7-0.4-0.8c-0.1,0-0.2-0.3-0.1-0.3
			c0.4-0.1,0.5-0.7,0.9-0.6c0.6,0.1,1.2,0,1.7,0.2C68.9,36.7,69,36.8,69,36.8z"/>
		<path class="st2" d="M11.2,45c-1.4-0.7-2.8-1-4.2-1.6c-1-0.4-2-0.8-3-1.1c0.2-0.5,0.7-0.5,1-0.7c1.8-0.9,3.7-1.7,5.6-2.5
			c0.1-0.1,0.2-0.1,0.4-0.2c1-0.5,2.3-0.4,3.2-1.1c0.1-0.1,0.3-0.1,0.4,0c0.1,0.2-0.1,0.3-0.2,0.4c-0.4,0.6-1.2,0.7-1.7,1.1
			c-0.7,0.6-1.2,2-0.9,2.9c0.4,1.2,1.3,2,2.2,2.8c0.2,0.2,0.5,0.3,0.3,0.5c-0.1,0.2-0.4,0.1-0.6,0C13,45.1,12.1,45.3,11.2,45z"/>
		<path class="st2" d="M68.6,30.9c-0.1,0.3-0.3,0.5-0.6,0.6c0-0.1-0.1-0.2-0.2-0.1c-0.1,0.1,0,0.2-0.1,0.3c-0.7,0.8-1.4,1.5-2.3,2.1
			c0-0.3,0.3-0.4,0.3-0.6c-0.2-0.1-0.3,0.1-0.4,0.1c-0.2,0.1-0.4,0-0.4-0.2c0-0.2,0-0.3,0.2-0.3c0.6,0,0.5-0.4,0.5-0.8
			c0-0.5,0.2-1,0.3-1.5c0.2-0.8-0.3-1.8-1-2.3c-0.9-0.8-2-0.8-3.2-0.8c-0.2,0-0.4,0.1-0.5-0.1c0-0.2,0.2-0.2,0.3-0.4
			c0.3-0.3,0.6-0.3,1-0.4c1-0.1,2-0.2,3-0.3c0.1,0,0.1,0,0.2,0c0.2,0,0.4,0,0.6,0c1.9-0.1,3.8-0.2,5.7-0.1c0.2,0,0.4-0.1,0.5,0.1
			c0.1,0.2-0.1,0.3-0.3,0.4c-0.8,0.9-1.6,1.8-2.4,2.6c-0.5,0.5-1,1-1.5,1.6C68.4,30.6,68.1,30.9,68.6,30.9z"/>
		<path class="st2" d="M43.1,14.8c0,0.1,0,0.2,0,0.2c-0.5,0-0.8-0.4-1-0.8c-1.3-2.6-4.3-2.5-5.6-0.6c-0.3,0.4-0.6,0.7-0.7,1.2
			c0,0.2-0.2,0.4-0.4,0.3c-0.2-0.1-0.2-0.3-0.1-0.4c0.3-0.3,0.2-0.8,0.3-1.1c0.1-0.8,0.4-1.5,0.6-2.3c0.3-0.1,0.3-0.3,0.3-0.5
			c0.2-0.6,0.4-1.1,0.6-1.7c0.5-1.3,1-2.6,1.5-3.9c0.1-0.2,0-0.4,0.3-0.4c0.2,0,0.2,0.2,0.3,0.3c0.7,1.3,1.3,2.7,1.9,4.1
			c0.3,0.6,0.5,1.3,1,1.9c0.4,1,0.6,2,0.9,3C42.8,14.4,42.9,14.7,43.1,14.8z"/>
		<path class="st3" d="M64.5,53.9c2.8,0,5.7-0.3,8.5-0.3c0.2,0,0.6,0,0.6-0.2c0.1-0.2-0.2-0.3-0.3-0.5c-0.8-0.8-1.7-1.5-2.5-2.2
			c-0.8-0.7-1.6-1.4-2.2-2.3c0.1,0,0.2,0,0.3,0c0,0,0.1,0,0.1,0.1c0,0.2,0.1,0.3,0.4,0.3c0.1,0.1,0.2,0.1,0.3,0.2
			c0,0.2,0.1,0.3,0.4,0.3l0,0c0.3,0.5,0.7,0.8,1.2,1c0.1,0.1,0.2,0.1,0.3,0.2c0,0.2,0.2,0.2,0.3,0.2c0,0,0.1,0.1,0.1,0.1
			c0,0.1,0.1,0.1,0.2,0.1l0,0c0,0.4,0.4,0.5,0.6,0.7c0.8,0.7,1.6,1.3,2.4,1.9c0.2,0.2,0.4,0.3,0.6,0.3c0,0,0.1,0,0.1,0.1
			c0,0.1,0,0.2,0.1,0.2c0.1,0.1,0.1,0.1,0.2,0.2c0,0.1,0,0.1-0.1,0.2c-0.1,0-0.2,0-0.2,0c-0.1-0.1-0.2-0.1-0.4,0
			c-1.2-0.1-2.3,0-3.5-0.1c-0.2-0.2-0.3-0.1-0.5,0c-1.5-0.1-3-0.1-4.5-0.2c-0.3-0.3-0.6-0.2-0.9-0.1c-0.5,0-1.1,0-1.6-0.1
			C64.5,53.9,64.5,53.9,64.5,53.9z"/>
		<path class="st3" d="M58.9,62.9c0.8-0.1,1.4,0.3,2.1,0.6c1.6,0.6,3.2,1.4,4.9,1.8c0.2,0,0.3,0.2,0.5,0.2c-0.1-0.7-0.4-1.4-0.7-2
			c-0.8-1.7-1.6-3.4-2.4-5.2c0.1,0,0.2,0,0.3,0l0,0c0,0.2,0.1,0.3,0.2,0.4c0.1,0.1,0.1,0.2,0.2,0.3c0,0,0,0.1,0.1,0.1
			c0.2,0.7,0.8,1.2,0.9,1.9c0,0,0.1,0.1,0.1,0.1c0.1,0.1,0.1,0.2,0.2,0.3c0,0.2,0,0.4,0.2,0.3c0,0,0,0.1,0.1,0.1
			c0,0.4,0.1,0.7,0.5,0.8c0.1,0.1,0.1,0.2,0.2,0.3c0,0.2-0.1,0.4,0.2,0.3l0,0c0,0.3,0,0.5,0.3,0.6c0,0,0,0.1,0.1,0.1
			c0.1,0.5,0.2,1,0.7,1.2c0,0,0,0.1,0.1,0.1c-0.1,0.4,0.2,0.7,0.4,1.1c0.2,0.3,0.1,0.5-0.2,0.6c-2.8-1.3-5.6-2.6-8.4-3.9
			C59.1,63,59,62.9,58.9,62.9z"/>
		<path class="st3" d="M69,42.9c0.2-0.4,0.7-0.5,1.1-0.7c1.9-0.7,3.7-1.6,5.5-2.4c0.2-0.1,0.3-0.1,0.3-0.3c0-0.2-0.2-0.2-0.4-0.3
			c-1.6-0.6-3.3-1.2-4.9-1.8c-0.4-0.2-1-0.2-1.3-0.6c0-0.1,0.1-0.1,0.2-0.2c0.1,0,0.2,0,0.3,0.1c0.3,0.3,0.7,0.3,1.1,0.4
			c2.2,0.7,4.5,1.3,6.7,2c0.2,0.1,0.5,0.1,0.5,0.4c0,0.3-0.3,0.3-0.5,0.4c-2.3,0.9-4.5,1.7-6.8,2.5C70.2,42.6,69.6,42.9,69,42.9z"/>
		<path class="st3" d="M41.9,11.2c-0.5-0.5-0.7-1.2-1-1.9c-0.6-1.4-1.2-2.8-1.9-4.1C39,5,38.9,4.8,38.7,4.8c-0.2,0-0.2,0.2-0.3,0.4
			c-0.5,1.3-1,2.6-1.5,3.9c-0.2,0.6-0.4,1.1-0.6,1.7c-0.1,0.2-0.1,0.4-0.3,0.5c0.6-2.7,1.5-5.3,2.2-8c0.1-0.2,0.1-0.5,0.4-0.5
			c0.3,0,0.3,0.3,0.4,0.5c0.8,2.2,1.6,4.4,2.4,6.6C41.7,10.3,41.8,10.7,41.9,11.2z"/>
		<path class="st2" d="M58,47.7c-0.1-0.7,0.3-1.4,0.5-2c0.6-2.2,0.7-4.4,0.5-6.6c-0.1-1.1-0.4-2.1-0.6-3.1c0-0.2-0.2-0.3,0-0.4
			c0.4,0.7,0.5,1.5,0.6,2.3c0.6,3.3,0.3,6.6-0.9,9.8C58.2,47.6,58.1,47.7,58,47.7z"/>
		<path class="st2" d="M33.6,59c0.8,0.1,1.5,0.4,2.3,0.6c2.3,0.4,4.5,0.7,6.8,0.2c0.4-0.1,0.8,0,1.2,0c-0.3,0.5-0.8,0.3-1.2,0.3
			c-1.2,0.2-2.4,0.2-3.5,0.1c-1.1,0-2.1-0.2-3.1-0.4c-0.7-0.1-1.3-0.3-2-0.5C33.8,59.3,33.6,59.3,33.6,59z"/>
		<path class="st2" d="M20.8,40.5c0.1,0.1,0.1,0.2,0.1,0.3c-0.1,1.9,0.3,3.7,0.8,5.5c0,0.1,0.2,0.3,0,0.4c-0.4-0.8-0.6-1.6-0.8-2.4
			c-0.2-1.1-0.4-2.1-0.3-3.3C20.6,40.8,20.5,40.5,20.8,40.5z"/>
		<path class="st2" d="M24,51.5c0.6,0.4,0.9,1.1,1.4,1.7c0.8,0.9,1.6,1.7,2.5,2.5c0.2,0.2,0.4,0.3,0.4,0.6c-0.3,0-0.6-0.3-0.8-0.5
			c-1.3-1.2-2.5-2.4-3.5-3.9C24,51.7,24,51.6,24,51.5z"/>
		<path class="st2" d="M55,53c0.2-0.8,0.9-1.3,1.2-2c0.2-0.4,0.5-0.7,0.7-1.1c0.1-0.2,0.2-0.3,0.4-0.3c0,0.3-0.2,0.6-0.4,0.8
			c-0.5,0.8-1,1.6-1.5,2.3C55.3,52.9,55.2,53,55,53z"/>
		<path class="st2" d="M29.5,57c0.1,0,0.2,0,0.3,0c1.1,0.7,2.2,1.2,3.4,1.7c0.1,0.1,0.2,0.1,0.2,0.2C31.9,58.6,30.6,58,29.5,57z"/>
		<path class="st4" d="M54.9,64.5c0-0.1-0.1-0.2-0.1-0.3c0-0.2,0.1-0.4-0.1-0.5c0-0.4-0.1-0.8-0.1-1.1c0-0.2,0-0.5,0-0.7
			c0-0.4,0-0.7,0.5-0.7c0.4,0,0.8,0,0.9,0.5c-1.1-0.4-1.3-0.2-1.1,1C54.9,63.2,54.9,63.9,54.9,64.5C55,64.5,54.9,64.5,54.9,64.5z"/>
		<path class="st2" d="M45.8,59.3c0-0.1,0-0.3,0.2-0.3c1.1-0.2,2.1-0.9,3.2-1.3c0,0,0.1,0,0.1,0c-0.5,0.7-1.4,0.9-2.2,1.2
			C46.7,59.1,46.3,59.4,45.8,59.3z"/>
		<path class="st2" d="M49.5,57.7c0-0.3,0.3-0.4,0.5-0.6c0.7-0.4,1.4-0.9,2.1-1.5c0.1-0.1,0.3-0.1,0.4-0.1c-0.6,0.7-1.3,1.2-2,1.6
			C50.1,57.4,50,57.8,49.5,57.7z"/>
		<path class="st2" d="M52.5,55.6c0-0.4,0.4-0.6,0.6-0.8c0.6-0.5,1-1.3,1.8-1.6c-0.1,0.5-0.5,0.7-0.8,1
			C53.6,54.7,53.2,55.3,52.5,55.6z"/>
		<path class="st2" d="M58,34.1c-0.5-0.6-0.7-1.3-0.9-2C57.6,32.7,58.1,33.3,58,34.1z"/>
		<path class="st2" d="M57.3,49.5c0.1-0.6,0.3-1.2,0.7-1.6C57.9,48.4,57.8,49,57.3,49.5z"/>
		<path class="st2" d="M44.3,59.7c0.3-0.4,0.8-0.4,1.2-0.4C45.2,59.8,44.7,59.7,44.3,59.7z"/>
		<path class="st2" d="M22.9,49.7c0.6,0.2,0.7,0.8,0.8,1.3C23.2,50.7,23.1,50.2,22.9,49.7z"/>
		<path class="st2" d="M21,38.7c0.1,0.3,0.1,0.7-0.1,1C20.6,39.5,20.6,39,21,38.7z"/>
		<path class="st2" d="M28.5,56.2c0.4,0.1,0.8,0.3,1,0.7C29,56.9,28.7,56.7,28.5,56.2z"/>
		<path class="st2" d="M26.2,20c0,0.1-0.1,0.3-0.2,0.2c-0.2,0-0.1-0.2-0.1-0.3c0-0.1,0-0.2,0.2-0.2C26.1,19.7,26.2,19.9,26.2,20z"/>
		<path class="st2" d="M21.7,47c0.4,0.1,0.4,0.4,0.4,0.7C21.7,47.6,21.8,47.3,21.7,47z"/>
		<path class="st2" d="M22.1,48c0.4,0,0.4,0.3,0.3,0.6C22.1,48.5,22.1,48.2,22.1,48z"/>
		<path class="st2" d="M22.5,48.9c0.3,0,0.4,0.2,0.4,0.5C22.5,49.3,22.5,49.1,22.5,48.9z"/>
		<path class="st2" d="M21.2,37.6c0,0.2,0.1,0.4-0.2,0.5C21,37.9,20.9,37.6,21.2,37.6z"/>
		<path class="st2" d="M22.1,34.4c0,0.2,0,0.4-0.3,0.5C21.8,34.7,21.8,34.5,22.1,34.4z"/>
		<path class="st2" d="M58.3,34.7c-0.3,0-0.2-0.2-0.2-0.4C58.3,34.3,58.3,34.5,58.3,34.7z"/>
		<path class="st4" d="M57.2,62.2c-0.2,0-0.4-0.1-0.5-0.2C57,62,57.2,61.9,57.2,62.2z"/>
		<path class="st2" d="M23.7,30.8c0,0.2,0,0.4-0.2,0.3C23.5,31,23.6,30.9,23.7,30.8z"/>
		<path class="st2" d="M23.7,51.1c0.2,0,0.2,0.1,0.2,0.2C23.8,51.3,23.7,51.2,23.7,51.1z"/>
		<path class="st2" d="M21.6,35.9c0,0.2,0,0.2-0.2,0.2C21.3,36,21.4,36,21.6,35.9z"/>
		<path class="st4" d="M56.7,62c-0.1,0-0.2-0.1-0.3-0.2C56.7,61.7,56.8,61.8,56.7,62z"/>
		<path class="st2" d="M23.4,31.3c0,0.2,0,0.2-0.2,0.2C23.2,31.4,23.3,31.3,23.4,31.3z"/>
		<path class="st2" d="M21.3,37.1c0,0.1,0,0.2-0.1,0.2C21,37.1,21.2,37.1,21.3,37.1z"/>
		<path class="st2" d="M23.2,31.8c0,0.2,0,0.2-0.2,0.2C23,31.9,23,31.8,23.2,31.8z"/>
		<path class="st4" d="M57.6,62.2c0,0,0,0.1,0,0.1c-0.1,0-0.3,0-0.4-0.1C57.4,62.2,57.5,62.2,57.6,62.2z"/>
		<path class="st2" d="M25,63.1c-0.1,0.1-0.2,0.1-0.3,0.1C24.7,63.1,24.8,63.1,25,63.1z"/>
		<path class="st2" d="M61.1,24.2c0,0.1,0,0.2-0.1,0.2C61.1,24.3,61.1,24.3,61.1,24.2z"/>
		<path class="st4" d="M56.1,61.7c-0.1,0-0.2,0-0.2-0.1C56,61.6,56.1,61.6,56.1,61.7z"/>
		<path class="st3" d="M69,36.8c0,0-0.1-0.1-0.1-0.1C68.9,36.7,69,36.8,69,36.8z"/>
		<path class="st3" d="M65.9,25.9c-0.1,0-0.1,0-0.2,0C65.8,25.8,65.9,25.9,65.9,25.9z"/>
		<path class="st2" d="M17.8,25.7c0,0-0.1-0.1-0.1-0.1C17.8,25.6,17.8,25.6,17.8,25.7z"/>
		<path class="st3" d="M68.7,48.3c0,0-0.1-0.1-0.1-0.1C68.6,48.3,68.6,48.3,68.7,48.3z"/>
		<path class="st3" d="M19,66.4c-0.3-0.1-0.5,0.1-0.8,0.2c-1.2,0.7-2.4,1.3-3.6,2c-0.1,0.1-0.2,0.2-0.3,0c-0.1-0.1,0-0.3,0-0.4
			c0.3-0.7,0.6-1.3,0.9-2c0.4-0.9,0.8-1.8,1.3-2.7c0.1-0.3,0.2-0.5,0.4-0.7c0.1,0.6-0.2,1.1-0.5,1.7c-0.3,0.8-0.6,1.5-0.8,2.4
			c0,0.1-0.1,0.3,0.1,0.3c0.1,0,0.3,0,0.4-0.1c1.3-0.6,2.6-1.1,3.8-1.8c0.1,0,0.1-0.1,0.3,0c-0.2,0.3-0.5,0.4-0.8,0.6
			C19.2,66,19,66,19,66.4L19,66.4z"/>
		<path class="st1" d="M18.8,58c0.1,0,0.3,0,0.2,0.2c0,0-0.1,0.1-0.1,0.1C18.9,58.2,18.9,58.1,18.8,58L18.8,58z"/>
		<path class="st3" d="M31,71.2c0,0.2,0,0.3,0,0.5l0,0c-0.2,0-0.3,0.1-0.5,0.2c-0.9,1.2-1.8,2.3-2.7,3.5c-0.3,0.3-0.6,0.9-0.9,0.8
			c-0.4-0.1-0.1-0.7-0.1-1.1c0-1.9,0.2-3.8,0.3-5.8c0.3,0.2,0.2,0.4,0.2,0.6c0,1.3-0.1,2.7,0.1,4c0,0.2-0.1,0.4,0.1,0.4
			c0.2,0.1,0.3-0.1,0.5-0.2c0.8-0.8,1.7-1.6,2.4-2.6C30.5,71.5,30.7,71.2,31,71.2L31,71.2z"/>
		<path class="st3" d="M27,68.8c-0.1-0.2-0.1-0.4,0-0.6C27.1,68.4,27.1,68.6,27,68.8z"/>
		<path class="st4" d="M32.6,69.8C32.6,69.8,32.6,69.8,32.6,69.8C32.6,69.8,32.6,69.8,32.6,69.8z"/>
		<path class="st3" d="M31,71.2C31,71.2,31,71.2,31,71.2C31,71.2,31,71.2,31,71.2L31,71.2z"/>
		<path class="st1" d="M16.1,55.5c0.3-0.2,0.5-0.2,0.8,0C16.6,55.5,16.3,55.5,16.1,55.5z"/>
		<path class="st1" d="M13.4,49.1c0.2,0.2,0,0.1-0.1,0.2C13.3,49.2,13.3,49.1,13.4,49.1l-0.1,0C13.4,49.1,13.4,49.1,13.4,49.1z"/>
		<path class="st3" d="M13.7,48.9c-0.1,0-0.1,0.1-0.2,0.1c0-0.2,0.1-0.2,0.2-0.2l0,0C13.7,48.8,13.7,48.8,13.7,48.9z"/>
		<path class="st3" d="M13.4,49.1c0,0-0.1,0-0.1,0C13.4,49.1,13.4,49,13.4,49.1C13.5,49,13.4,49,13.4,49.1z"/>
		<path class="st3" d="M13.8,48.6C13.8,48.6,13.8,48.7,13.8,48.6C13.8,48.7,13.8,48.7,13.8,48.6l-0.1,0.1
			C13.7,48.7,13.7,48.6,13.8,48.6z"/>
		<path class="st1" d="M8.8,44.5c0.1,0,0.3-0.1,0.3,0.1C9.1,44.6,8.9,44.6,8.8,44.5z"/>
		<path class="st1" d="M10,44.8c0,0,0.1,0,0.1,0.1C10,44.9,10,44.9,10,44.8z"/>
		<path class="st1" d="M10.3,44.9c0-0.1,0.1-0.1,0.1,0C10.4,44.9,10.4,45,10.3,44.9L10.3,44.9z"/>
		<path class="st3" d="M19.2,18c-0.8,0-1.4-0.4-2-0.6c-1-0.3-2.1-0.8-3.1-1.1c-0.1,0-0.3-0.2-0.4-0.1c-0.1,0.1,0,0.3,0,0.4
			c0.5,1,0.9,2.1,1.4,3.1c0.1,0.3,0.3,0.6,0.3,1.1c-0.8-1.2-1.3-2.4-2-3.5c-0.4-0.7-0.8-1.4-1.1-2.1c-0.1-0.1-0.2-0.2-0.1-0.3
			c0.1-0.1,0.2,0,0.3,0c2.1,1,4.2,1.9,6.4,2.9C19,17.9,19.1,17.9,19.2,18z"/>
		<path class="st4" d="M22.5,19.2c0,0,0.1,0.1,0.1,0.1C22.5,19.3,22.5,19.2,22.5,19.2z"/>
		<path class="st4" d="M24,5.7c-0.1,0-0.1-0.1,0-0.2c0.1-0.1,0.2,0,0.2,0.1C24.1,5.7,24,5.7,24,5.7z"/>
		<path class="st1" d="M31.4,13.4c0,0,0.1,0.1,0.1,0.1C31.4,13.5,31.4,13.5,31.4,13.4z"/>
		<path class="st1" d="M31,13c0,0,0.1,0.1,0.1,0.1C31.1,13.1,31,13.1,31,13z"/>
		<path class="st2" d="M24.6,11.8c-0.2-0.2-0.2-0.4-0.2-0.6c0-0.6-0.1-1.3-0.1-1.9c0.4,0.3,0.1,0.7,0.2,1
			C24.7,10.8,24.7,11.3,24.6,11.8z"/>
		<path class="st4" d="M24.7,12.9c-0.2,0-0.2-0.2-0.1-0.3C24.7,12.7,24.8,12.8,24.7,12.9z"/>
		<path class="st3" d="M62.4,14.6c0.7-0.2,1.5-0.5,2-1.1c0.1,0,0.2-0.1,0.3-0.1c0.3,0.1,0.6-0.2,0.8-0.3c0.2-0.1,0.3-0.2,0.5,0
			c0.2,0.1,0.1,0.3,0,0.4c-0.6,1-0.9,2.2-1.5,3.2c-0.3,0.6-0.6,1.2-0.8,1.8c-0.1,0.4-0.5,0.6-0.5,1.1c0,0.1-0.1,0.2-0.2,0.2
			c-0.2-0.1-0.1-0.2-0.1-0.3c0.5-1.2,0.9-2.4,1.4-3.6c0.1-0.3,0.1-0.5,0.2-0.8c0.2-0.5-0.2-0.5-0.4-0.4c-1.2,0.5-2.4,1.1-3.6,1.7
			c-0.8,0.4-1.6,0.7-2.3,1c0,0,0-0.1-0.1-0.1c0.7-0.4,1.4-0.7,2.1-1.1C60.8,15.6,61.7,15.2,62.4,14.6z"/>
		<path class="st4" d="M68.4,25.3c0.2-0.2,0.4-0.2,0.6,0C68.8,25.5,68.6,25.5,68.4,25.3z"/>
		<path class="st4" d="M69.7,25.2c0.2-0.3,0.4-0.2,0.7-0.1C70.1,25.4,69.9,25.3,69.7,25.2z"/>
		<path class="st1" d="M74.5,25.6c0,0.2-0.1,0.2-0.3,0.3C74.2,25.6,74.3,25.6,74.5,25.6z"/>
		<path class="st2" d="M69.7,30c0,0.1,0,0.1,0,0.2c-0.1,0-0.1,0-0.2,0C69.5,30,69.6,29.9,69.7,30z"/>
		<path class="st1" d="M74.9,25.2c0,0.1,0,0.1,0,0.2c-0.1,0-0.1,0-0.2,0C74.7,25.3,74.7,25.2,74.9,25.2z"/>
		<path class="st4" d="M70.7,25.1c0.1,0,0.2,0,0.4,0C70.9,25.2,70.8,25.2,70.7,25.1z"/>
		<path class="st4" d="M72.2,27.8c0,0-0.1,0.1-0.1,0.1C72,27.8,72,27.7,72.2,27.8z"/>
		<path class="st4" d="M72.6,27.3c0,0-0.1,0.1-0.1,0.1C72.4,27.3,72.6,27.3,72.6,27.3z"/>
		<path class="st1" d="M74,26.1C74,26.1,74,26.2,74,26.1C73.9,26.1,74,26.1,74,26.1z"/>
		<path class="st3" d="M67.8,31.7c0-0.1,0-0.2,0.1-0.3c0.1-0.1,0.1,0,0.2,0.1C68,31.6,67.9,31.7,67.8,31.7z"/>
		<path class="st3" d="M54.9,64.5C54.9,64.5,55,64.5,54.9,64.5c0.1,0.4,0.2,0.8,0.2,1.2c-0.2,0.2,0,0.2,0.1,0.3
			c0.2,3.3,0.7,6.6,1,9.9c-0.1,0-0.2,0-0.3,0c-1.2-1.3-2.4-2.6-3.7-3.9c-0.2-0.2-0.4-0.4-0.5-0.7c0-0.4-0.2-0.6-0.6-0.6
			c-0.5-0.6-1.2-1.1-1.6-1.8c0-0.1,0-0.2,0-0.3c0.6,0.3,1,0.8,1.5,1.2c1.2,1.2,2.5,2.4,3.8,3.5c0.1,0.1,0.2,0.2,0.3,0.2
			c0.2,0,0.1-0.2,0.1-0.4c-0.1-1.7-0.1-3.4-0.2-5.2C54.8,66.9,54.9,65.7,54.9,64.5z"/>
		<path class="st1" d="M49.5,68.7c0,0.1,0,0.2,0,0.3c-0.6-0.4-1-1-1.5-1.5c-0.3-0.4-0.8-0.7-1-1.2c0.4-0.1,0.6,0.2,0.8,0.4
			C48.3,67.3,48.9,68,49.5,68.7z"/>
		<path class="st1" d="M67.7,67c0.4-0.1,0.4-0.3,0.2-0.6c-0.2-0.3-0.5-0.6-0.4-1.1c0.4,0.4,0.6,1,0.9,1.5c0.1,0.1,0.1,0.3-0.1,0.3
			C68,67.3,67.8,67.2,67.7,67z"/>
		<path class="st1" d="M67.4,65.2c-0.5-0.3-0.6-0.8-0.7-1.2C67.1,64.3,67.3,64.7,67.4,65.2z"/>
		<path class="st1" d="M66.1,54c0.3,0,0.6-0.2,0.9,0.1C66.7,54.2,66.4,54.4,66.1,54z"/>
		<path class="st1" d="M65.9,62.5c-0.4-0.2-0.4-0.5-0.5-0.8C65.8,61.9,65.9,62.2,65.9,62.5z"/>
		<path class="st1" d="M51.1,70.8c0.4,0,0.6,0.2,0.6,0.6C51.4,71.3,51.2,71.1,51.1,70.8z"/>
		<path class="st1" d="M66.6,63.8c-0.3-0.1-0.4-0.3-0.3-0.6C66.5,63.4,66.7,63.6,66.6,63.8z"/>
		<path class="st1" d="M66.3,63.2c-0.3,0-0.3-0.2-0.2-0.3C66.3,62.9,66.3,63,66.3,63.2z"/>
		<path class="st1" d="M65.4,61.6c-0.3,0-0.2-0.2-0.2-0.3C65.4,61.2,65.4,61.4,65.4,61.6z"/>
		<path class="st4" d="M75.5,54.4c0.1-0.1,0.3-0.1,0.4,0C75.8,54.7,75.6,54.6,75.5,54.4z"/>
		<path class="st1" d="M63.7,58.6c-0.1-0.1-0.2-0.2-0.2-0.4C63.8,58.3,63.8,58.4,63.7,58.6z"/>
		<path class="st4" d="M55.9,76c0.1,0,0.2,0,0.3,0c0,0.1,0.1,0.2-0.1,0.2C56,76.2,55.9,76.1,55.9,76z"/>
		<path class="st4" d="M55.2,66c-0.1-0.1-0.2-0.1-0.1-0.3C55.3,65.8,55.3,65.9,55.2,66z"/>
		<path class="st4" d="M71.5,54.3c0.2-0.1,0.3-0.1,0.5,0C71.9,54.3,71.7,54.3,71.5,54.3z"/>
		<path class="st4" d="M76.1,54.4c0-0.1,0-0.1,0.1-0.2c0.1,0,0.2,0,0.2,0.1C76.3,54.5,76.2,54.4,76.1,54.4z"/>
		<path class="st1" d="M76,54.1c-0.1,0-0.1-0.1-0.1-0.2C76,53.9,76,54,76,54.1z"/>
		<path class="st1" d="M64,59C63.9,58.9,63.9,58.9,64,59C63.9,58.9,64,58.9,64,59z"/>
		<path class="st1" d="M65,61C65,60.9,64.9,60.9,65,61C64.9,60.9,65,60.9,65,61z"/>
		<path class="st1" d="M71.3,50.2c-0.5-0.2-0.9-0.5-1.2-1C70.6,49.4,71,49.7,71.3,50.2z"/>
		<path class="st1" d="M69.4,48.7c-0.2,0-0.3-0.1-0.4-0.3C69.3,48.4,69.4,48.5,69.4,48.7z"/>
		<path class="st1" d="M70,49.2c-0.2,0-0.3-0.1-0.4-0.3C69.9,48.8,70,49,70,49.2z"/>
		<path class="st1" d="M71.9,50.6c-0.2,0-0.3,0-0.3-0.2C71.7,50.4,71.8,50.4,71.9,50.6z"/>
		<path class="st1" d="M72.1,50.8c-0.1,0-0.2,0-0.2-0.1C72,50.7,72.1,50.7,72.1,50.8z"/>
		<path class="st1" d="M37.8,65.8C37.8,65.7,37.8,65.7,37.8,65.8c0.1-0.1,0.1-0.1,0.1-0.1c0,0,0,0.1,0,0.1
			C37.9,65.8,37.8,65.8,37.8,65.8z"/>
		<path class="st0" d="M28.7,27.5c0.5-0.8,1.4-1.2,2.1-1.7c2.5-1.6,5.3-2.3,8.2-2.3c2.6,0.1,5.1,0.8,7.3,2.2
			c0.3,0.2,0.6,0.4,0.9,0.6c0,0.4,0.3,0.5,0.7,0.6c0.4,0.1,0.6,0.4,0.8,0.7c0.1,0.5,0.4,0.8,0.9,0.9c0.1,0.1,0.2,0.1,0.2,0.3
			c0,0.3,0.1,0.5,0.2,0.7c0.1,0.2,0.3,0.5,0.4,0.7c0.1,0.4-0.1,0.7-0.5,0.6c-1-0.4-1.9,0-2.9,0.1c-1.9,0.3-3.8,0.8-5.7,1
			c-1.7,0.2-3.4,0.7-5.2,0.9C34.8,33,33.4,33.6,32,34c-1,0.3-2.1,0.5-3.1,0.9c-1,0.4-2.1,0.4-3.1,0.7c-0.4,0.1-0.8,0.1-1.2,0
			c-0.3-0.1-0.1-0.5-0.2-0.8c0-0.1-0.1-0.1-0.1-0.1c0.2-1.2,0.7-2.3,1.4-3.3c0.4-0.6,0.6-1.4,1.2-1.8c0.1,1,0.2,1.2,1.2,0.9
			c0.7-0.2,1.4-0.4,2.1-0.3c0.2,0,0.3,0,0.5-0.1c1-0.4,2.1-0.7,3.2-0.8c2.4-0.3,4.7-1,7-1.5c1.6-0.3,3.3-0.7,4.9-1.2
			c0.1,0,0.3,0,0.3-0.2c0-0.2-0.1-0.2-0.2-0.3c-1.4-0.8-2.8-1.4-4.4-1.7c-1.6-0.3-3.1-0.4-4.7-0.2c-2.6,0.3-4.8,1.5-6.9,2.8
			C29.4,27.1,29.2,27.5,28.7,27.5z"/>
		<path class="st4" d="M24.3,34.6c0,0,0.1,0.1,0.1,0.1c0.1,0.3-0.1,0.7,0.2,0.8c0.4,0.1,0.8,0.1,1.2,0c1-0.2,2.2-0.3,3.1-0.7
			c1-0.4,2.1-0.6,3.1-0.9c1.4-0.4,2.8-1,4.2-1.2c1.7-0.2,3.4-0.7,5.2-0.9c1.9-0.2,3.8-0.8,5.7-1c0.9-0.1,1.9-0.5,2.9-0.1
			c0.4,0.2,0.6-0.1,0.5-0.6c-0.1-0.3-0.2-0.5-0.4-0.7c-0.1-0.2-0.3-0.4-0.2-0.7c0.7,0.5,1,1.3,1.5,2c0,0.4,0.4,0.8,0.4,1.2
			c0,0.1,0,0.2,0,0.3c0,0.4,0,0.8-0.6,0.6c-0.1,0-0.1,0-0.2,0c-0.9,0.5-1.8,0.6-2.8,0.7c-0.8,0.2-1.5,0.6-2.4,0.7
			c-1.2,0.2-2.5,0.3-3.6,0.7c-1.7,0.6-3.4,0.6-5.1,1.1c-1,0.3-2.2,0.4-3.2,0.6c-0.7,0.2-1.2,0.6-1.9,0.8c-1.4,0.3-2.8,0.5-4.1,0.9
			c-0.3,0.1-0.6,0-0.8,0.1c-0.9,0.6-1.8,0.5-2.6,0c-0.1-0.2-0.2-0.3-0.2-0.5c0-0.2-0.1-0.2-0.2-0.2C23.9,36.9,23.9,35.7,24.3,34.6z"
			/>
		<path class="st2" d="M52.3,34.1c0.1,0.1,0.1,0.2,0.1,0.3c-0.4,1.8-1,3.5-2.7,4.3c-1.2,0.6-2.2,1.7-3.6,1.7
			c-1.3,0.1-2.4,0.6-3.5,0.9c-1.4,0.3-2.8,0.7-4.3,1c-2.5,0.5-4.9,0.6-7.4,0.2c-0.9-0.1-1.8,0-2.7-0.3c-1-0.4-2-0.8-2.7-1.7
			c0.6,0.2,1.1,0.6,1.8,0.5c1.5-0.4,3-0.3,4.5-0.8c1.1-0.4,2.3-0.5,3.5-0.7c1.8-0.4,3.4-1.1,5.3-1.3c0.4,0,0.8,0,1.2-0.1
			c1.3-0.3,2.5-0.7,3.8-0.9c1.5-0.3,3-0.4,4.5-0.9C51.2,35.8,52.1,35.3,52.3,34.1z"/>
		<path class="st1" d="M52.3,34.1c-0.2,1.3-1,1.7-2.2,2.1c-1.5,0.5-3,0.6-4.5,0.9c-1.3,0.3-2.5,0.7-3.8,0.9
			c-0.4,0.1-0.8,0.1-1.2,0.1c-1.8,0.1-3.5,0.8-5.3,1.3c-1.2,0.3-2.4,0.4-3.5,0.7c-1.5,0.5-3,0.4-4.5,0.8c-0.7,0.2-1.2-0.2-1.8-0.5
			c-0.1-0.1-0.1-0.2-0.2-0.3c0-0.3-0.2-0.4-0.5-0.5c-0.3-0.2-0.3-0.6-0.4-0.9c0.9,0.5,1.8,0.5,2.6,0c0.2-0.1,0.5-0.1,0.8-0.1
			c1.4-0.4,2.8-0.6,4.1-0.9c0.7-0.2,1.2-0.6,1.9-0.8c1.1-0.3,2.2-0.3,3.2-0.6c1.7-0.6,3.4-0.5,5.1-1.1c1.2-0.4,2.4-0.5,3.6-0.7
			c0.8-0.2,1.5-0.6,2.4-0.7c0.9-0.2,1.9-0.3,2.8-0.7c0.1,0,0.1,0,0.2,0c0.6,0.2,0.6-0.2,0.6-0.6c0-0.1,0-0.2,0-0.3
			c0.1,0,0.1,0,0.2,0c0.1,0.1,0.1,0.2,0.1,0.4c-0.2,0.2,0,0.2,0.1,0.2c0,0.1,0,0.2,0,0.3c-0.2,0.2-0.2,0.5,0,0.7
			C52.3,33.8,52.3,33.9,52.3,34.1z"/>
		<path class="st5" d="M28.7,27.5c0.5,0,0.8-0.5,1.1-0.7c2.2-1.3,4.4-2.5,6.9-2.8c1.6-0.2,3.1-0.1,4.7,0.2c1.6,0.3,3,0.9,4.4,1.7
			c0.1,0.1,0.3,0.1,0.2,0.3c0,0.2-0.2,0.2-0.3,0.2c-1.6,0.4-3.2,0.8-4.9,1.2c-2.4,0.4-4.6,1.2-7,1.5c-1.1,0.1-2.1,0.4-3.2,0.8
			c-0.1,0.1-0.3,0.1-0.5,0.1c-0.7-0.1-1.4,0.1-2.1,0.3c-1,0.3-1.2,0.2-1.2-0.9c0.3-0.3,0.5-0.6,0.8-0.9c0.4-0.2,0.8-0.4,0.8-0.9
			C28.6,27.6,28.6,27.6,28.7,27.5z"/>
		<path class="st2" d="M52,32.1c-0.1,0-0.1,0-0.2,0c0.1-0.5-0.3-0.8-0.4-1.2C51.9,31.1,52,31.6,52,32.1z"/>
		<path class="st4" d="M49.6,28.5c-0.5-0.1-0.8-0.4-0.9-0.9C49.2,27.8,49.5,28.2,49.6,28.5z"/>
		<path class="st0" d="M28.6,27.6c0,0.5-0.4,0.8-0.8,0.9C27.8,28.1,28.2,27.8,28.6,27.6z"/>
		<path class="st4" d="M47.9,27c-0.4,0-0.6-0.2-0.7-0.6C47.6,26.5,47.9,26.6,47.9,27z"/>
		<path class="st2" d="M52.3,33.7c-0.2-0.2-0.2-0.5,0-0.7C52.5,33.2,52.4,33.4,52.3,33.7z"/>
		<path class="st2" d="M24.9,39.7c0.3,0,0.4,0.2,0.5,0.5C25.1,40.2,24.9,40,24.9,39.7z"/>
		<path class="st1" d="M24.1,38.1c0.2,0,0.2,0.1,0.2,0.2C24.2,38.3,24.1,38.2,24.1,38.1z"/>
		<path class="st2" d="M52.2,32.7c-0.2,0-0.3-0.1-0.1-0.2C52.2,32.5,52.3,32.6,52.2,32.7z"/>
		<path class="st1" d="M54.7,63.7c0.2,0.1,0.1,0.3,0.1,0.5C54.4,64.1,54.5,63.9,54.7,63.7z"/>
		<path class="st1" d="M13.7,48.7c0,0,0.1,0,0.1,0c0,0.1-0.1,0.1-0.1,0.2C13.7,48.8,13.7,48.8,13.7,48.7z"/>
	</g>
</g>
</svg>
