<?xml version="1.0" encoding="utf-8"?>
<!-- Generator: Adobe Illustrator 19.2.0, SVG Export Plug-In . SVG Version: 6.00 Build 0)  -->
<svg version="1.1" id="Layer_1" xmlns="http://www.w3.org/2000/svg" xmlns:xlink="http://www.w3.org/1999/xlink" x="0px" y="0px"
	 viewBox="0 0 2481 2073" style="enable-background:new 0 0 2481 2073;" xml:space="preserve">
<style type="text/css">
	.st0{fill:none;stroke:#2C3E50;stroke-width:50;stroke-miterlimit:10;}
	.st1{fill:none;stroke:#2C3E50;stroke-width:31;stroke-miterlimit:10;}
</style>
<title>google-pin</title>
<title>Layer 1</title>
<path class="st0" d="M1339.5,570.8c-136.3,0-256.9,52.3-330.1,132.4c-179.1,25.6-312.6,125.2-312.6,244.1
	c0,138.4,180.7,250.5,403.5,250.5c44,0,86.3-4.4,126-12.5c35.9,8.1,73.9,12.5,113.2,12.5c223.3,0,404.4-140.4,404.4-313.5
	S1562.8,570.8,1339.5,570.8z"/>
<path class="st1" d="M807.7,1188.2l-2.6-1.5c-5.7-3.3-13.1-1.3-16.4,4.4L662.9,1409c-3.3,5.7-1.3,13.1,4.4,16.4l2.6,1.5
	c5.7,3.3,13.1,1.3,16.4-4.4l125.8-217.9C815.4,1198.8,813.4,1191.5,807.7,1188.2z"/>
<path class="st1" d="M1290.5,1345.7l-2.6-1.5c-5.7-3.3-13.1-1.3-16.4,4.4l-125.8,217.9c-3.3,5.7-1.3,13.1,4.4,16.4l2.6,1.5
	c5.7,3.3,13.1,1.3,16.4-4.4l125.8-217.9C1298.2,1356.3,1296.2,1349,1290.5,1345.7z"/>
<path class="st1" d="M1544,1252.3l-2.6-1.5c-5.7-3.3-13.1-1.3-16.4,4.4l-125.8,217.9c-3.3,5.7-1.3,13.1,4.4,16.4l2.6,1.5
	c5.7,3.3,13.1,1.3,16.4-4.4l125.8-217.9C1551.7,1263,1549.8,1255.6,1544,1252.3z"/>
<path class="st1" d="M1136.4,1270.8l-2.6-1.5c-5.7-3.3-13.1-1.3-16.4,4.4l-125.8,217.9c-3.3,5.7-1.3,13.1,4.4,16.4l2.6,1.5
	c5.7,3.3,13.1,1.3,16.4-4.4l125.8-217.9C1144.1,1281.5,1142.1,1274.1,1136.4,1270.8z"/>
<path class="st1" d="M896.9,1309.9l-2.6-1.5c-5.7-3.3-13.1-1.3-16.4,4.4l-125.8,217.9c-3.3,5.7-1.3,13.1,4.4,16.4l2.6,1.5
	c5.7,3.3,13.1,1.3,16.4-4.4l125.8-217.9C904.6,1320.5,902.6,1313.2,896.9,1309.9z"/>
</svg>
