<?xml version="1.0" encoding="utf-8"?>
<!-- Generator: Adobe Illustrator 19.2.0, SVG Export Plug-In . SVG Version: 6.00 Build 0)  -->
<svg version="1.1" id="Layer_1" xmlns="http://www.w3.org/2000/svg" xmlns:xlink="http://www.w3.org/1999/xlink" x="0px" y="0px"
	 viewBox="0 0 2481 2073" style="enable-background:new 0 0 2481 2073;" xml:space="preserve">
<style type="text/css">
	.st0{fill:#A0A0A0;}
	.st1{fill:#C5C5C5;}
	.st2{fill:#ADADAD;}
	.st3{fill:#B4B4B4;}
	.st4{fill:#BABABA;}
	.st5{fill:#BFBFBF;}
	.st6{fill:#A8A8A8;}
	.st7{fill:#A4A4A4;}
	.st8{fill:#2C3E50;}
	.st9{fill:none;stroke:#2C3E50;stroke-width:50;stroke-miterlimit:10;}
</style>
<title>google-pin</title>
<title>Layer 1</title>
<g>
	<path class="st0" d="M1142.7,1183c-0.2-1-0.3-2.1-0.5-3.1c14.5,0,29.1,0,43.6,0c0.9,1.7,0.5,3.1-1.4,4.1
		C1170.5,1187.3,1156.5,1188.7,1142.7,1183z"/>
	<path class="st1" d="M1382.2,1179.9c-0.1,1-0.1,1.9-0.2,2.9c-10.7,4.8-21.7,4.8-32.8,1.2c-1.8-1.1-2.2-2.4-1.3-4.1
		C1359.3,1179.9,1370.8,1179.9,1382.2,1179.9z"/>
	<path class="st2" d="M1229.5,1179.9c10.4,0,20.8,0,31.2,0c1,1.6,0.6,2.9-1,4c-9.7,3.4-19.4,3.4-29.1,0
		C1228.9,1182.8,1228.5,1181.5,1229.5,1179.9z"/>
	<path class="st3" d="M1260.7,1182.1c0-0.7,0-1.5,0-2.2c10.4,0,20.8,0,31.2,0c0.9,1.7,0.5,3.1-1.3,4.1
		C1280.2,1186.9,1270.1,1188.7,1260.7,1182.1z"/>
	<path class="st4" d="M1291.9,1182.1c0-0.7,0-1.5,0-2.2c9.3,0,18.7,0,28,0c1,1.7,0.5,3-1.3,4.1
		C1309.3,1186.9,1300.2,1188.3,1291.9,1182.1z"/>
	<path class="st5" d="M1319.9,1182.1c0-0.7,0-1.5,0-2.2c9.3,0,18.7,0,28,0c0,0.7,0,1.5,0,2.2
		C1338.6,1188.3,1329.2,1188.3,1319.9,1182.1z"/>
	<path class="st6" d="M1229.5,1179.9c0,0.7,0,1.5,0,2.2c-7.3,5.9-15.4,4.6-23.7,1.9c-1.8-1.1-2.2-2.4-1.2-4.1
		C1212.9,1179.9,1221.2,1179.9,1229.5,1179.9z"/>
	<path class="st7" d="M1204.6,1179.9c0,0.7,0,1.5,0,2.2c-6.2,4.9-12.5,4.9-18.7,0c0-0.7,0-1.5,0-2.2
		C1192.1,1179.9,1198.4,1179.9,1204.6,1179.9z"/>
	<path class="st8" d="M1185.9,1182.1c6.2,0,12.5,0,18.7,0c8.3,0,16.6,0,24.9,0c10.4,0,20.8,0,31.2,0c10.4,0,20.8,0,31.2,0
		c9.3,0,18.7,0,28,0c9.3,0,18.7,0,28,0c11.4,0.2,22.7,0.5,34.1,0.7c-30.7,37.1-61.3,74.2-92.1,111.2c-20,24-40.1,47.9-61.3,73.2
		c50,0,97.9,0,145.9,0c1.8,5.8-3.5,7.6-6.2,10.1c-111.1,104.9-222.4,209.7-333.7,314.6c-3.1,2.9-5.4,6.6-10.8,7
		c6.2-17.7,17.1-33.7,26.1-50.4c29.4-54.2,59.4-108.2,89.1-162.3c2.1-3.9,4-7.9,6.4-12.7c-46.4,0-91.4,0-139.2,0
		c45.9-97.7,91.2-194.1,136.5-290.5C1157.1,1182.7,1171.5,1182.4,1185.9,1182.1z"/>
</g>
<path class="st9" d="M1339.5,570.8c-136.3,0-256.9,52.3-330.1,132.4c-179.1,25.6-312.6,125.2-312.6,244.1
	c0,138.4,180.7,250.5,403.5,250.5c44,0,86.3-4.4,126-12.5c35.9,8.1,73.9,12.5,113.2,12.5c223.3,0,404.4-140.4,404.4-313.5
	S1562.8,570.8,1339.5,570.8z"/>
</svg>
