<?xml version="1.0" encoding="utf-8"?>
<!-- Generator: Adobe Illustrator 19.2.0, SVG Export Plug-In . SVG Version: 6.00 Build 0)  -->
<svg version="1.1" id="Layer_1" xmlns="http://www.w3.org/2000/svg" xmlns:xlink="http://www.w3.org/1999/xlink" x="0px" y="0px"
	 viewBox="0 0 2481 2073" style="enable-background:new 0 0 2481 2073;" xml:space="preserve">
<style type="text/css">
	.st0{fill:none;stroke:#2C3E50;stroke-width:31;stroke-miterlimit:10;}
</style>
<title>google-pin</title>
<title>Layer 1</title>
<path class="st0" d="M1853,659H657c-6.6,0-12,5.4-12,12v2c0,6.6,5.4,12,12,12h1196c6.6,0,12-5.4,12-12v-2
	C1865,664.4,1859.6,659,1853,659z"/>
<title>google-pin</title>
<title>Layer 1</title>
<path class="st0" d="M1931,787.3H735c-6.6,0-12,5.4-12,12v2c0,6.6,5.4,12,12,12h1196c6.6,0,12-5.4,12-12v-2
	C1943,792.7,1937.6,787.3,1931,787.3z"/>
<title>google-pin</title>
<title>Layer 1</title>
<path class="st0" d="M1723,902.5H527c-6.6,0-12,5.4-12,12v2c0,6.6,5.4,12,12,12h1196c6.6,0,12-5.4,12-12v-2
	C1735,907.9,1729.6,902.5,1723,902.5z"/>
<title>google-pin</title>
<title>Layer 1</title>
<path class="st0" d="M2003,1023.5H807c-6.6,0-12,5.4-12,12v2c0,6.6,5.4,12,12,12h1196c6.6,0,12-5.4,12-12v-2
	C2015,1028.9,2009.6,1023.5,2003,1023.5z"/>
<title>google-pin</title>
<title>Layer 1</title>
<path class="st0" d="M1755,1139H559c-6.6,0-12,5.4-12,12v2c0,6.6,5.4,12,12,12h1196c6.6,0,12-5.4,12-12v-2
	C1767,1144.4,1761.6,1139,1755,1139z"/>
<title>google-pin</title>
<title>Layer 1</title>
<path class="st0" d="M1975,1253.5H779c-6.6,0-12,5.4-12,12v2c0,6.6,5.4,12,12,12h1196c6.6,0,12-5.4,12-12v-2
	C1987,1258.9,1981.6,1253.5,1975,1253.5z"/>
</svg>
