<?xml version="1.0" encoding="utf-8"?>
<!-- Generator: Adobe Illustrator 19.2.0, SVG Export Plug-In . SVG Version: 6.00 Build 0)  -->
<svg version="1.1" id="Layer_1" xmlns="http://www.w3.org/2000/svg" xmlns:xlink="http://www.w3.org/1999/xlink" x="0px" y="0px"
	 viewBox="0 0 2481 2073" style="enable-background:new 0 0 2481 2073;" xml:space="preserve">
<style type="text/css">
	.st0{fill:none;stroke:#2C3E50;stroke-width:50;stroke-miterlimit:10;}
</style>
<title>google-pin</title>
<title>Layer 1</title>
<path class="st0" d="M1339.5,570.8c-136.3,0-256.9,52.3-330.1,132.4c-179.1,25.6-312.6,125.2-312.6,244.1
	c0,138.4,180.7,250.5,403.5,250.5c44,0,86.3-4.4,126-12.5c35.9,8.1,73.9,12.5,113.2,12.5c223.3,0,404.4-140.4,404.4-313.5
	S1562.8,570.8,1339.5,570.8z"/>
<circle class="st0" cx="962.1" cy="1305" r="46.5"/>
<circle class="st0" cx="1100.1" cy="1419.5" r="46.5"/>
<circle class="st0" cx="1364.1" cy="1373" r="46.5"/>
<circle class="st0" cx="1304.5" cy="1643.3" r="46.5"/>
<circle class="st0" cx="1581.7" cy="1280" r="46.5"/>
<circle class="st0" cx="915.6" cy="1569.5" r="46.5"/>
<circle class="st0" cx="1488.6" cy="1491.5" r="46.5"/>
</svg>
