<?xml version="1.0" encoding="utf-8"?>
<!-- Generator: Adobe Illustrator 19.2.1, SVG Export Plug-In . SVG Version: 6.00 Build 0)  -->
<svg version="1.1" xmlns="http://www.w3.org/2000/svg" xmlns:xlink="http://www.w3.org/1999/xlink" x="0px" y="0px"
	 viewBox="0 0 546.9 546.9" style="enable-background:new 0 0 546.9 546.9;" xml:space="preserve">
<style type="text/css">
	.st0{display:none;}
	.st1{display:inline;fill:#FF0000;}
	.st2{fill:#B3D929;}
	.st3{fill:#232625;}
	.st4{fill:#737373;}
	.st5{fill:#838383;}
	.st6{fill:#FEFEFE;}
	.st7{fill:#FCFCFC;}
	.st8{fill:#FBFBFB;}
	.st9{fill:#3D3D3D;}
	.st10{fill:#3C3C3B;}
	.st11{fill:#3C3C3C;}
	.st12{fill:#3E3E3E;}
	.st13{fill:#373737;}
	.st14{fill:#383837;}
	.st15{fill:#383838;}
	.st16{fill:#373736;}
	.st17{fill:#393939;}
	.st18{fill:#3B3B3B;}
	.st19{fill:#3A3A3A;}
	.st20{fill:#353535;}
</style>
<g id="Layer_2" class="st0">
	<rect x="-97.2" y="3.8" class="st1" width="537.3" height="427.3"/>
</g>
<g id="Layer_1">
	<circle class="st2" cx="273.4" cy="273.4" r="273.4"/>
	<g>
		<g>
			<g>
				<path class="st3" d="M421.5,115c-1.5,0-3,0-4.6,0c-4.6,0.9-9.3,0.9-14,1.2c-2,0.1-4.3-0.8-5.6,1.6c0.7,2.1,2.5,0.9,3.8,1.2
					c-2.9,0.7-5.5-1.7-8.5-0.9c-5.8,1.2-11.7,1.3-17.6,2c-4.3-0.5-8.5,2.3-12.8,0.1c-1.3-0.2-2.5-0.1-3.7,0.3
					c-6.2,2.4-12.5,3.3-19,1.8c-5.2-1.1-10.2-0.8-14.4,3c-1.4,1.3-2.8,1.8-4.5,0.5c-3.2-2.5-6.9-2-10.4-1.6
					c-11.5,1.2-23,2.4-34.5,3.4c-4.8,0.4-8.7,2.8-11.8,6.3c-2.5,2.8-5.2,3.1-8.6,1.7c-6.3-2.6-12.9-4.4-19.9-4.2
					c-3.5,1-6.9,1.1-10.4,0c-11.7,0-21.8,4.5-31.1,11.2c-2.6,1.9-4.3,3-5.8-1c-1.3-3.5-4.3-4.3-7.9-4.1c-9.5,0.6-18.9,1.8-28.4,2.7
					c-2.1,0.2-4.3,0.5-4.8,3.2c1,1.2,2.3,0.7,3.5,0.7c-2.8,0.8-5.4-1.8-8.3-0.8c-3.6,1.4-7.3,0.6-11,1c-5.9,1.3-11.9,1.3-17.9,2.1
					c-4.2-0.6-8.4,2.3-12.7,0.2c-1.2-0.3-2.4-0.2-3.6,0.2c-3.6,2.7-7.3,1.9-11.2,0.7c-4.7-0.8-8.1,1.1-10.8,4.8
					c-15.5,21.2-30.3,42.8-45.7,64.1c-1.6,2.2-1.6,5.1-3.3,7.2c0,1.1,0,2.3,0,3.4c1.7,6.6,1.3,13.6,3.2,20.1c2.1,7,3,7.9,10.4,7.6
					c2.6-0.1,4.8,0.5,6.8,2.4c7.2,7,14.1,14.5,21.9,20.8c3.1,2.5,4.1,5.3,0.7,8.6c-3.7,3.7-4.7,8.4-2.9,13.2c2.3,6.3,1,11.2-4,15.7
					c-2.8,2.5-5,5.7-7.7,8.4c-6.2,6.2-8.2,13.7-6.1,22.1c5.9,24.2,11.6,48.5,17.8,72.7c2,7.9,7.4,11.5,14.8,13c1.9,0,3.8,0,5.7,0
					c3.1-2.1,6.7-1.4,10-1.5c10.2-0.2,18.3-4.5,25.6-11.1c6.8-6.1,13.7-12,20.6-18.1c4.6-4,4.7-4,6.6,1.5
					c5.4,15.9,17.3,19.8,31.1,10c3.4-2.4,6.3-3.2,10.4-1.6c6.6,2.6,13.1,1.3,18.8-3.2c4.5-3.5,9.1-6.9,13.6-10.4
					c2.5-1.9,4.3-2,6.8,0.5c7.7,7.6,15.7,8.2,24.7,2.3c1.3-0.8,2.6-1.7,3.7-2.7c5-4.4,9.5-7.1,16.3-2c5,3.8,11.4,1.8,16.7-1.5
					c5.2-3.2,10-7,15.1-10.4c2.8-1.8,4.8-1.9,7.6,0.3c8.4,6.6,14.8,6.9,23.5,1c5.1-3.5,9.6-6,16-2.4c4.4,2.5,9.3,0.4,13.6-2
					c5.7-3.1,10.9-7,16.4-10.4c3.1-1.9,5.6-2.4,8.7,0.3c3.2,2.9,7.3,4.2,11.6,4c9.8-0.6,19.2-2.2,27.8-7.5
					c25.1-15.6,50.2-31,75.4-46.5c8-4.9,13.7-11,13.1-21c0-3.3,0-6.6,0-9.9c0.2-5.2-0.5-10.3-2.1-15.1c-3.7-11.4-6.8-22.9-10.9-34.1
					c-3.2-8.7-8.5-15.7-16.5-20.4c-3.3-1.9-3.8-3.5-1.2-6.4c2.2-2.4,2.4-5.5,1.6-8.6c-1.7-6.8-3.8-13.5-6.3-20.1
					c-1.4-3.8-3.9-6.1-8.3-4.9c-2.6,1.4-5.3,3.4-8.1,0.2c-2.3-2.2-2.1-4.5-1-7.3c7.3-18.7,0.3-41.2-16.2-52.8
					c-5.8-4-12.4-4.5-19.1-4.5C428.8,115.3,425.1,116.3,421.5,115z"/>
				<path class="st4" d="M433.1,116c-0.2-0.3-0.3-0.6-0.2-1c-3.8,0-7.6,0-11.4,0C425.2,117,429.2,115.9,433.1,116z"/>
				<path class="st5" d="M520.9,288.9c-0.3-0.1-0.6-0.2-0.9-0.2c0,3.9-0.1,7.9-0.1,11.8c0.3,0,0.7-0.1,1-0.2
					C520.9,296.5,520.9,292.7,520.9,288.9z"/>
				<path class="st6" d="M478.3,207.5c1.5-5.8-2.4-10.3-3.7-15.5c-0.2-1-2.1-0.8-3.2-0.5c-5.2,1.7-8.6-1.1-12.2-4.1
					c-4.3-3.6-8.8-7.1-13.6-10.9c1.2-0.8,1.7-1.3,2.3-1.6c9.2-4.3,12.5-10.2,11.1-20c-2.7-19.5-15.6-30.8-35.2-29.8
					c-15,0.8-29.9,2.9-44.9,4.2c-3.2,0.3-3.9,1.4-2.8,4.3c0.8,2.1,1.5,4.3,2,6.5c0.9,4,2.5,6.6,7.3,4.9c3.3-1.2,4.2,1.2,5,3.7
					c4.7,15.4,9.3,30.9,14.3,46.2c1.2,3.8,0.6,5.5-3.3,5.4c-3.6-0.1-3.7,2-2.5,4.3c2,4.1,1.1,9.4,5.5,12.4c1.5,0.4,2.9,0.9,4.2-0.4
					c1.5-1,3.2-1,4.9-0.8c2.8,0.9,5.4-0.3,8.1-0.6c3.1-0.2,6.2-0.1,9-1.6c4.8,0,6-2,3.8-6.3c-0.8-1.7-1.2-3.6-1.6-5.4
					c-0.8-3.6-2.3-5.9-6.5-4.7c-1.4,0.4-3.1,0.7-3.7-1.4c-1.4-4.5-3.1-9-4.3-13.6c-0.6-2.2,7.5-4.8,9.9-2.4
					c8.5,8.2,21.1,13.1,23.1,26.9c0.5,3.6,2.9,3.9,5.7,3.6c2.8,1,5.4-0.1,8-0.6c3.1-0.1,6.1-0.5,9-1.1
					C475.4,207.9,477.1,208.9,478.3,207.5z"/>
				<path class="st6" d="M371,146.9c1-0.7,2-0.9,1.7-2.9c-2.1-12.7-3.4-13.8-16.2-12.4c-6.4,0.7-12.9,1.3-19.3,1.8
					c-3.3,0.2-4.5,1.4-2.9,4.6c0.6,1.2,1,2.5,1.2,3.8c0.7,6,3.1,9.5,9.9,7.4c1.8-0.6,3.3,0,3.9,2.2c3.5,12,7.3,23.9,10.4,36.1
					c1.9,7.3,1.4,14.9-5.5,19.6c-7.5,5.1-15.8,4.9-23.9,0.9c-6.1-3-10.2-8.2-12.3-14.4c-4.1-12.2-7.6-24.7-11.5-37
					c-0.8-2.7,0.5-3.4,2.8-3.5c2.2-0.2,4.5-0.4,7.2-0.7c-1.3-4.7-2.7-9-3.8-13.4c-0.6-2.4-2.1-2.7-4.3-2.5c-10,1.1-20.1,2.1-30.1,3
					c-2.8,0.3-3.7,1.3-2.8,4c0.8,2.5,1.7,5.1,2.2,7.6c0.7,4,2.6,6,6.9,4.7c3.1-1,3.8,0.9,4.5,3.4c3.3,11.7,6.5,23.4,10.4,34.9
					c8.6,25.1,29.9,37.7,54.1,32.4c19.1-4.2,28.1-17.9,24.1-37.2c-2.6-12.5-7.2-24.4-10.6-36.6c-0.5-1.6-2.7-3.5-0.3-5.4
					C368.1,147.7,369.6,148.1,371,146.9z"/>
				<path class="st6" d="M192.6,161.8c-6.6,10.7-5.8,22.1-3.1,33.6c7.5,32,34.8,49.6,66.4,43.2c20-4.1,31.1-18.5,29.9-38.9
					c-1.6-27.3-19.5-50-43.8-55.6c-8.4-1.9-16.9-2.2-25.2,0.3c-1.8,3.2,0.3,5.1,2.5,6.5c3.4,2.3,2,3.7-0.6,5.1c-2,1-4.1,2-5.8,3.5
					c-3.6,3.1-7.3,3.3-11.5,1.4C198.3,159.6,195.1,158.5,192.6,161.8z"/>
				<path class="st6" d="M173.2,247.6c2.6-0.7,4.3-1.7,2.8-4.9c-0.9-1.8-1.3-4-1.5-6c-0.8-5.9-3.2-9-9.6-6.6c-2.9,1.1-4-0.7-4.7-3.2
					c-1.1-4.4-2.4-8.8-3.5-13.2c-0.4-1.7-0.4-3.3,0.4-5c5.8-13.1,11.5-26.3,17.3-39.5c0.3-0.7,0.5-1.4,1.5-1.5
					c0.7,0.6,1.4,0.7,1.9-0.2c5-0.2,4.6-3,3.6-6.6c-3.3-11.4-3.2-11.4-14.9-10.2c-8.1,0.9-16.3,1.9-24.4,2.4
					c-4.4,0.3-4.8,2.1-3.6,5.7c1.3,4,2.2,8,3.2,12.1c1.3,1.3,2.7,1.2,4.1,0c1.6-0.9,3.2-0.8,5.5-0.7c-3.4,7.8-6.6,15.2-9.8,22.4
					c-6.2-6.4-12.3-12.7-18.5-19.1c-0.2,0.4-0.1-0.1,0.1-0.2c7.8-2.2,7.9-2.2,5.5-10.6c-0.5-1.8-1.2-3.6-1.8-5.3
					c-3-0.9-5.9-0.7-8.8,0.4c-4.6,1.7-9.6,2.2-14.3,3.6c-8.6,2.4-10.2,6-6.5,14.3c6.9,6.9,13.9,13.7,20.8,20.6
					c5,6.2,10.1,12.1,16.9,16.5c3.3,5.4,3.6,11.8,5.4,17.6c1.2,3.7-2.4,3.3-4.3,3.3c-5.5-0.1-6.5,2-4.6,6.8
					c1.5,3.9,2.4,7.9,3.5,11.9c2.8,1.4,5.4,0,8-0.5c3.1-0.1,6.1-0.5,9.1-1.1c1.4-0.5,3.1,0.5,4.3-0.9c1.5-1,3.2-1,4.9-0.8
					c2.8,1,5.3-0.1,8-0.6C170.3,248,171.9,248.9,173.2,247.6z"/>
				<path class="st6" d="M158.3,368.8c20.3-8.2,23.8-32.2,6.7-48.4c-3.2-3-3.4-5.1-2-9c6.8-19.1-10.6-40.7-30.6-38.2
					c-5.1,0.6-10.2,1.3-15.3,2.1c-5.9,0.9-7.8,3.4-6.4,9c6.8,26.9,13.6,53.7,20.5,80.5c1.3,5,4.5,7.3,9.8,6.5
					c4.7-0.7,9.4-1.4,14.1-2.1C156.3,369.5,157.4,369.9,158.3,368.8z"/>
				<path class="st6" d="M265.9,350.6c2.9-3.2,2.5-6.3,0.1-9.7c-6-8.6-11.6-17.4-17.6-26c-1.9-2.7-2.4-4.5,0.2-7.3
					c4-4.4,5.3-10,4-16c-0.9-4.3-1.9-8.5-3.4-12.6c-4.3-12-15.4-19-28.1-17.8c-4.5,0.4-9.1,1.1-13.6,1.8c-6.6,1-8,3.2-6.3,9.8
					c4.2,15.6,8.5,31.1,12.7,46.7c2.5,9.3,5,18.7,7.6,28c0.5,1.8,0.9,3.7,1.8,5.4c1.9,3.5,4.9,4.8,8.7,3.6c3.7-1.2,3.9-4.4,3.1-7.6
					c-2.3-8.8-4.8-17.6-7-26.4c-0.6-2.2-3.3-5,0.8-6.7c3.6-1.4,5.8,0,7.9,3.3c7,10.7,14.3,21,21.6,31.5
					C260.8,353.2,263.3,352.9,265.9,350.6z"/>
				<path class="st6" d="M405.7,325.5c0.6-2.7-0.1-5.2-0.9-7.8c-4.6-14.8-9-29.6-13.5-44.5c1.9-0.5,2.2,1.2,2.9,2.1
					c11.4,14.1,22.7,28.2,34.1,42.3c0.5,0.6,0.9,1.2,1.4,1.8c2,2.4,4.6,3.8,7.6,2.3c3.1-1.6,2.8-4.4,1.9-7.5
					c-5-15.8-9.8-31.6-14.7-47.4c-2.5-8.2-5-16.3-7.6-24.5c-0.6-2-1.2-4-2.8-5.5c-2-1.9-4.3-2.7-6.8-1.5c-2.7,1.3-2.9,3.6-2,6.3
					c4.5,14.5,8.9,29,13.3,43.5c0.3,0.9,0.5,1.8-0.2,3.2c-2.7-3.3-5.3-6.6-8-9.9c-9.2-11.4-18.4-22.9-27.6-34.3
					c-0.7-0.9-1.4-1.8-2.2-2.6c-2.1-2-4.6-3-7.3-1.6c-3,1.6-2.5,4.4-1.7,7.1c3.6,12,7.3,24,10.9,35.9c4.2,13.8,8.3,27.6,12.5,41.4
					C398.1,330.3,402.1,330.7,405.7,325.5z"/>
				<path class="st6" d="M304.8,295.1c0,13.1,0,26.3,0,39.4c0,3.1,0.9,5.6,3.6,7.3c4.2,2.7,8.8,0.6,9-4.4c0.2-3.8,0-7.6-0.3-11.4
					c-0.2-2.8,0.6-4.2,3.5-4.6c5.3-0.7,10.5-1.6,15.7-2.6c2.5-0.5,3.3,0.9,4.3,2.7c2,3.7,4.1,7.3,6.3,10.8c2.1,3.3,5.2,4.9,8.7,2.9
					c3.6-2.1,2.7-5.5,1-8.5c-14.1-24.6-28.2-49.1-42.3-73.7c-1.8-3.1-4.3-4.9-8-4c-3.9,1-3.7,4.2-3.7,7.3c0,12.9,0,25.9,0,38.8
					C303.3,295.1,304.1,295.1,304.8,295.1z"/>
				<path class="st6" d="M471.3,226.7c-3.1,0.4-7.2,0.9-11.4,1.5c-6.5,0.9-7.6,2.5-5.6,8.7c6.7,21.4,13.5,42.7,20.2,64
					c0.3,1.1,0.7,2.2,1,3.3c3,9.2,4.5,10.2,14,8.6c1.5-0.3,3-0.7,4.5-0.9c16.3-1.3,19.2-14.2,15.9-24.8
					c-4.4-13.9-8.8-27.9-13.5-41.7C492.5,233.6,482.9,226.4,471.3,226.7z"/>
				<path class="st7" d="M192.6,161.8c3.6-1.5,6.6,0.5,9.7,1.9c3.8,1.7,7,1.5,10.4-1.4c3-2.5,6.6-4.3,10.1-6.2c3.8-2,3.9-3.8,0-5.6
					c-2.8-1.3-5.6-2.6-6-6.2C206.4,147.1,197.8,152,192.6,161.8z"/>
				<path class="st8" d="M96.8,175.6c0.7-1.4,1.6-2.9,0.9-4.3c-2.5-5,0.7-6.2,4.5-7.2c8.1-2.2,16.3-4.5,24.4-6.7
					c0.3-2.2-0.9-2.6-2.7-2.4c-12.3,1.2-24.5,2.5-36.8,3.7c-2.3,0.2-2.9,1-2,3.3c0.8,2.1,1.1,4.4,1.6,6.6
					C88.6,176.5,88.6,176.5,96.8,175.6z"/>
				<path class="st9" d="M134.5,212.6c-5.5-5.6-10.8-11.5-16.9-16.5c-1.3,1.7,0.4,2.4,1.2,3.2c4.2,4.3,8.5,8.6,12.8,12.8
					C132.4,212.8,133.2,215,134.5,212.6z"/>
				<path class="st10" d="M358.6,122.2c-6.5,0.1-13,0.7-19.4,2C345.9,125.7,352.4,125.3,358.6,122.2z"/>
				<path class="st11" d="M131.1,145c-6.2,0-12.3,0.7-18.3,1.9c-0.7,0.4-0.7,0.9,0,1.3c6.1-0.6,12.3-0.5,18.3-2.3
					c0.5-0.2,0.6-0.4,0.5-0.6C131.5,145.1,131.3,145,131.1,145z"/>
				<path class="st11" d="M392.9,118.7c-6.2,0-12.3,0.7-18.3,1.9c-0.7,0.4-0.7,0.9,0,1.3c6.1-0.6,12.3-0.5,18.3-2.3
					c0.5-0.2,0.6-0.4,0.5-0.6C393.2,118.8,393.1,118.7,392.9,118.7z"/>
				<path class="st12" d="M405.7,325.5c-4,4-7.5,2.9-10.7-1.2c-0.9,4.3,2.2,5.4,5.2,5.5C402.6,329.9,406.4,330.1,405.7,325.5z"/>
				<path class="st10" d="M112.8,148.2c0-0.4,0-0.8,0-1.3c-4.2,0.2-8.5-0.3-12.5,1.3C104.5,151.1,108.6,147.8,112.8,148.2z"/>
				<path class="st10" d="M374.6,121.9c0-0.4,0-0.8,0-1.3c-4.2,0.2-8.5-0.3-12.5,1.3C366.2,124.8,370.4,121.5,374.6,121.9z"/>
				<path class="st10" d="M96.8,148.5c-3.9-0.5-7.6,0.6-11.4,1.1C89.4,150.5,93.4,152.2,96.8,148.5z"/>
				<path class="st11" d="M131.1,145c0,0.3,0,0.6,0,0.9c3.8-0.4,7.8,1.1,11.4-1.1c0.5-0.2,0.6-0.4,0.5-0.6c-0.2-0.2-0.3-0.3-0.5-0.3
					C138.7,143.4,134.9,144.4,131.1,145z"/>
				<path class="st9" d="M265.9,350.6c-2.5,1.1-5,0.8-7.5-0.1c-1.1,3.1,1.6,2.5,2.8,2.3C262.8,352.6,265.9,354.6,265.9,350.6z"/>
				<path class="st11" d="M476.3,181.6c-2.7-0.6-5.3,0.6-7.9,0.8C471.3,184.3,474,184.6,476.3,181.6z"/>
				<path class="st13" d="M430.6,213.6c-3.2-0.8-6.1,1-9.1,1.2c-0.3,0.2-0.3,0.4-0.3,0.6c0.1,0.2,0.2,0.3,0.3,0.3
					C424.5,214.9,428.3,217.5,430.6,213.6z"/>
				<path class="st13" d="M151.7,250.2c-3.2-0.9-6.1,1.1-9.1,1.2c-0.3,0.2-0.3,0.4-0.3,0.6c0.1,0.2,0.2,0.3,0.3,0.3
					c3.1-0.3,6.3,0.9,9.1-1.1C152.5,250.8,152.5,250.5,151.7,250.2z"/>
				<path class="st13" d="M474.1,207.9c-3.2-0.9-6.1,1-9.1,1.2c-0.3,0.2-0.3,0.4-0.3,0.6c0.1,0.2,0.2,0.3,0.3,0.3
					c3.1-0.3,6.3,0.9,9.1-1.1C474.8,208.5,474.8,208.2,474.1,207.9z"/>
				<path class="st13" d="M421.5,215.7c0-0.3,0-0.6,0-0.9c-2.8-0.9-5.3,0.7-8,1.1C416.2,217.3,418.9,217.4,421.5,215.7z"/>
				<path class="st11" d="M142.6,143.9c0,0.3,0,0.6,0,0.9c3.2,0,6.4,0,9.7,0c0-0.3,0-0.6,0-0.8c-1.8-0.1-3.6-0.3-5.4-0.4
					C145.4,143.6,144,143.8,142.6,143.9z"/>
				<path class="st13" d="M142.6,252.3c0-0.3,0-0.6,0-0.9c-2.8-0.8-5.3,1.2-8,1C137.2,254,139.9,254,142.6,252.3z"/>
				<path class="st13" d="M168.8,247.9c-2.8-0.7-5.3,1-8,1.1c2.7,1.4,5.4,1.5,8-0.2C169.6,248.5,169.6,248.2,168.8,247.9z"/>
				<path class="st13" d="M464.9,210c0-0.3,0-0.6,0-0.9c-2.8-0.7-5.3,1-8,1.1C459.6,211.6,462.3,211.7,464.9,210z"/>
				<path class="st11" d="M392.9,118.7c0,0.3,0,0.6,0,0.9c3.2,0,6.5,0,9.7,0c0-0.3,0-0.6,0-0.8c-1.8-0.1-3.6-0.3-5.4-0.4
					C395.8,118.5,394.3,118.6,392.9,118.7z"/>
				<path class="st13" d="M235.1,133.6c-3.4-0.5-6.8-0.5-10.2,0C228.3,135,231.7,135,235.1,133.6z"/>
				<path class="st14" d="M168.8,247.9c0,0.3,0,0.6,0,0.9c1.9,0,3.7,0,5.6-0.1c0.5,0,1.1-0.3,0.4-0.8c-0.4-0.3-1.1-0.3-1.6-0.4
					C171.7,247.7,170.3,247.8,168.8,247.9z"/>
				<path class="st15" d="M145.6,170.9c-1.4,0-2.7,0-4.1,0c1.3,1.8,3.3,1.4,5.1,1.4c0.4,0,1.3,0,0.9-0.6
					C147.3,171.1,146.3,171.1,145.6,170.9z"/>
				<path class="st16" d="M408.6,216.7c-1.4,0.1-2.8,0.2-4.2,0.4c1.4,1.2,3.3,1.4,4.7,0.8C410.6,217.2,408.9,217,408.6,216.7z"/>
				<path class="st16" d="M151.7,250.2c0,0.3,0,0.6,0,0.9c1.6,0,3.3,0.3,4.8-0.2c1.4-0.5-0.2-0.8-0.5-1.1
					C154.6,250,153.1,250.1,151.7,250.2z"/>
				<path class="st16" d="M371,146.9c-1.4,0.1-2.9,0.2-4.3,0.3C368.1,148,369.7,149.3,371,146.9z"/>
				<path class="st17" d="M177.6,167.5c-0.6,0.1-1.3,0.2-1.9,0.2c0.6,0.3,1.3,0.9,1.9,0.9c0.7,0.1,1.7,0.7,2.1-0.6
					C179,167.8,178.3,167.7,177.6,167.5z"/>
				<path class="st15" d="M158.3,368.8c-1,0.1-2.1,0.2-3.1,0.4c1.1,0.9,2.5,1.3,3.7,0.7C160.2,369.2,158.6,369.2,158.3,368.8z"/>
				<path class="st13" d="M474.1,207.9c0,0.3,0,0.6,0,1c1.4-0.5,3.5,1.1,4.3-1.3C476.9,207.6,475.5,207.7,474.1,207.9z"/>
				<path class="st3" d="M408.9,142.7c-3.6-0.4-2.5,2.1-2,3.7c1.5,5.2,3.5,10.4,4.9,15.7c0.7,2.7,2,3.7,4.8,3.2
					c5.1-0.7,10.2-1.1,15.2-1.8c4.2-0.5,8.7-1.3,9.9-6.2c1.3-5.4-0.8-10.1-4.9-13.7c-1.1-0.9-2.6-1.3-4-1.9c-4.4,0-8.7,0.2-13.1,0.3
					C416.2,142.5,412.6,143.7,408.9,142.7z"/>
				<path class="st13" d="M419.2,142.5c4.5-0.4,9.2,0.9,13.6-0.8c-4.5-1.8-9.1-0.5-13.6-0.1c-0.3,0.2-0.3,0.4-0.3,0.6
					C419,142.4,419.1,142.5,419.2,142.5z"/>
				<path class="st13" d="M419.2,142.5c0-0.3,0-0.6,0-0.9c-3.6-0.8-6.8,1.1-10.3,1.1C412.4,144.1,415.8,144.3,419.2,142.5z"/>
				<path class="st3" d="M213.4,166.4c-9.2,12.9-6.4,25.9,0.1,38.6c5.8,11.1,14.9,17.5,27.9,17.6c17.4,0.1,26.7-10.2,24.8-27.6
					c-1-9-3.8-17.4-10.3-24c-2.2-0.7-3.7-2.2-4.4-4.4c-4.1-4.3-9.4-6.1-15.2-6.6c-2.3,0.6-4.5,0.6-6.8,0c-4.9,0.3-9.7,1.2-13.8,4.3
					C215.2,165.1,215,166.4,213.4,166.4z"/>
				<path class="st18" d="M251.4,166.4c-0.2,3.2,1.2,4.7,4.4,4.4C254.8,168.9,253.3,167.4,251.4,166.4z"/>
				<path class="st19" d="M213.4,166.4c0.2,1,0.4,2,1.7,1.2c1.4-0.9,1.2-2.1,0.6-3.4C214.9,164.8,214.1,165.6,213.4,166.4z"/>
				<path class="st20" d="M229.5,159.8c2.3,1.4,4.5,1.4,6.8,0C234,159.8,231.7,159.8,229.5,159.8z"/>
				<path class="st3" d="M149,325.4c-12.7-0.2-13.6,1-10.8,11.8c1.4,5.5,3.1,11,4.3,16.5c0.6,2.6,1.5,3.6,4.2,2.9
					c2.8-0.7,5.6-1,8.4-1.6c1.7-0.4,3.2-1.3,4.3-2.7c5.3-6.6,1.3-13.1-0.7-19.4C157.1,328,152.9,325.7,149,325.4z"/>
				<path class="st3" d="M131.2,286.8c-4.2-0.5-6,0.9-4.6,5.5c1.8,6,3.2,12.1,4.7,18.2c0.6,2.7,1.8,4,4.7,3.3
					c2.4-0.6,4.9-0.7,7.3-1.2c3.4-0.8,5.8-2.9,6.9-6.2c2.2-6.6-2.3-16.4-8.9-19.5C138,286.5,134.6,287.6,131.2,286.8z"/>
				<path class="st14" d="M131.2,286.8c3.4,1.4,6.8,1.4,10.2,0C138,285,134.6,286.3,131.2,286.8z"/>
				<path class="st3" d="M220.3,274.2c-4.2-0.5-5.5,1.1-4.2,5.2c2,6.7,3.8,13.4,5.5,20.2c0.7,2.7,1.7,4.2,5.1,3.4
					c5.3-1.2,11.4-0.6,13-7.7c1.5-6.9-3.3-17.6-9.2-20.9C227.1,273.7,223.7,274.9,220.3,274.2z"/>
				<path class="st13" d="M220.3,274.2c3.4,1.5,6.8,1.4,10.2,0.1C227.1,272.5,223.7,273.5,220.3,274.2z"/>
				<path class="st3" d="M316.4,279.2c0,10,0,18.6,0,27.3c0,1.2,0.4,2.5,1.8,2.4c4-0.5,7.9-1,11.8-2c2.4-0.6,0.8-2.4,0.2-3.6
					C325.8,295.6,321.4,287.9,316.4,279.2z"/>
				<path class="st3" d="M469.5,238.8c-2.9-0.4-3.2,1-2.5,3.4c6,18.6,11.9,37.3,17.8,55.9c0.5,1.4,1,3,3.1,2.5c4-0.9,8.7-0.1,11-4.6
					c1.2-2.2,1.4-4.6,0.6-7.2c-4.7-14.2-9.2-28.5-13.8-42.7c-1.2-3.6-3.2-6.5-7.1-7.4C475.6,238.3,472.6,239.8,469.5,238.8z"/>
				<path class="st13" d="M469.5,238.8c3,1.4,6.1,1.5,9.1-0.1C475.6,237,472.5,238.5,469.5,238.8z"/>
			</g>
		</g>
	</g>
</g>
</svg>
