<?xml version="1.0" encoding="utf-8"?>
<!-- Generator: Adobe Illustrator 19.2.0, SVG Export Plug-In . SVG Version: 6.00 Build 0)  -->
<svg version="1.1" id="Layer_1" xmlns="http://www.w3.org/2000/svg" xmlns:xlink="http://www.w3.org/1999/xlink" x="0px" y="0px"
	 viewBox="0 0 2481 2073" style="enable-background:new 0 0 2481 2073;" xml:space="preserve">
<style type="text/css">
	.st0{fill:#FC4349;stroke:#2C3E50;stroke-width:9;stroke-miterlimit:10;}
	.st1{fill:#2C3E50;}
	.st2{fill:#FFFFFF;}
	.st3{fill:#FC4349;}
</style>
<path id="svg_2" class="st0" d="M1250.7,1296.7c-17.8-87.3-49.1-160-87.1-227.3c-28.2-50-60.8-96.1-91-144.5
	c-10.1-16.2-18.8-33.3-28.5-50.1c-19.4-33.5-35.1-72.5-34.1-122.9c1-49.3,15.2-88.9,35.8-121.2c33.8-53.2,90.5-96.8,166.5-108.3
	c62.2-9.4,120.5,6.5,161.8,30.6c33.8,19.7,59.9,46.1,79.8,77.2c20.7,32.4,35.1,70.8,36.3,120.8c0.6,25.6-3.6,49.3-9.5,69
	c-6,19.9-15.6,36.6-24.1,54.4c-16.7,34.7-37.6,66.5-58.7,98.3C1335.2,1067.5,1276.4,1164.2,1250.7,1296.7z"/>
<title>google-pin</title>
<title>Layer 1</title>
<g>
	<path class="st1" d="M639.3,1498.5h-10.5v-135.7H447.1v135.7h-10.5v-284.4h10.5v138.1h181.6v-138.1h10.5L639.3,1498.5L639.3,1498.5
		z"/>
	<path class="st1" d="M749.8,1460.2l7.8,21.1h1.2l1.2-3.1l73-191h11.7l-93.9,246.5c-5.7,14.8-12.4,26.9-20,36.2
		c-7.6,9.3-19.8,14-36.4,14c-2.5,0-5.2-0.2-8.2-0.7s-5.2-0.9-6.6-1.5l1.8-10c1.4,0.4,3.6,0.8,6.4,1.2c2.9,0.4,5.1,0.6,6.6,0.6
		c12,0,21.3-3.5,28-10.5s12.7-17.5,17.9-31.3l12.7-34.4l-84.2-210.2h11.5L749.8,1460.2z"/>
	<path class="st1" d="M1028.5,1396.7c0,32.6-7,58.3-21.1,77.3s-33.5,28.5-58.2,28.5c-16.5,0-31-3.3-43.3-10s-21.9-15.6-28.8-27
		v114.1h-10.5V1287h8.2l2.1,37.9c7-13,16.6-23.2,28.7-30.7s26.5-11.1,43.2-11.1c24.9,0,44.4,9.9,58.5,29.6s21.2,46.3,21.2,79.8
		V1396.7z M1017.7,1392.6c0-29.3-5.9-53.1-17.7-71.4s-28.8-27.4-51.1-27.4c-20.4,0-36.3,5.1-47.7,15.4
		c-11.3,10.3-19.4,22.9-24.2,37.9v98.8c5.2,14.1,13.9,25.3,26.2,33.6c12.2,8.3,27.6,12.5,46.1,12.5c22.3,0,39.2-8.6,50.9-25.8
		c11.7-17.2,17.5-40.4,17.5-69.5V1392.6z"/>
	<path class="st1" d="M1140,1502.6c-24.1,0-44.9-9.7-62.4-29.2s-26.3-43.7-26.3-72.6v-12.5c0-30.3,8.5-55.4,25.4-75.3
		s37.8-29.8,62.7-29.8c23.8,0,43.3,7.8,58.3,23.4s22.6,36.6,22.6,62.9v16.2h-158.4v2.5v12.5c0,25.5,7.5,47.1,22.5,64.7
		s33.5,26.5,55.7,26.5c15.8,0,28.9-2.1,39.6-6.4c10.6-4.3,19.7-10.7,27.2-19.3l5.7,8.2c-8.3,9.2-18.5,16.2-30.4,21
		C1170.1,1500.2,1156.1,1502.6,1140,1502.6z M1139.4,1293.8c-21,0-38.4,7.7-52.3,22.9c-13.9,15.3-21.8,34.4-23.6,57.3l0.6,1.2h145.7
		v-6.4c0-21.5-6.5-39.4-19.5-53.6C1177.1,1300.9,1160.2,1293.8,1139.4,1293.8z"/>
	<path class="st1" d="M1349.7,1214.1l116.4,267.6h1.2l116.8-267.6h15.4v284.4H1589v-265.8l-1.2-0.4L1471,1498.5h-8.4l-116.2-264.8
		l-1.2,0.4v264.5h-10.5v-284.4L1349.7,1214.1L1349.7,1214.1z"/>
	<path class="st1" d="M1786.7,1459.4c-7.3,12.8-18.2,23.1-32.6,31.2s-32,12-52.5,12c-19.7,0-35.1-5.4-46.3-16.1
		c-11.2-10.7-16.8-25.2-16.8-43.5c0-17.7,8.4-32.5,25.1-44.5s37.7-18,62.8-18h60.4v-30.9c0-17.6-5.6-31.3-16.9-41.1
		c-11.3-9.8-27.1-14.7-47.6-14.7c-19.1,0-34.5,4.6-46.2,13.9c-11.7,9.2-17.5,21.2-17.5,35.7l-8.8-0.4l-0.4-1
		c-0.8-16.4,5.6-30.3,19.1-41.7c13.5-11.4,31.4-17.1,53.7-17.1c22.7,0,40.8,5.7,54.5,17.2s20.5,28,20.5,49.6v105.9
		c0,7.4,0.4,14.6,1.3,21.7c0.8,7,2.2,14,4.2,20.9H1791c-1.7-9.2-2.8-16.2-3.4-20.8c-0.6-4.6-0.9-9.6-0.9-14.9V1459.4z
		 M1701.6,1492.3c21,0,38.7-4.6,53.2-13.9c14.5-9.2,25.2-22.5,31.9-39.6v-47.5H1727c-21.9,0-40.3,5-55.4,15.1
		c-15,10.1-22.6,22.6-22.6,37.4c0,14.2,4.8,25.8,14.4,34.9C1673,1487.7,1685.7,1492.3,1701.6,1492.3z"/>
	<path class="st1" d="M2008.8,1396.7c0,32.6-7,58.3-21.1,77.3s-33.5,28.5-58.2,28.5c-16.5,0-31-3.3-43.3-10s-21.9-15.6-28.8-27
		v114.1h-10.5V1287h8.2l2.1,37.9c7-13,16.6-23.2,28.7-30.7s26.5-11.1,43.2-11.1c24.9,0,44.4,9.9,58.5,29.6s21.2,46.3,21.2,79.8
		L2008.8,1396.7L2008.8,1396.7z M1998,1392.6c0-29.3-5.9-53.1-17.7-71.4c-11.8-18.3-28.8-27.4-51.1-27.4c-20.4,0-36.3,5.1-47.7,15.4
		c-11.3,10.3-19.4,22.9-24.2,37.9v98.8c5.2,14.1,13.9,25.3,26.2,33.6c12.2,8.3,27.6,12.5,46.1,12.5c22.3,0,39.2-8.6,50.9-25.8
		c11.7-17.2,17.5-40.4,17.5-69.5L1998,1392.6L1998,1392.6z"/>
</g>
<ellipse id="svg_4_2_" class="st1" cx="1250" cy="746.9" rx="152.2" ry="149.7"/>
<g>
	<path class="st2" d="M1239.6,677.9l56.5,129.9h0.6l56.7-129.9h7.5v138h-5.1v-129l-0.6-0.2L1298.5,816h-4.1L1238,687.4l-0.6,0.2V816
		h-5.1V678L1239.6,677.9L1239.6,677.9z"/>
</g>
<g>
	<path class="st3" d="M1237.6,816h-5.1v-65.9h-88.2V816h-5.1V678h5.1v67h88.2v-67h5.1V816z"/>
</g>
<g>
	<path class="st3" d="M456.8,1605.8h-4.6v-11.7h4.6V1605.8z M456.8,1725.9h-4.6v-91.4h4.6V1725.9z"/>
	<path class="st3" d="M497.3,1680.1c0-14.5,3-26,9.1-34.5c6.1-8.5,14.5-12.8,25.3-12.8c7.2,0,13.3,1.6,18.5,4.8
		c5.2,3.2,9.4,7.6,12.5,13.2v-56.7h4.6v131.8h-4.4l-0.2-14.2c-3,4.9-7.2,8.8-12.5,11.7c-5.3,2.9-11.5,4.3-18.6,4.3
		c-10.8,0-19.2-4.1-25.2-12.3c-6.1-8.2-9.1-19.4-9.1-33.5V1680.1z M502,1681.9c0,12.6,2.5,22.6,7.5,30.1c5,7.4,12.3,11.2,22,11.2
		c7.9,0,14.5-1.8,19.8-5.4c5.3-3.6,9.1-8.4,11.4-14.4v-42.8c-2.2-6.5-5.7-12-10.6-16.4c-4.9-4.4-11.7-6.6-20.4-6.6
		c-9.7,0-17.1,4-22.1,11.9c-5,7.9-7.6,18.2-7.6,30.9V1681.9z"/>
	<path class="st3" d="M642.1,1727.7c-10.4,0-19.4-4.2-27-12.6c-7.6-8.4-11.4-18.9-11.4-31.4v-5.4c0-13.1,3.7-24,11-32.6
		c7.3-8.6,16.4-12.9,27.1-12.9c10.3,0,18.7,3.4,25.2,10.1c6.5,6.8,9.8,15.8,9.8,27.2v7h-68.5v1.1v5.4c0,11,3.2,20.4,9.7,28
		c6.5,7.6,14.5,11.4,24.1,11.4c6.8,0,12.5-0.9,17.1-2.8c4.6-1.9,8.5-4.6,11.8-8.4l2.4,3.5c-3.6,4-8,7-13.1,9.1
		C655.1,1726.6,649,1727.7,642.1,1727.7z M641.8,1637.4c-9.1,0-16.6,3.3-22.6,9.9c-6,6.6-9.4,14.9-10.2,24.8l0.3,0.5h63v-2.8
		c0-9.3-2.8-17-8.4-23.2C658.1,1640.4,650.8,1637.4,641.8,1637.4z"/>
	<path class="st3" d="M770.1,1709c-3.2,5.5-7.9,10-14.1,13.5c-6.3,3.5-13.8,5.2-22.7,5.2c-8.5,0-15.2-2.3-20-7
		c-4.8-4.6-7.3-10.9-7.3-18.8c0-7.7,3.6-14.1,10.9-19.3c7.2-5.2,16.3-7.8,27.2-7.8h26.1v-13.3c0-7.6-2.4-13.5-7.3-17.8
		c-4.9-4.3-11.7-6.4-20.6-6.4c-8.3,0-14.9,2-20,6c-5,4-7.6,9.2-7.6,15.5l-3.8-0.2l-0.2-0.4c-0.3-7.1,2.4-13.1,8.3-18
		c5.9-4.9,13.6-7.4,23.2-7.4c9.8,0,17.7,2.5,23.6,7.4c5.9,5,8.9,12.1,8.9,21.5v45.8c0,3.2,0.2,6.3,0.5,9.4c0.4,3,1,6.1,1.8,9H772
		c-0.7-4-1.2-7-1.5-9c-0.3-2-0.4-4.2-0.4-6.5V1709z M733.3,1723.2c9.1,0,16.7-2,23-6c6.3-4,10.9-9.7,13.8-17.1v-20.5h-25.8
		c-9.5,0-17.4,2.2-23.9,6.5c-6.5,4.4-9.8,9.8-9.8,16.2c0,6.1,2.1,11.2,6.2,15.1C720.9,1721.2,726.4,1723.2,733.3,1723.2z"/>
	<path class="st3" d="M874.8,1703.5c0-4.8-2.1-9.3-6.2-13.2c-4.1-4-11.4-7.1-21.7-9.3c-10.9-2.3-18.7-5.3-23.6-8.9
		c-4.9-3.6-7.3-9-7.3-16.2c0-6.5,2.8-12,8.3-16.4c5.5-4.4,13-6.6,22.3-6.6c10.1,0,18,2.4,23.8,7.1c5.8,4.7,8.6,10.9,8.3,18.5
		l-0.2,0.5h-3.9c0-6-2.5-11.1-7.6-15.2c-5-4.2-11.9-6.3-20.5-6.3c-8.6,0-15,1.8-19.4,5.5c-4.4,3.7-6.6,8-6.6,12.8
		c0,4.8,1.9,8.9,5.6,12.2s11.1,6.3,22.1,8.9c10.2,2.4,17.9,5.6,23.2,9.7c5.3,4.1,7.9,9.8,7.9,17.1c0,7.2-2.9,13-8.8,17.4
		c-5.9,4.4-13.6,6.7-23.3,6.7c-10.6,0-19-2.4-25-7.1c-6.1-4.8-8.9-10.5-8.5-17.4l0.2-0.5h3.7c0.5,7.2,3.5,12.4,9.3,15.6
		s12.5,4.8,20.4,4.8c8.4,0,15.1-2,20.1-5.9C872.3,1713.2,874.8,1708.7,874.8,1703.5z"/>
	<path class="st3" d="M982.6,1725.9v-86.8h-15.9v-4.6h15.9v-15c0-8.6,2.1-15.3,6.3-20c4.2-4.7,10.1-7.1,17.6-7.1
		c1.9,0,3.7,0.1,5.5,0.3c1.8,0.2,3.6,0.6,5.3,1.1l-0.7,4.4c-1.8-0.5-3.4-0.8-4.8-1c-1.4-0.2-3.1-0.3-5.3-0.3c-6.1,0-10.8,2-14.3,6
		c-3.4,4-5.2,9.5-5.2,16.6v15h24.2v4.6h-24.2v86.8H982.6z"/>
	<path class="st3" d="M1037.7,1678.4c0-13.4,3.7-24.4,11.1-32.9c7.4-8.5,17-12.8,28.8-12.8c11.9,0,21.5,4.3,28.9,12.8
		c7.4,8.5,11.1,19.5,11.1,32.9v3.5c0,13.5-3.7,24.4-11.1,32.9c-7.4,8.5-17,12.8-28.8,12.8c-11.9,0-21.5-4.3-29-12.8
		c-7.4-8.5-11.2-19.5-11.2-32.9V1678.4z M1042.2,1682c0,11.5,3.2,21.2,9.6,29.2c6.4,8,15.1,12,25.9,12c10.7,0,19.3-4,25.7-12
		c6.4-8,9.6-17.7,9.6-29.1v-3.5c0-11.2-3.2-20.8-9.7-28.9c-6.5-8.1-15.1-12.1-25.8-12.1c-10.8,0-19.3,4-25.8,12.1
		c-6.4,8.1-9.6,17.7-9.6,28.9V1682z"/>
	<path class="st3" d="M1194.5,1637.8l-5.9-0.5c-8.2,0-14.8,2.6-19.9,7.9c-5.1,5.3-8.4,12.2-9.9,20.8v59.9h-4.6v-91.4h3.7l0.8,15.9
		v3.1c2.5-6.5,6.3-11.6,11.3-15.2c5-3.6,11.2-5.4,18.5-5.4c1.3,0,2.5,0.1,3.6,0.3c1.1,0.2,2,0.4,2.8,0.6L1194.5,1637.8z"/>
	<path class="st3" d="M1306.7,1709.3l3.4,9.1h0.5l0.5-1.4l31.6-82.6h5.1l-40.6,106.6c-2.5,6.4-5.4,11.6-8.7,15.7
		c-3.3,4-8.5,6-15.8,6c-1.1,0-2.3-0.1-3.5-0.3c-1.3-0.2-2.3-0.4-2.9-0.6l0.8-4.3c0.6,0.2,1.5,0.3,2.8,0.5c1.2,0.2,2.2,0.3,2.9,0.3
		c5.2,0,9.2-1.5,12.1-4.6c2.9-3,5.5-7.5,7.7-13.5l5.5-14.9l-36.4-90.9h5L1306.7,1709.3z"/>
	<path class="st3" d="M1371.4,1678.4c0-13.4,3.7-24.4,11.1-32.9c7.4-8.5,17-12.8,28.8-12.8c11.9,0,21.5,4.3,28.9,12.8
		c7.4,8.5,11.1,19.5,11.1,32.9v3.5c0,13.5-3.7,24.4-11.1,32.9c-7.4,8.5-17,12.8-28.8,12.8c-11.9,0-21.5-4.3-29-12.8
		c-7.4-8.5-11.2-19.5-11.2-32.9V1678.4z M1375.9,1682c0,11.5,3.2,21.2,9.6,29.2c6.4,8,15.1,12,25.9,12c10.7,0,19.3-4,25.7-12
		c6.4-8,9.6-17.7,9.6-29.1v-3.5c0-11.2-3.2-20.8-9.7-28.9c-6.5-8.1-15.1-12.1-25.8-12.1c-10.8,0-19.3,4-25.8,12.1
		c-6.4,8.1-9.6,17.7-9.6,28.9V1682z"/>
	<path class="st3" d="M1549.4,1709.5c-2.9,5.8-7,10.3-12.3,13.4c-5.3,3.2-11.8,4.7-19.4,4.7c-9.4,0-16.8-3.3-22.1-10
		c-5.3-6.7-8-17-8-31v-52.1h4.6v52.3c0,12.4,2.3,21.5,6.8,27.5c4.6,5.9,10.7,8.9,18.5,8.9c9.5,0,16.8-2.3,21.9-7
		c5.1-4.7,8.3-10.9,9.8-18.6v-63h4.6v91.4h-3.8L1549.4,1709.5z"/>
	<path class="st3" d="M1637.6,1637.8l-5.9-0.5c-8.2,0-14.8,2.6-19.9,7.9c-5.1,5.3-8.4,12.2-9.9,20.8v59.9h-4.6v-91.4h3.7l0.8,15.9
		v3.1c2.5-6.5,6.3-11.6,11.3-15.2c5-3.6,11.2-5.4,18.5-5.4c1.3,0,2.5,0.1,3.6,0.3c1.1,0.2,2,0.4,2.8,0.6L1637.6,1637.8z"/>
	<path class="st3" d="M1721.4,1680.1c0-14.5,3-26,9.1-34.5c6.1-8.5,14.5-12.8,25.3-12.8c7.2,0,13.3,1.6,18.5,4.8
		c5.2,3.2,9.4,7.6,12.5,13.2v-56.7h4.6v131.8h-4.4l-0.2-14.2c-3,4.9-7.2,8.8-12.5,11.7c-5.3,2.9-11.5,4.3-18.6,4.3
		c-10.8,0-19.2-4.1-25.2-12.3c-6.1-8.2-9.1-19.4-9.1-33.5V1680.1z M1726.1,1681.9c0,12.6,2.5,22.6,7.5,30.1c5,7.4,12.3,11.2,22,11.2
		c7.9,0,14.5-1.8,19.8-5.4c5.3-3.6,9.1-8.4,11.4-14.4v-42.8c-2.2-6.5-5.7-12-10.6-16.4c-4.9-4.4-11.7-6.6-20.4-6.6
		c-9.7,0-17,4-22.1,11.9c-5,7.9-7.6,18.2-7.6,30.9V1681.9z"/>
	<path class="st3" d="M1892.3,1709c-3.2,5.5-7.9,10-14.1,13.5c-6.3,3.5-13.8,5.2-22.7,5.2c-8.5,0-15.2-2.3-20-7
		c-4.8-4.6-7.3-10.9-7.3-18.8c0-7.7,3.6-14.1,10.9-19.3c7.2-5.2,16.3-7.8,27.2-7.8h26.1v-13.3c0-7.6-2.4-13.5-7.3-17.8
		c-4.9-4.3-11.7-6.4-20.6-6.4c-8.3,0-14.9,2-20,6c-5,4-7.6,9.2-7.6,15.5l-3.8-0.2l-0.2-0.4c-0.3-7.1,2.4-13.1,8.3-18
		c5.9-4.9,13.6-7.4,23.2-7.4c9.8,0,17.7,2.5,23.6,7.4c5.9,5,8.9,12.1,8.9,21.5v45.8c0,3.2,0.2,6.3,0.5,9.4c0.4,3,1,6.1,1.8,9h-5.1
		c-0.7-4-1.2-7-1.5-9c-0.3-2-0.4-4.2-0.4-6.5V1709z M1855.5,1723.2c9.1,0,16.7-2,23-6c6.3-4,10.9-9.7,13.8-17.1v-20.5h-25.8
		c-9.5,0-17.4,2.2-23.9,6.5c-6.5,4.4-9.8,9.8-9.8,16.2c0,6.1,2.1,11.2,6.2,15.1C1843.1,1721.2,1848.6,1723.2,1855.5,1723.2z"/>
	<path class="st3" d="M1963.9,1709.3l3.4,9.1h0.5l0.5-1.4l31.6-82.6h5.1l-40.6,106.6c-2.5,6.4-5.4,11.6-8.7,15.7
		c-3.3,4-8.5,6-15.8,6c-1.1,0-2.3-0.1-3.5-0.3c-1.3-0.2-2.3-0.4-2.9-0.6l0.8-4.3c0.6,0.2,1.5,0.3,2.8,0.5c1.2,0.2,2.2,0.3,2.9,0.3
		c5.2,0,9.2-1.5,12.1-4.6c2.9-3,5.5-7.5,7.7-13.5l5.5-14.9l-36.4-90.9h5L1963.9,1709.3z"/>
</g>
</svg>
