<?xml version="1.0" encoding="utf-8"?>
<!-- Generator: Adobe Illustrator 19.2.1, SVG Export Plug-In . SVG Version: 6.00 Build 0)  -->
<svg version="1.1" id="Layer_1" xmlns="http://www.w3.org/2000/svg" xmlns:xlink="http://www.w3.org/1999/xlink" x="0px" y="0px"
	 viewBox="0 0 63.9 63.9" style="enable-background:new 0 0 63.9 63.9;" xml:space="preserve">
<style type="text/css">
	.st0{fill:#333366;}
</style>
<g>
	<g>
		<path class="st0" d="M22.7,9.4c0.1,0.2,0.2,0.3,0.3,0.5c0.1,0.5,0.5,0.5,0.9,0.5c1.5,0.1,3.1,0.1,4.6,0.2c3.7,0.1,7.3,0.4,11,0.6
			c0.1,0,0.2,0,0.3,0c1.4,0.2,2.9,0.2,4.4,0.3c0.6,0,0.9,0.2,1,0.9c0,0.6,0.3,1,0.9,1c0.6,0,0.8-0.4,1-0.9c0.1-0.6,0.4-1.2-0.1-1.9
			c-0.2-0.3,0-0.5,0.2-0.7c0,0,0.1-0.1,0.2-0.1c0.3,0.1,0.1-0.1,0.2-0.2c0.1-0.2,0.2-0.1,0.4-0.1c0.1,0.2,0.2,0.3,0.4,0.3l0,0
			c0.2,0.2,0.4,0.3,0.6,0.3c0.8,0.1,1.6,0.5,2.4,0.3c0.2,0,0.2,0.1,0.1,0.2c-0.1,0.2,0,0.4,0,0.6c0.1,0.1,0,0.1-0.1,0.2
			c0,0-0.1,0-0.1-0.1c0,0,0,0,0,0.1c0,0.1,0,0.3,0.2,0.2c0.5,1.9,1.1,3.7,1.6,5.6c0.1,0.1-0.1,0.4,0.1,0.5c0.3,0.5,0.3,1.1,0.6,1.6
			c0.4,1.3,0.8,2.7,1.5,3.9c0,0.1,0,0.3,0.2,0.3c0.3,0.3,0.6,0.7,0.8,1.1c0,0.4,0.2,0.6,0.5,0.7c0.1,0.2,0.3,0.3,0.4,0.5
			c0.4,0.7,0.9,1.5,1.3,2.2c0.2,0.3,0.4,0.6,0,0.9c-0.1,0.1-0.1,0.3-0.1,0.5c0,0.1-0.1,0.1-0.1,0.1c0,0-0.1-0.1,0,0
			c0,0,0.1,0,0.1,0.1c0,0.1,0,0.2,0,0.2c-0.1,0.4-0.2,0.7,0,1.1c1.3,2.7,2.6,5.4,3.8,8.2c1.1,1.9,0.9,3.9,0.7,5.9
			c0,0.2-0.1,0.5-0.1,0.7c-0.1,0.3,0,0.7-0.1,1c0,0.1,0,0.2,0,0.3c-0.1,0.2,0,0.4-0.1,0.6c0.1,0.3-0.2,0.6-0.1,0.9
			c-0.1,0.2,0,0.3-0.1,0.5c0,0.6-0.4,1.1-0.5,1.6c-0.1,0.2-0.3,0.4-0.4,0.5c-0.1,0-0.2,0.1-0.2,0.3c-0.3,0.5-0.5,1.1-0.6,1.7
			c-0.2,0.6,0.1,1.2-0.1,1.8c-0.5,0.4-1.2,0.7-1.8,1c-0.7,0.2-1.5,0.1-2.3,0.1c-0.2-0.1-0.3-0.2-0.5-0.3c-0.5-0.2-0.7-0.5-0.5-1
			c-0.1-0.1,0-0.2,0.1-0.3c0.1-0.1,0.1-0.1,0.1-0.3c0,0.1,0,0.2-0.1,0.3c-0.2,0.1-0.3-0.1-0.4-0.1c0,0,0,0-0.1,0
			c-0.7-0.4-1.2-1-1.5-1.8c-0.5-0.8-0.8-1.6-1.7-2.1c-0.6-0.1-1.2-0.3-1.7-0.7c-0.2-0.1-0.5,0-0.7-0.1c-0.7-0.8-1-1.9-1.3-2.9
			c-0.2-0.6-0.3-1.2-0.9-1.5c-0.4-0.2-0.7-0.5-1.1-0.2c-0.2,0.1-0.3-0.1-0.5-0.1c-0.1-0.5,0.1-0.9,0.2-1.3c0.1-0.4,0.1-0.7-0.1-1.1
			c-0.2-0.3-0.5-0.2-0.8-0.2l-0.1,0l0,0c0.1-0.4-0.3-0.1-0.4-0.2c-0.2-0.1-0.4-0.3-0.5-0.6c-0.5-1-1.3-1.8-1.9-2.8
			c0.1-0.3-0.2-0.4-0.4-0.5c-0.3-0.1-0.3-0.6-0.6-0.7c-0.2-0.7-0.4-1.3-0.3-2c0.1-0.4-0.2-0.7-0.5-1c-0.2-0.2-0.3-0.4-0.5-0.6
			c0.5-1.6,0.2-3.4,1.2-4.9c0.4-0.7,0.4-1.5,0.2-2.3c-0.1-0.5-0.1-0.9,0.1-1.3c0-0.1,0.1-0.2,0-0.2c-0.7-0.5-0.7-1.5-1.3-2.1
			c-0.4-0.4-0.7-0.5-1.1-0.3c-0.4,0.2-0.6,0.1-0.8-0.3c-0.2-0.4-0.6-0.6-1-0.8c0-0.2-0.1-0.3-0.1-0.5c-0.1-0.1,0.1-0.3-0.1-0.2
			c-0.3-0.2-0.5-0.4-0.9-0.4c-0.3-0.4-0.7-0.7-0.7-1.2c0-0.5-0.3-0.8-0.8-0.9c-0.4-0.1-0.7-0.4-0.8-0.7c-0.4-0.9-1-1.4-2-1.5
			c-0.8-0.8-1.7-1.2-2.8-0.9c-0.2,0-0.3,0.1-0.5,0c0,0,0-0.1,0-0.1c-0.1,0-0.1,0.1-0.1,0.1c-0.5-0.1-0.9,0.1-1.3,0.5
			c-0.2,0.2-0.4,0.4-0.1,0.7c0,0.1,0.1,0.2-0.1,0.2c-1,0.1-1.8,0.5-2.5,1c-1.1,0.4-2.2,0.8-3.4,0.8c-0.3,0.2-0.6-0.1-0.9,0.1
			c-0.2,0-0.4,0.1-0.6,0.1c-0.4-0.2-0.4-0.6-0.4-0.9c0-0.8-0.3-1.4-1.1-1.8c-0.7-0.4-1.5-0.8-2.1-1.3c-0.2-0.5-0.3-1-1-0.7
			c-0.2,0.1-0.5-0.1-0.7-0.2c-0.7-0.4-1.5-0.2-2.2-0.5c-0.4-0.1-1,0-1-0.8c0-0.1-0.2-0.2-0.3-0.3c-0.1-0.1-0.2,0-0.2-0.1
			c-0.1,0,0.1-0.2-0.2-0.1c-0.3,0.1,0,0.2-0.1,0.3c-0.8,0.8-1.7,0.5-2.7,0.6C7.6,13,7.4,13,7.2,12.8c-0.5-0.3-1-0.2-1.4-0.1
			C4.7,13,3.5,13,2.4,13.4c0-0.4,0.3-0.4,0.3-0.6C2.9,12.7,3,12.6,3,12.4c-0.1-0.4,0.4-0.7,0.2-1.1c0-0.1-0.1,0-0.1,0c0,0,0,0,0,0
			c0.1,0.4-0.2,0.6-0.3,0.9c-0.3-0.1-0.5-0.3-0.4-0.6c0.2-0.6-0.1-1.1-0.6-1.5C1.8,9.9,1.6,9.7,1.5,9.5c0-0.2-0.2-0.2-0.4-0.3
			C0.8,9.1,0.8,8.8,0.9,8.5C1,8.1,0.9,7.8,1.5,7.8C8.2,7.9,14.8,8,21.5,8.1c0.5,0,0.8,0.2,0.9,0.7C22.4,9,22.6,9.2,22.7,9.4z"/>
	</g>
</g>
</svg>
